{"glyphs":{"0":{"ha":920,"x_min":34,"x_max":987,"o":"m 287 974 l 734 974 q 751 957 741 974 l 751 911 q 793 885 751 885 q 831 843 831 885 q 886 805 831 805 q 919 788 919 804 l 919 506 q 978 476 919 476 l 987 464 l 987 434 q 928 401 987 401 l 919 388 l 919 232 q 882 156 919 156 l 844 156 q 831 143 838 156 l 831 110 q 789 76 831 76 l 763 76 q 751 63 758 76 l 751 17 q 734 0 751 10 l 295 0 q 270 13 273 0 l 270 30 q 257 76 270 76 l 228 76 q 190 118 190 76 q 165 156 190 156 q 106 181 106 156 q 97 211 106 211 l 72 211 q 34 228 39 211 l 34 283 q 64 299 41 299 l 68 299 l 93 295 q 110 312 100 295 q 106 460 106 411 l 106 679 q 110 742 106 705 q 106 780 106 758 q 182 814 106 804 q 207 885 189 885 l 241 885 q 270 936 270 885 l 270 957 q 287 974 270 964 m 346 793 l 346 746 q 329 729 346 740 l 283 729 q 266 691 266 724 l 266 531 q 236 514 259 514 l 207 514 q 190 498 200 514 l 190 460 q 232 434 190 434 l 257 434 q 266 426 266 433 l 266 283 q 283 245 266 250 l 329 245 q 346 228 336 245 l 346 181 q 371 156 346 156 l 645 156 q 671 198 671 156 q 717 245 671 245 q 751 270 751 245 l 751 586 q 768 616 751 609 l 801 616 q 831 645 831 616 l 831 662 q 789 700 831 700 q 742 725 753 700 q 675 751 675 725 q 671 788 671 766 l 671 805 l 650 810 l 384 810 q 346 793 351 810 m 713 704 l 742 704 q 751 696 751 703 l 751 645 q 721 616 751 616 l 704 616 q 671 662 671 616 q 713 704 671 704 m 329 683 l 451 683 q 468 666 458 683 l 468 611 l 464 603 q 380 607 407 607 l 329 607 q 312 637 312 614 l 312 654 q 329 683 312 676 m 283 514 l 338 514 q 354 498 344 514 l 354 447 q 338 430 354 443 l 317 434 l 304 434 l 274 430 l 270 439 l 270 502 q 283 514 270 508 m 633 413 l 666 413 q 683 396 673 413 l 683 354 q 666 337 683 347 l 620 337 q 603 371 608 337 q 633 413 603 413 z "},"1":{"ha":518,"x_min":7,"x_max":538,"o":"m 256 974 l 349 974 q 374 953 356 974 l 370 932 l 370 784 q 429 751 370 751 q 446 734 435 751 l 446 691 q 382 670 450 650 l 374 662 q 370 548 370 584 l 370 240 q 386 169 370 169 l 496 169 q 538 118 538 169 l 538 72 q 521 0 538 0 l 70 0 q 53 17 64 0 l 53 126 q 133 164 53 164 q 201 160 166 160 l 209 173 l 209 240 q 226 278 209 273 l 256 278 q 290 304 290 278 l 290 333 q 247 358 290 358 q 209 396 209 358 l 209 637 q 197 649 209 643 l 125 649 q 87 679 87 649 l 87 725 q 53 767 53 750 l 53 788 q 129 814 53 804 l 133 843 l 133 869 q 205 894 133 882 q 252 970 205 970 q 256 974 252 974 m 24 738 l 37 738 q 53 721 43 738 l 53 691 q 28 662 53 662 q 7 700 7 662 q 24 738 7 732 m 104 582 l 138 582 q 167 544 167 582 q 150 506 163 506 l 100 506 q 83 523 93 506 q 104 582 85 582 m 163 358 l 193 358 q 209 342 199 358 l 209 295 q 171 278 203 278 q 133 295 139 278 l 133 342 q 163 358 140 358 z "},"2":{"ha":955,"x_min":-14,"x_max":973,"o":"m 352 974 l 769 974 q 803 940 803 974 l 803 906 q 829 893 807 893 l 863 893 q 880 876 869 893 l 880 850 q 922 812 880 812 q 960 795 960 812 l 960 515 q 922 485 960 485 l 892 485 q 880 451 880 482 l 880 425 q 816 399 880 411 q 777 328 808 328 q 692 319 711 328 q 646 323 663 323 l 625 323 q 565 285 565 323 q 492 238 565 238 q 484 213 484 224 l 484 191 q 505 161 484 170 q 552 170 516 161 q 616 157 587 157 l 918 157 l 960 161 q 973 132 973 146 l 973 38 q 956 0 973 5 l 174 0 q 161 13 168 0 l 161 21 q 208 34 161 34 l 288 34 q 314 60 314 34 l 314 98 q 301 111 314 104 l 195 111 q 157 127 162 111 l 157 140 q 233 166 157 157 l 237 174 l 237 230 q 254 247 237 236 l 284 247 q 331 319 331 247 q 391 332 340 326 q 425 404 407 404 l 441 408 l 467 404 q 484 417 484 410 l 484 455 q 501 485 484 478 l 696 485 q 722 528 722 485 q 752 566 722 566 l 790 566 q 807 604 799 566 q 880 621 880 614 l 880 685 q 799 723 799 685 q 769 736 783 736 l 739 736 q 718 804 722 736 l 709 808 l 688 808 q 582 812 624 808 q 522 808 546 808 l 454 812 q 395 783 395 805 q 361 736 395 736 q 314 689 314 736 q 284 655 314 655 l 174 655 l 114 654 l 110 727 l 110 732 q 153 774 110 774 q 220 817 153 817 q 241 884 241 817 q 254 893 243 884 l 288 893 q 314 906 311 893 l 314 936 q 352 974 314 974 m 561 770 l 671 770 q 701 732 701 770 l 701 723 q 667 689 701 689 l 561 689 q 531 706 538 689 l 531 753 q 561 770 538 770 m 730 689 l 786 689 q 803 650 803 683 l 803 642 q 786 612 803 619 l 730 612 l 718 621 l 722 650 l 718 680 l 730 689 m 275 451 l 318 451 q 335 434 325 451 l 335 378 q 314 366 335 369 q 258 382 258 368 l 258 434 q 275 451 258 440 m 3 111 l 140 111 q 157 81 157 104 l 157 64 q 140 34 157 41 l 3 34 q -14 51 -3 34 l -14 94 q 3 111 -14 100 z "},"3":{"ha":899,"x_min":14,"x_max":905,"o":"m 281 972 l 705 972 q 735 955 728 972 l 735 921 q 752 891 735 898 l 799 891 q 820 814 816 891 l 867 814 q 901 793 890 814 l 901 751 q 905 705 901 734 q 858 654 897 654 l 828 654 q 816 641 822 654 l 816 607 q 773 577 816 577 q 735 534 735 577 l 735 458 q 769 416 735 416 l 799 416 q 816 386 816 409 l 816 352 q 828 340 816 346 l 854 340 q 905 310 905 340 l 905 174 q 888 157 905 168 l 841 157 q 811 94 811 157 q 782 77 804 77 l 748 77 q 735 43 735 74 l 735 17 q 718 0 735 10 l 268 0 q 251 17 262 0 l 251 43 q 239 77 251 74 l 209 77 q 171 119 171 77 q 145 157 171 157 q 90 195 90 157 q 64 203 76 203 l 31 203 q 14 220 24 203 l 14 263 q 31 280 14 270 l 64 280 q 102 323 87 280 l 111 327 l 230 327 q 260 297 260 327 l 260 250 q 319 233 260 237 q 332 170 328 227 l 340 165 l 374 165 l 680 161 q 735 191 735 161 q 777 220 735 206 q 782 237 782 228 l 782 259 q 743 297 777 297 q 722 327 732 324 l 608 327 q 574 391 574 327 l 553 395 l 438 395 q 421 412 431 395 l 421 425 q 472 441 421 441 l 561 441 q 578 471 578 448 l 578 492 q 527 522 578 522 l 497 517 q 421 534 421 522 l 421 547 q 451 564 428 564 l 565 564 q 578 590 578 569 l 578 637 q 595 654 578 643 l 709 654 q 743 696 736 654 l 765 701 l 803 701 q 816 726 816 705 l 816 764 q 777 781 810 781 l 752 781 q 692 814 732 814 l 374 814 q 336 793 336 814 q 340 777 336 791 q 315 734 328 736 l 285 734 q 251 671 251 734 q 213 654 241 654 l 119 654 q 90 692 90 654 l 90 772 q 107 810 90 805 l 132 810 q 171 827 165 810 l 171 861 q 188 891 171 884 l 222 891 q 251 921 251 891 l 251 955 q 281 972 258 972 m 671 777 l 722 777 q 735 751 735 772 l 735 718 q 718 701 735 711 l 675 701 q 659 718 669 701 l 659 764 q 671 777 659 770 m 290 530 l 319 530 q 416 517 416 530 l 421 492 q 404 441 419 441 l 277 441 q 260 471 260 448 l 260 500 q 290 530 260 530 m 476 340 q 510 318 498 340 l 510 289 q 480 259 510 259 l 459 259 q 429 297 429 259 q 476 340 429 340 m 709 289 l 722 289 q 735 276 728 289 l 735 229 q 722 216 735 223 l 705 216 q 696 225 696 216 l 696 276 q 709 289 696 282 z "},"4":{"ha":773,"x_min":-41,"x_max":931,"o":"m 634 972 l 740 972 q 774 938 774 972 l 774 755 q 833 739 774 747 q 842 705 842 723 q 800 666 842 666 q 774 654 774 664 l 774 340 q 787 327 774 334 l 901 327 q 931 297 931 327 l 931 212 q 910 157 931 163 l 787 157 q 774 144 781 157 l 774 38 q 757 0 774 5 l 621 0 q 604 17 614 0 l 604 132 q 579 157 604 157 l 138 157 q 121 174 131 157 l 121 178 q 146 191 125 191 l 273 191 q 286 203 279 191 l 286 254 q 248 271 280 271 l 134 271 q 117 310 117 277 l 117 454 q 134 484 117 477 l 172 484 q 197 509 197 484 l 197 547 q 273 569 197 564 q 320 649 288 649 q 345 645 323 649 q 367 683 367 645 l 367 713 q 443 739 367 724 l 443 751 q 469 810 443 810 q 524 831 524 810 q 541 891 524 891 l 579 891 q 604 925 604 891 l 604 955 q 634 972 611 972 m 269 777 l 316 777 q 333 747 333 770 l 333 739 q 303 701 333 701 l 282 701 q 252 730 252 701 l 252 760 q 269 777 252 766 m 524 628 l 524 581 q 507 564 524 575 l 460 564 q 443 534 443 557 l 443 500 q 414 484 436 484 l 380 484 q 367 471 374 484 l 367 437 q 350 408 367 414 l 316 408 q 286 391 293 408 l 286 352 q 299 327 289 327 l 515 327 l 545 331 q 524 369 524 353 l 524 399 q 553 429 524 429 l 574 429 q 604 391 604 429 l 604 344 l 613 348 l 668 348 q 694 374 694 348 l 694 399 q 664 429 694 429 l 621 429 q 604 446 614 429 l 604 632 q 570 645 602 645 l 562 645 q 524 628 530 645 m 570 335 l 570 331 l 596 331 l 596 340 l 591 340 l 570 335 m 44 271 l 65 271 q 117 254 117 271 l 117 208 q 100 191 117 201 l -24 191 q -41 208 -31 191 l -41 250 q 44 271 -41 271 m 435 136 q 469 102 469 133 l 469 94 q 426 55 469 55 q 397 51 410 51 q 388 77 388 65 l 388 102 q 435 136 388 136 z "},"5":{"ha":947,"x_min":0,"x_max":1021,"o":"m 189 968 q 930 972 924 972 l 943 955 l 943 825 q 926 808 943 818 l 340 808 q 294 795 294 808 l 294 661 q 319 648 298 648 l 758 648 q 774 631 764 648 l 774 593 q 821 559 774 559 q 863 543 859 559 l 863 505 q 905 479 863 479 q 1006 454 1002 488 q 976 387 1021 383 q 943 353 943 381 l 943 172 q 926 156 943 166 l 880 156 q 854 143 854 153 l 854 109 q 821 76 854 76 l 787 76 q 774 50 774 71 l 774 17 q 758 0 774 10 l 311 0 q 294 17 304 0 l 294 42 q 282 76 294 73 l 252 76 q 214 118 214 76 q 189 156 214 156 l 156 156 q 139 172 149 156 q 156 189 139 179 l 193 189 q 219 202 209 189 l 214 223 l 214 265 q 139 286 139 273 l 139 298 q 164 311 143 311 l 286 311 q 303 294 293 311 l 303 286 l 298 244 l 311 235 l 340 235 q 378 219 373 235 l 378 168 q 404 156 383 156 l 686 156 q 699 168 692 156 l 699 219 q 736 235 704 235 l 770 235 q 791 277 770 264 l 825 277 q 867 328 867 277 l 867 332 q 846 361 863 361 q 833 357 841 361 q 770 399 770 364 l 741 404 l 711 404 q 699 416 705 404 l 699 446 q 686 479 699 477 l 168 479 q 135 522 135 479 l 135 597 q 105 627 135 627 q 67 623 83 623 q 59 635 59 633 l 59 677 q 113 707 59 707 q 135 715 135 707 l 135 926 q 189 968 135 968 m 34 863 l 50 863 q 80 833 80 863 l 80 804 q 67 779 80 782 l 17 779 q 0 816 0 784 l 0 821 q 34 863 0 863 m 602 458 l 644 458 q 665 416 665 448 q 631 378 663 378 l 606 378 q 572 412 572 378 l 572 420 q 602 458 572 458 m 724 366 l 762 366 q 774 353 768 366 l 774 294 q 732 277 770 277 q 707 311 707 286 l 707 336 q 724 366 707 359 m 76 277 l 109 277 q 135 265 135 275 l 135 206 q 118 189 135 199 l 76 189 q 59 206 69 189 l 59 261 q 76 277 59 267 z "},"6":{"ha":951,"x_min":-20,"x_max":1032,"o":"m 332 965 l 765 965 q 794 948 787 965 l 794 910 q 807 884 797 884 l 841 884 q 875 821 875 884 q 905 804 882 804 l 939 804 q 956 766 956 798 l 956 676 q 939 638 956 644 l 811 638 q 790 719 795 638 q 777 723 782 723 q 739 715 759 723 q 709 736 713 723 l 709 762 l 714 787 q 709 800 709 795 q 587 804 695 800 q 382 795 504 804 q 349 728 382 728 q 298 664 298 728 q 264 647 298 647 l 230 647 q 217 613 217 644 l 217 604 q 243 570 217 570 q 298 541 298 570 q 323 477 305 477 q 366 473 365 477 q 455 477 421 477 l 752 477 q 794 426 794 477 q 820 388 794 388 q 875 358 875 388 l 875 324 q 892 307 875 317 l 930 307 q 939 299 939 306 l 939 290 l 909 286 l 884 286 q 867 269 877 286 l 867 218 q 892 205 871 205 l 943 205 q 956 180 956 201 q 880 146 956 146 q 837 70 880 70 l 807 70 q 794 36 794 67 l 794 10 q 777 -7 794 3 l 315 -7 q 298 23 298 0 l 298 57 q 286 70 298 63 l 260 70 q 217 121 217 70 q 205 151 217 151 l 158 151 q 141 168 151 151 l 141 324 q 158 341 141 331 l 298 347 l 298 409 q 230 426 298 423 q 183 422 193 422 q 141 448 141 434 l 141 642 q 102 672 141 672 l 77 672 q 60 702 60 679 l 60 719 q 94 762 60 762 q 132 753 126 753 q 166 804 142 804 q 217 825 217 804 q 239 884 219 884 l 273 884 q 298 918 298 884 q 332 965 298 965 m 315 647 l 361 647 q 378 608 378 641 q 361 570 378 576 l 315 570 q 298 600 298 577 l 298 617 q 315 647 298 640 m 587 613 l 629 613 q 659 591 653 613 q 642 536 656 536 l 587 536 q 570 566 570 543 l 570 583 q 587 613 570 606 m -3 431 l 128 431 q 141 396 141 428 l 141 379 q 102 341 141 341 l 14 341 q -20 362 -9 341 l -20 401 q -3 431 -20 423 m 298 235 q 319 151 298 151 l 765 151 q 794 214 794 151 l 794 290 q 777 307 794 297 l 328 307 q 298 252 298 307 l 298 235 m 73 286 q 94 269 92 278 l 94 214 q 77 197 94 208 l 31 197 q 18 210 24 197 l 18 269 q 73 286 18 281 m 972 286 l 1002 286 q 1032 269 1025 286 l 1032 214 q 1023 205 1032 205 l 1002 205 l 960 201 l 956 210 l 956 269 q 972 286 956 276 z "},"7":{"ha":871,"x_min":20,"x_max":871,"o":"m 84 974 l 837 974 q 871 910 871 974 l 871 706 q 854 646 871 646 l 837 646 q 790 625 790 646 q 764 566 790 566 q 709 536 709 566 l 709 502 q 633 481 709 485 q 616 408 633 408 l 586 408 q 552 382 552 408 l 552 204 q 595 178 552 178 q 633 140 633 178 q 565 94 633 94 q 548 9 552 94 q 535 0 537 0 l 412 0 q 395 17 405 0 l 395 277 q 467 298 395 289 l 471 306 l 471 361 q 437 374 469 374 l 408 374 q 395 387 401 374 l 395 468 q 467 493 395 481 q 501 566 467 566 l 535 566 q 552 595 552 572 l 552 625 q 624 650 552 642 q 654 723 633 723 q 709 753 709 723 l 709 791 q 696 804 709 797 l 71 804 q 54 821 64 804 l 54 846 q 97 867 54 852 l 97 914 q 63 944 97 944 l 58 953 l 58 961 q 84 974 63 974 m 33 936 l 37 936 q 54 889 54 931 q 41 854 52 854 q 20 884 20 861 l 20 910 q 33 936 23 936 m 186 770 l 292 770 q 326 727 326 770 q 292 689 325 689 l 186 689 q 157 706 163 689 l 157 753 q 186 770 163 770 m 441 702 l 454 702 q 484 672 484 702 l 484 655 q 458 616 484 616 l 429 621 q 416 616 420 616 q 403 646 403 632 l 403 663 q 441 702 403 702 m 331 370 l 373 370 q 395 328 388 370 q 356 294 395 294 q 322 289 333 289 q 314 315 314 303 l 314 353 q 331 370 314 359 z "},"8":{"ha":916,"x_min":-41,"x_max":912,"o":"m 304 974 l 720 974 q 755 940 755 974 l 755 910 q 785 893 762 893 l 819 893 q 836 821 831 893 q 912 795 912 810 l 912 685 q 873 655 912 655 l 785 655 q 755 672 762 655 l 755 787 q 716 817 755 817 l 321 817 q 265 783 265 817 l 265 685 q 227 655 265 655 l 146 655 q 113 668 115 655 l 113 676 q 125 689 113 682 l 172 689 q 189 732 186 689 q 172 770 184 770 l 125 770 q 108 787 119 770 l 108 795 q 176 821 108 809 l 176 876 q 193 893 176 883 l 231 893 q 270 965 270 895 q 304 974 286 974 m 61 770 l 79 770 q 108 732 108 770 l 108 727 q 70 689 108 689 l 66 689 q 27 727 27 689 l 27 736 q 61 770 27 770 m 363 770 l 376 770 q 414 732 414 770 l 414 723 q 380 689 414 689 l 372 689 q 334 727 334 689 l 334 740 q 363 770 334 770 m 283 655 l 738 655 q 755 616 755 649 l 755 591 q 827 570 755 580 l 831 562 l 831 532 q 861 498 831 498 q 912 468 912 498 l 912 187 q 836 153 912 153 l 831 123 l 831 94 q 793 77 825 77 l 767 77 q 755 64 761 77 l 755 38 q 738 0 755 5 l 283 0 q 265 30 265 7 l 265 64 q 253 77 265 70 l 219 77 q 180 106 180 77 l 180 144 q 155 157 176 157 l 117 157 q 100 208 104 157 l 91 213 l 53 213 q 23 225 39 213 q 57 294 23 294 q 108 323 108 294 l 108 332 q 100 481 108 373 q 184 502 118 502 q 206 574 184 574 q 248 578 229 578 l 261 578 q 283 655 265 655 m -11 498 l 10 498 q 40 459 40 498 l 40 455 q 2 417 40 417 l -3 417 q -41 455 -41 417 l -41 459 q -11 498 -41 498 m 265 382 l 265 272 q 308 247 265 247 q 347 200 347 247 l 347 170 q 359 157 347 164 l 652 157 q 678 234 662 157 q 742 255 690 241 q 806 306 742 306 l 823 306 q 831 315 831 306 l 831 370 q 819 382 831 376 l 785 382 q 720 417 776 382 q 682 412 698 412 q 665 434 673 414 q 669 468 669 457 q 656 485 663 485 l 359 485 q 338 421 349 485 q 265 382 265 421 m 499 429 l 529 429 q 559 382 559 429 q 525 349 556 349 l 508 349 q 469 387 469 349 l 469 399 q 499 429 469 429 m 691 382 l 738 382 q 750 370 744 382 l 750 345 q 733 306 750 312 l 678 306 q 661 340 666 306 q 691 382 661 382 z "},"9":{"ha":893,"x_min":81,"x_max":968,"o":"m 277 972 l 701 972 q 735 908 735 972 q 760 891 735 891 l 794 891 q 811 874 801 891 l 811 840 q 884 806 811 806 q 905 768 897 768 l 939 768 q 968 751 962 768 l 968 696 q 896 675 968 686 l 892 666 l 892 186 q 837 157 892 157 q 811 115 811 157 q 773 77 811 77 l 743 77 q 726 4 736 77 l 718 0 l 264 0 q 239 34 256 0 q 175 55 189 44 q 209 123 175 123 q 251 149 251 123 q 277 157 265 157 l 671 157 q 739 195 739 157 q 799 212 799 206 l 803 237 l 803 246 q 777 280 803 280 q 722 314 739 280 l 285 314 q 247 344 247 314 l 247 391 q 217 408 240 408 l 183 408 q 166 446 166 413 l 166 471 q 153 484 166 477 l 115 484 q 81 496 84 484 l 85 534 q 81 573 85 557 q 85 671 85 630 l 85 798 q 158 819 85 809 q 179 891 166 891 l 222 891 q 247 934 247 891 q 277 972 247 972 m 230 666 l 192 666 q 166 632 166 666 l 166 615 q 243 581 166 581 q 260 564 243 575 l 307 564 q 328 522 328 555 l 328 496 q 353 484 332 484 l 629 484 q 654 526 654 484 q 696 564 654 564 q 735 590 735 564 l 735 696 q 705 734 735 734 l 671 734 q 654 751 665 734 l 654 781 q 637 810 654 804 q 604 802 619 810 q 557 810 587 810 l 472 810 q 391 806 437 810 q 378 810 383 810 q 328 777 328 804 q 290 734 328 734 q 247 709 247 734 q 230 666 247 669 m 578 734 l 591 734 q 621 705 621 734 l 621 666 l 608 649 l 587 654 l 574 654 l 553 649 q 540 679 540 665 l 540 696 q 578 734 540 734 m 277 666 l 294 666 q 328 620 328 666 q 294 586 324 586 l 277 586 q 247 615 247 586 l 247 637 q 277 666 247 666 m 179 374 q 213 352 201 374 l 213 323 q 183 293 213 293 l 162 293 q 132 331 132 293 q 179 374 132 374 m 659 280 l 718 280 q 735 242 729 280 q 718 203 729 203 l 659 203 q 642 242 642 210 q 659 280 642 275 z "},"\u0000":{"ha":0,"x_min":0,"x_max":0,"o":""}," ":{"ha":345,"x_min":0,"x_max":0,"o":""},"!":{"ha":276,"x_min":0,"x_max":277,"o":"m 210 972 q 240 959 224 972 l 235 917 l 235 665 q 277 635 240 652 l 277 585 l 235 551 l 235 416 q 240 370 235 399 q 206 332 235 332 l 97 332 q 80 349 90 332 l 80 408 q 130 425 80 425 l 151 425 q 164 437 155 425 q 156 484 156 454 l 156 496 q 80 513 80 507 l 80 779 q 38 816 80 816 q 13 829 13 816 l 13 875 q 71 896 13 892 q 97 972 81 972 l 210 972 m 17 509 l 42 509 q 80 467 80 509 q 46 420 80 420 l 38 420 q 0 450 0 420 l 0 492 q 17 509 0 498 m 109 164 l 223 164 l 240 151 l 235 122 l 235 29 q 193 0 235 0 l 168 4 l 156 4 q 135 0 142 4 q 80 13 80 4 l 80 147 q 109 164 87 164 z "},"\"":{"ha":1848,"x_min":26,"x_max":1799,"o":"m 104 903 l 267 903 q 275 884 271 903 q 295 878 295 884 l 295 861 l 318 861 q 325 854 321 861 l 325 846 q 314 839 325 839 l 314 820 q 310 816 314 816 l 295 816 l 295 807 q 271 792 295 792 q 250 770 271 770 q 233 747 250 747 q 224 730 229 747 l 149 730 q 142 724 146 730 l 142 648 q 138 644 142 644 l 104 644 q 98 650 101 644 l 98 736 q 104 743 98 739 l 109 743 q 111 741 111 743 l 115 743 l 138 743 l 140 753 l 138 764 l 104 764 q 98 770 101 764 l 98 865 l 79 880 l 79 886 q 104 903 79 890 m 382 903 l 503 903 q 511 882 509 903 q 530 869 530 882 q 550 859 530 859 l 550 850 l 562 850 q 567 846 567 849 l 567 828 l 580 828 q 584 833 584 828 l 584 846 l 567 857 q 586 863 567 860 q 595 884 586 882 l 608 884 q 614 903 610 903 l 734 903 q 743 884 739 903 q 762 871 762 884 q 766 863 762 863 l 770 863 q 777 878 770 876 l 787 878 q 794 865 794 876 q 785 857 791 857 l 785 824 q 779 818 785 821 l 745 818 q 738 824 741 818 l 738 837 l 723 837 q 717 859 719 837 l 713 861 l 627 861 q 625 863 625 861 q 610 857 610 860 l 610 841 q 633 835 610 837 l 633 826 l 631 822 l 637 818 l 693 818 q 697 813 697 817 l 697 798 q 719 781 719 798 q 738 772 719 774 q 758 751 738 751 q 764 747 764 751 l 764 730 l 781 730 q 785 726 785 729 l 785 694 q 764 685 785 688 q 755 663 764 663 q 736 646 736 663 q 734 644 736 644 l 614 644 q 606 665 611 644 q 586 683 586 665 l 586 687 l 571 687 q 567 691 567 687 l 567 694 q 578 704 567 695 l 578 715 q 569 726 569 724 q 582 730 576 730 l 606 730 q 612 709 610 730 q 633 700 633 709 q 637 687 633 687 l 713 687 q 721 709 718 687 q 738 713 738 709 l 738 726 q 734 730 738 730 l 702 730 q 695 749 695 730 l 680 749 q 672 775 675 749 l 614 775 q 608 794 610 775 q 588 807 588 794 q 575 818 588 818 q 565 828 567 818 l 550 828 l 550 792 l 565 792 q 571 785 568 792 l 571 777 q 565 770 571 774 l 550 770 l 550 689 q 558 685 558 689 l 558 672 q 554 668 558 668 l 541 668 q 537 672 537 668 l 537 687 l 534 687 q 528 668 531 687 q 509 653 509 665 q 503 644 509 644 l 382 644 q 374 661 379 644 q 353 681 353 661 l 353 687 l 338 687 q 334 691 334 687 l 334 770 q 338 775 334 775 l 353 775 l 353 796 l 338 796 q 334 800 334 796 l 334 857 q 338 861 334 861 l 353 861 l 353 873 q 361 882 353 877 l 374 882 q 382 903 378 903 m 813 903 l 1139 903 q 1152 899 1145 903 q 1156 903 1152 903 l 1278 903 q 1286 880 1286 901 l 1284 871 l 1289 873 l 1299 873 q 1303 869 1303 873 l 1303 857 q 1299 852 1303 852 l 1293 852 q 1280 861 1280 852 l 1244 861 q 1239 857 1239 860 l 1239 691 q 1244 687 1240 687 l 1280 687 q 1284 683 1284 686 l 1284 648 q 1280 644 1284 644 l 1156 644 q 1149 650 1153 644 l 1149 681 q 1156 687 1149 684 l 1192 687 l 1192 691 q 1173 700 1192 694 l 1173 704 q 1179 717 1175 717 l 1194 717 l 1196 739 l 1196 796 q 1216 803 1196 800 l 1216 822 q 1196 839 1196 822 q 1188 861 1195 861 l 1156 861 l 1149 865 l 1130 857 l 1128 857 q 1104 861 1107 861 l 1063 861 l 1061 846 l 1061 648 q 1057 644 1061 644 l 1023 644 q 1017 650 1020 644 l 1017 702 q 1040 709 1017 706 l 1040 724 q 1036 728 1040 728 l 1019 728 l 1019 713 q 1013 706 1019 709 l 1004 706 l 998 711 q 1004 728 1000 728 l 1017 728 l 1017 816 q 998 824 1017 821 l 995 828 l 995 837 q 1017 846 995 843 l 1017 861 l 901 861 q 897 857 897 860 l 897 691 q 901 687 897 687 l 937 687 q 941 683 941 686 l 941 648 q 937 644 941 644 l 813 644 q 806 650 810 644 l 806 681 q 813 687 806 684 l 850 687 l 850 691 q 830 700 850 694 l 830 704 q 837 717 831 717 l 852 717 l 854 739 l 854 796 q 873 803 854 800 l 873 822 q 854 839 854 822 q 845 861 852 861 l 813 861 q 806 867 810 861 l 806 897 q 813 903 806 900 m 1308 903 l 1342 903 q 1346 899 1346 903 l 1346 762 l 1349 751 l 1364 751 q 1372 730 1372 749 l 1387 730 q 1392 726 1392 729 l 1392 691 q 1396 687 1392 687 l 1432 687 l 1434 698 l 1434 726 q 1453 734 1434 728 q 1466 751 1453 751 q 1479 777 1476 751 q 1496 779 1495 779 l 1496 794 q 1477 800 1496 798 l 1475 805 l 1475 826 l 1460 826 q 1453 833 1457 826 l 1453 835 q 1460 848 1455 848 l 1475 848 l 1475 897 q 1481 903 1475 900 l 1518 903 q 1522 899 1522 903 l 1522 777 l 1527 779 l 1560 779 q 1567 772 1564 779 l 1567 764 q 1560 758 1567 761 l 1533 758 l 1522 760 l 1522 739 q 1501 726 1520 732 q 1488 709 1501 709 l 1477 706 l 1477 696 q 1455 685 1477 690 q 1449 663 1455 663 l 1436 663 q 1428 644 1433 644 l 1398 644 q 1390 655 1390 648 l 1390 661 q 1368 670 1368 667 l 1368 685 q 1346 698 1346 685 q 1325 711 1346 711 q 1323 730 1325 722 l 1308 730 q 1303 734 1303 730 l 1303 848 q 1323 854 1303 852 l 1325 859 l 1325 863 l 1323 873 l 1308 873 q 1303 878 1303 873 l 1303 899 q 1308 903 1304 903 m 1571 903 l 1777 903 q 1781 899 1781 903 l 1781 865 q 1768 859 1779 859 l 1614 859 q 1608 852 1611 859 l 1608 800 q 1614 794 1608 798 l 1732 794 q 1738 781 1738 792 l 1738 768 q 1730 749 1738 752 l 1610 749 l 1608 739 l 1608 696 q 1614 689 1608 692 l 1777 689 q 1781 685 1781 688 l 1781 648 q 1777 644 1781 644 l 1571 644 q 1567 648 1567 644 l 1567 753 q 1571 758 1568 758 l 1597 758 l 1608 760 l 1608 775 q 1603 779 1608 779 l 1571 779 q 1567 783 1567 779 l 1567 859 q 1571 863 1568 863 l 1586 863 l 1586 880 q 1567 886 1586 884 l 1567 899 q 1571 903 1568 903 m 941 892 l 944 888 l 944 884 l 941 869 q 954 882 954 869 q 941 892 954 892 m 1550 884 l 1556 884 q 1563 878 1559 884 l 1563 869 q 1556 863 1563 866 l 1544 863 q 1537 869 1540 863 l 1537 878 q 1550 884 1539 884 m 142 854 l 142 828 q 138 824 142 824 l 123 824 l 123 807 q 142 800 123 803 l 142 779 q 149 772 142 776 l 199 772 q 209 792 202 772 q 227 805 227 792 q 233 816 227 816 l 264 816 q 275 831 273 831 q 293 835 293 831 l 293 839 q 277 852 285 839 q 267 861 267 852 l 149 861 q 142 854 146 861 m 378 831 l 378 713 q 389 709 382 713 q 397 711 393 711 q 404 687 399 687 l 479 687 q 486 709 484 687 q 507 713 507 709 l 507 747 q 515 764 507 755 l 515 777 q 507 796 507 786 l 490 796 q 484 803 487 796 l 484 813 q 507 820 484 818 l 507 833 q 484 839 507 837 q 479 861 484 861 l 423 861 q 399 850 399 861 q 380 835 399 838 l 378 831 m 254 854 l 264 854 q 269 850 269 853 l 269 835 q 264 831 269 831 l 254 831 q 248 837 251 831 l 248 848 q 254 854 248 850 m 1668 854 l 1681 854 q 1687 841 1687 852 l 1687 839 q 1681 833 1687 836 l 1668 833 q 1662 839 1665 833 l 1662 848 q 1668 854 1662 850 m 837 826 l 848 826 q 854 820 850 826 l 854 807 q 848 800 854 804 l 837 800 q 830 813 830 803 q 837 826 831 826 m 1179 826 l 1190 826 q 1196 820 1193 826 l 1196 807 q 1190 800 1196 804 l 1179 800 q 1173 813 1173 803 q 1179 826 1175 826 m 147 824 l 158 824 q 164 818 161 824 l 164 805 q 160 800 164 800 l 145 800 q 140 805 140 800 l 140 809 q 142 811 140 811 l 140 816 l 140 818 q 147 824 140 821 m 1252 820 l 1286 820 q 1293 813 1289 820 q 1284 798 1290 798 l 1250 798 q 1246 803 1246 798 l 1246 813 q 1252 820 1246 817 m 1460 798 l 1471 798 q 1477 792 1474 798 l 1477 781 q 1473 777 1477 777 l 1466 777 q 1453 783 1455 777 l 1453 792 q 1460 798 1453 795 m 316 796 l 329 796 q 334 792 334 795 l 334 779 q 329 775 334 775 l 316 775 q 312 779 312 775 l 312 792 q 316 796 313 796 m 970 785 l 987 785 q 1000 779 1000 784 l 1000 768 q 995 764 1000 764 l 963 764 q 957 770 960 764 l 957 779 q 970 785 959 785 m 500 779 l 505 779 q 509 775 509 779 l 509 764 q 505 760 509 760 l 500 760 q 496 764 496 760 l 496 775 q 500 779 497 779 m 1428 770 l 1440 770 q 1447 764 1444 770 l 1447 753 q 1440 747 1447 750 l 1430 747 q 1423 753 1427 747 l 1423 766 q 1428 770 1424 770 m 61 764 l 94 764 q 98 760 98 764 l 98 747 q 94 743 98 743 l 61 743 l 61 764 m 779 764 l 813 764 q 817 760 817 764 l 817 743 l 787 743 l 777 741 l 774 745 l 774 760 q 779 764 775 764 m 1122 764 l 1156 764 q 1160 760 1160 764 l 1160 743 l 1130 743 l 1120 741 l 1117 745 l 1117 760 q 1122 764 1118 764 m 55 760 l 59 760 l 59 747 l 55 747 l 55 760 m 453 753 l 488 753 q 494 747 490 753 q 486 732 494 735 l 453 732 q 447 739 450 732 l 447 747 q 453 753 447 750 m 308 739 l 312 732 l 312 719 q 308 715 312 715 l 295 715 q 290 719 290 715 l 290 732 q 308 739 290 736 m 1301 724 l 1310 724 q 1316 717 1313 724 l 1316 709 q 1310 702 1316 705 l 1299 702 q 1295 706 1295 702 l 1295 717 q 1301 724 1295 720 m 1533 724 l 1544 724 q 1550 717 1546 724 l 1550 706 q 1546 702 1550 702 l 1531 702 q 1527 706 1527 702 l 1527 717 q 1533 724 1527 720 m 562 722 l 567 715 l 567 704 q 562 700 567 700 l 558 700 q 554 704 554 700 l 554 715 q 562 722 554 718 m 72 711 l 83 711 q 90 704 86 711 l 90 696 q 83 689 90 692 l 74 689 q 68 696 71 689 l 68 706 q 72 711 68 711 m 987 689 l 998 689 q 1004 683 1000 689 l 1004 674 q 998 668 1004 671 l 987 668 q 982 672 982 668 l 982 685 q 987 689 983 689 m 1509 674 l 1539 674 q 1546 668 1542 674 l 1546 657 q 1541 653 1546 653 l 1509 653 q 1503 659 1506 653 l 1503 668 q 1509 674 1503 671 m 142 611 l 294 611 l 313 597 q 329 581 313 581 q 334 559 329 559 l 337 559 l 337 603 q 345 611 337 607 l 389 611 q 394 606 394 610 l 394 535 q 424 505 424 535 q 448 494 424 503 l 448 454 q 454 448 449 448 l 497 448 q 505 456 501 448 l 505 494 q 530 503 505 499 q 538 530 530 530 l 557 530 l 557 559 q 565 568 557 564 l 587 568 l 587 589 q 559 597 587 595 l 559 603 q 568 611 559 607 l 611 611 q 616 606 616 610 l 616 543 q 625 538 625 543 l 625 516 l 641 516 q 646 522 646 516 l 646 538 l 625 551 q 649 559 625 556 q 660 587 649 584 l 676 587 q 684 611 679 611 l 836 611 q 847 587 842 611 l 858 587 l 869 597 l 885 597 q 890 592 890 597 l 890 573 q 885 568 890 568 l 871 568 l 871 565 q 877 559 872 559 l 890 559 q 915 570 890 570 l 918 584 q 893 600 918 600 l 893 606 q 899 611 894 611 l 1156 611 q 1164 603 1160 611 l 1164 587 l 1181 587 q 1189 578 1185 587 l 1189 568 q 1124 557 1189 557 l 1056 557 l 1053 538 l 1053 288 q 1048 283 1053 283 l 1004 283 q 996 291 1000 283 l 996 356 q 1026 364 996 361 l 1026 383 q 1021 389 1026 389 l 999 389 l 999 370 q 991 361 999 366 l 980 361 l 972 367 q 980 389 975 389 l 996 389 l 996 500 q 972 511 996 507 l 969 516 l 969 527 q 996 538 969 534 l 996 557 l 899 557 l 901 551 l 901 511 q 893 503 901 507 l 850 503 q 842 511 846 503 l 842 527 l 823 527 q 814 554 817 527 l 809 557 l 701 557 q 698 559 698 557 q 679 551 679 556 l 679 532 q 709 524 679 527 l 709 513 l 706 508 q 714 503 707 508 l 785 503 q 790 497 790 502 l 790 478 q 817 456 817 478 q 842 446 817 447 q 866 418 842 418 q 874 413 874 418 l 874 391 l 896 391 q 901 386 901 391 l 901 345 q 874 334 901 338 q 863 307 874 307 q 839 286 839 307 q 836 283 839 283 l 684 283 q 673 310 681 283 q 649 332 649 310 l 649 337 l 630 337 q 625 342 625 337 l 625 345 q 638 359 625 347 l 638 372 l 627 386 q 644 391 636 391 l 673 391 q 682 364 679 391 q 709 353 709 364 q 714 337 709 337 l 809 337 q 820 364 815 337 q 842 370 842 364 l 842 386 q 836 391 842 391 l 795 391 q 787 416 787 391 l 768 416 q 758 448 762 416 l 684 448 q 676 473 680 448 q 652 489 652 473 q 635 503 652 503 q 622 516 625 503 l 616 516 q 595 500 616 500 q 587 475 590 500 q 562 462 562 475 q 535 446 562 446 q 519 418 535 418 q 505 410 505 418 l 505 345 q 513 337 505 341 q 522 340 519 340 q 532 332 532 336 l 532 318 q 524 310 532 314 l 508 310 q 497 283 504 283 l 454 283 q 448 288 448 283 l 448 370 q 475 378 448 375 l 478 383 l 478 389 l 475 402 l 454 402 q 446 418 446 405 l 429 418 q 416 448 423 418 q 394 465 394 448 q 367 478 394 478 q 345 503 367 503 l 307 503 q 299 511 303 503 l 299 527 l 280 527 q 272 554 275 527 l 267 557 l 158 557 q 155 559 155 557 q 136 551 136 556 l 136 532 q 166 524 136 527 l 166 513 l 163 508 l 172 503 l 242 503 q 248 497 248 502 l 248 478 q 275 456 275 478 q 299 446 275 447 q 323 418 299 418 q 332 413 332 418 l 332 391 l 353 391 q 359 386 359 391 l 359 345 q 332 334 359 338 q 321 307 332 307 q 296 286 296 307 q 294 283 296 283 l 142 283 q 131 310 138 283 q 106 332 106 310 l 106 337 l 87 337 q 82 342 82 337 l 82 345 q 96 359 82 347 l 96 372 q 85 386 96 374 q 101 391 94 391 l 131 391 q 139 364 136 391 q 166 353 166 364 q 172 337 166 337 l 267 337 q 277 364 273 337 q 299 370 299 364 l 299 386 q 294 391 299 391 l 253 391 q 245 416 245 391 l 226 416 q 215 448 220 416 l 142 448 q 134 473 137 448 q 109 489 109 473 q 93 503 109 503 q 79 516 82 503 l 58 516 q 52 522 52 516 l 52 538 q 58 543 53 543 l 77 543 q 82 538 82 543 l 82 516 l 98 516 q 104 522 104 516 l 104 538 l 82 551 q 106 559 82 556 q 117 587 106 584 l 134 587 q 142 611 136 611 m 1200 611 l 1460 611 q 1466 606 1466 610 l 1466 562 q 1449 554 1463 554 l 1254 554 q 1246 546 1250 554 l 1246 481 q 1254 473 1246 477 l 1403 473 q 1411 456 1411 470 l 1411 440 q 1400 416 1411 420 l 1249 416 l 1246 402 l 1246 348 q 1254 340 1246 344 l 1438 340 q 1447 356 1438 356 l 1490 356 q 1495 351 1495 355 l 1495 334 q 1490 329 1495 329 l 1466 329 l 1466 288 q 1460 283 1466 283 l 1200 283 q 1194 288 1194 283 l 1194 421 q 1200 427 1195 427 l 1232 427 l 1246 429 l 1246 448 q 1240 454 1246 454 l 1200 454 q 1194 459 1194 454 l 1194 554 q 1200 559 1195 559 l 1219 559 l 1219 581 q 1194 589 1219 586 l 1194 606 q 1200 611 1195 611 m 1517 611 l 1558 611 q 1569 584 1565 611 q 1593 573 1593 584 l 1593 557 l 1612 557 q 1620 549 1616 557 l 1620 505 l 1623 500 l 1655 503 l 1669 503 q 1674 508 1674 503 l 1674 549 q 1702 559 1674 556 q 1715 584 1702 584 l 1726 584 q 1734 611 1729 611 l 1780 611 q 1786 606 1786 610 l 1786 288 q 1780 283 1786 283 l 1734 283 q 1729 288 1729 283 l 1729 397 q 1734 402 1729 402 l 1753 402 l 1756 416 l 1753 429 l 1734 429 q 1729 435 1729 429 l 1729 486 l 1726 500 l 1710 500 q 1699 475 1703 500 l 1693 473 l 1677 473 q 1661 437 1677 457 q 1650 418 1661 418 l 1639 418 q 1631 435 1631 421 l 1631 446 q 1615 473 1615 446 q 1590 486 1590 473 l 1588 500 l 1571 500 q 1566 494 1566 499 l 1566 291 q 1558 283 1566 287 l 1517 283 q 1509 299 1509 286 l 1509 446 q 1522 462 1522 460 l 1522 473 l 1509 489 l 1509 543 q 1485 551 1509 548 l 1485 570 q 1509 578 1485 576 l 1509 603 q 1517 611 1509 607 m 538 592 l 554 592 q 562 573 560 592 l 554 568 l 538 568 q 530 584 530 570 q 538 592 530 588 m 1322 549 l 1338 549 q 1346 532 1346 546 l 1346 530 q 1338 522 1346 526 l 1322 522 q 1314 530 1318 522 l 1314 541 q 1322 549 1314 545 m 1460 513 l 1474 513 q 1482 505 1478 513 l 1482 494 q 1471 484 1482 490 l 1460 484 q 1452 500 1452 486 l 1452 505 q 1460 513 1452 509 m 1501 481 l 1506 481 q 1512 475 1512 480 l 1512 462 q 1503 454 1512 458 l 1501 454 q 1495 459 1495 454 l 1495 475 q 1501 481 1496 481 m 39 470 l 79 470 q 87 462 83 470 l 87 451 q 79 443 87 447 l 41 443 q 33 451 37 443 l 33 465 q 39 470 34 470 m 581 470 l 622 470 q 630 462 626 470 l 630 451 q 622 443 630 447 l 584 443 q 576 451 580 443 l 576 465 q 581 470 576 470 m 937 462 l 958 462 q 975 454 975 460 l 975 440 q 969 435 975 435 l 928 435 q 920 443 924 435 l 920 454 q 937 462 923 462 m 1143 454 l 1186 454 q 1194 446 1190 454 l 1194 435 q 1186 427 1194 431 l 1145 427 q 1137 435 1141 427 l 1137 448 q 1143 454 1138 454 m 1707 427 l 1723 427 q 1729 421 1729 426 l 1729 408 q 1723 402 1729 402 l 1707 402 q 1702 408 1702 402 l 1702 421 q 1707 427 1702 427 m 427 402 l 440 402 q 448 394 444 402 l 448 383 q 440 375 448 379 l 429 375 q 421 383 425 375 l 421 397 q 427 402 422 402 m 1151 383 l 1164 383 q 1173 375 1168 383 l 1173 361 q 1167 356 1173 356 l 1148 356 q 1143 361 1143 356 l 1143 375 q 1151 383 1143 379 m 77 380 l 82 372 l 82 359 q 77 353 82 353 l 71 353 q 66 359 66 353 l 66 372 q 77 380 66 376 m 619 380 l 625 372 l 625 359 q 619 353 625 353 l 614 353 q 608 359 608 353 l 608 372 q 619 380 608 376 m 405 356 l 418 356 q 427 342 425 356 q 416 329 421 330 l 405 329 q 397 337 401 329 l 397 348 q 405 356 397 352 m 50 340 l 66 340 q 71 334 71 339 l 71 318 q 66 313 71 313 l 50 313 q 44 318 44 313 l 44 334 q 50 340 45 340 m 592 340 l 608 340 q 614 334 614 339 l 614 318 q 608 313 614 313 l 592 313 q 587 318 587 313 l 587 334 q 592 340 587 340 m 958 340 l 972 340 q 980 332 976 340 l 980 321 q 972 313 980 317 l 958 313 q 953 318 953 313 l 953 334 q 958 340 954 340 m 1121 321 l 1159 321 q 1167 313 1163 321 l 1167 299 q 1162 294 1167 294 l 1121 294 q 1113 302 1117 294 l 1113 313 q 1121 321 1113 317 m 45 233 l 66 233 q 68 231 68 233 l 68 172 q 81 164 81 172 l 81 160 l 88 160 q 92 157 90 160 l 92 113 q 96 109 92 111 l 113 109 q 116 112 116 109 l 116 130 q 121 134 116 131 l 130 134 l 130 146 l 119 146 q 116 151 117 146 l 116 155 q 118 158 116 158 l 139 158 q 143 151 143 157 l 143 116 q 139 109 143 109 l 121 109 q 117 104 119 109 l 117 87 q 113 83 117 85 l 96 83 q 91 96 92 83 q 80 100 80 96 q 73 109 80 109 q 67 113 67 109 l 67 144 q 55 148 67 146 q 47 159 55 159 q 41 163 41 159 l 41 176 q 45 180 41 178 l 54 180 l 54 187 q 43 191 54 190 l 41 193 l 41 226 q 45 233 42 233 m 195 233 l 212 233 q 217 228 214 233 l 217 208 l 229 208 q 233 205 231 208 l 233 200 q 229 196 233 198 l 217 196 l 217 163 q 214 159 217 161 l 206 159 q 201 146 203 146 l 191 146 l 191 112 q 179 107 191 109 q 172 96 179 96 q 165 85 165 96 l 163 83 l 145 83 q 140 92 140 85 l 140 97 q 153 109 140 109 q 166 112 166 109 q 155 116 166 114 l 154 118 l 154 123 q 165 128 154 126 l 166 130 l 166 155 q 178 159 166 157 q 182 172 179 172 l 190 172 l 190 202 q 179 206 190 204 l 179 216 q 181 218 179 218 l 190 218 l 190 228 q 195 233 190 230 m 267 233 l 336 233 q 340 221 339 233 q 352 214 352 221 q 354 208 352 208 l 376 208 q 380 205 378 208 l 380 200 q 376 196 380 198 l 363 196 l 363 137 l 364 137 l 370 138 l 373 134 l 373 127 q 370 124 373 124 l 363 124 l 363 111 q 352 107 363 109 q 340 94 352 94 q 336 83 338 83 l 267 83 q 262 94 264 83 q 249 104 249 94 l 249 109 l 241 109 q 238 111 238 109 l 238 157 q 241 159 239 159 l 249 159 l 249 172 l 241 172 q 238 174 238 172 l 238 206 q 241 208 239 208 l 249 208 l 249 216 q 254 221 249 218 l 262 221 q 267 233 264 233 m 414 233 l 483 233 q 488 221 486 233 q 500 210 500 221 q 510 206 510 208 l 510 155 l 516 155 q 520 151 518 155 l 520 146 q 516 143 520 145 l 510 143 l 510 130 l 516 130 q 520 127 518 130 l 520 121 q 517 118 520 118 l 510 118 l 510 111 q 499 107 510 109 q 488 94 499 94 q 483 83 486 83 l 414 83 q 409 94 412 83 q 396 104 396 94 l 396 109 l 388 109 q 385 111 385 109 l 385 157 q 388 159 386 159 l 396 159 l 396 172 l 388 172 q 385 174 385 172 l 385 206 q 388 208 386 208 l 396 208 l 396 216 q 401 221 396 218 l 409 221 q 414 233 411 233 m 534 233 l 602 233 q 608 221 604 233 q 618 214 618 221 q 630 206 618 206 l 631 203 l 631 196 l 640 196 q 645 182 643 196 q 656 179 656 182 l 656 161 l 659 158 l 659 153 l 656 149 l 656 136 q 648 132 654 132 l 645 132 q 637 121 645 121 l 631 119 l 631 111 q 629 109 631 109 l 618 109 q 605 95 618 95 l 605 86 q 603 83 605 83 l 534 83 q 530 87 532 83 l 530 94 q 534 97 530 95 l 545 97 q 547 100 547 97 l 547 107 q 545 109 547 109 l 534 109 q 530 113 532 109 l 530 200 q 542 205 530 203 l 542 214 q 531 217 542 216 l 530 220 l 530 229 q 534 233 530 231 m 703 233 l 770 233 q 774 221 773 233 q 785 217 785 221 q 789 207 785 207 l 795 208 l 797 206 l 797 193 l 806 193 q 808 191 808 193 l 808 185 q 806 182 808 182 l 776 182 q 773 185 773 182 l 773 200 q 770 207 773 206 l 702 207 q 699 205 699 207 l 699 134 q 688 130 699 132 l 687 128 l 687 123 q 699 118 687 119 q 701 109 699 115 l 770 109 q 773 117 773 111 l 773 132 q 776 134 774 134 l 794 134 q 797 132 797 134 l 797 112 q 786 109 797 110 q 779 96 786 96 q 772 85 772 96 l 770 83 l 702 83 q 699 86 699 83 l 699 95 q 686 100 686 96 l 687 102 q 677 109 687 109 q 673 113 675 109 l 673 182 q 687 186 673 185 l 687 195 q 673 199 687 197 l 673 203 q 681 207 675 207 l 684 207 l 687 214 q 686 218 686 217 q 696 221 690 221 l 698 221 q 703 233 698 232 m 821 233 l 831 233 q 842 228 841 233 l 842 124 q 854 121 842 122 q 870 109 854 109 l 877 109 q 884 122 882 122 l 892 122 l 892 130 q 905 134 892 133 q 908 146 905 146 l 916 146 l 916 168 q 905 172 916 169 l 905 180 q 907 182 905 182 l 916 182 l 916 222 q 924 233 916 233 l 1166 233 q 1170 229 1168 233 l 1170 222 l 1177 222 q 1181 218 1179 222 l 1181 214 q 1152 208 1181 208 l 1121 208 l 1120 200 l 1120 86 q 1117 83 1120 83 l 1097 83 q 1093 87 1095 83 l 1093 117 q 1107 121 1093 119 l 1107 130 q 1105 132 1107 132 l 1095 132 l 1095 123 q 1091 119 1095 121 l 1086 119 l 1082 122 q 1086 132 1084 132 l 1093 132 l 1093 182 q 1082 187 1093 186 l 1081 190 l 1081 195 q 1093 200 1081 198 l 1093 208 l 1013 208 l 1012 200 l 1012 86 q 1010 83 1012 83 l 989 83 q 986 87 988 83 l 986 117 q 1000 121 986 119 l 1000 130 q 997 132 1000 132 l 987 132 l 987 123 q 983 119 987 121 l 979 119 l 975 122 q 979 132 976 132 l 986 132 l 986 182 q 975 187 986 186 l 974 190 l 974 195 q 986 200 974 198 l 986 208 l 943 208 l 943 87 q 939 83 943 85 l 920 83 q 917 87 919 83 l 917 91 l 929 91 l 930 97 l 930 100 q 917 104 930 103 q 913 109 917 106 l 896 109 q 893 106 893 108 l 893 87 q 886 83 892 83 l 846 83 q 842 96 843 83 l 838 96 q 829 107 829 96 q 818 112 818 109 l 818 119 q 830 128 818 128 l 830 137 q 819 142 830 140 l 818 144 l 818 229 q 821 233 818 231 m 1186 233 l 1305 233 q 1308 227 1308 233 l 1327 227 q 1331 223 1329 227 l 1331 218 q 1327 214 1331 216 l 1308 214 q 1300 207 1308 207 l 1211 207 q 1207 203 1209 207 l 1207 174 q 1211 170 1207 172 l 1279 170 q 1282 163 1282 169 l 1282 155 q 1278 144 1282 146 l 1208 144 l 1207 138 l 1207 113 q 1211 109 1207 111 l 1305 109 q 1308 107 1308 109 l 1308 86 q 1305 83 1308 83 l 1186 83 q 1184 86 1184 83 l 1184 146 q 1186 149 1184 149 l 1201 149 l 1207 151 l 1207 159 q 1205 161 1207 161 l 1186 161 q 1184 164 1184 161 l 1184 207 q 1186 210 1184 210 l 1195 210 l 1195 220 q 1184 223 1195 222 l 1184 231 q 1186 233 1184 233 m 1333 233 l 1428 233 l 1431 232 l 1430 226 q 1443 220 1430 222 l 1444 208 l 1453 208 q 1456 206 1456 208 l 1456 185 q 1453 182 1456 182 l 1444 182 q 1437 172 1444 172 q 1428 159 1428 172 q 1417 155 1421 158 l 1419 153 q 1409 145 1419 145 q 1405 142 1407 145 l 1405 140 l 1407 134 l 1426 134 q 1431 122 1430 134 q 1444 109 1444 121 l 1444 109 l 1452 109 q 1456 104 1454 109 l 1456 87 q 1452 83 1456 85 l 1434 83 q 1419 94 1428 91 l 1417 101 q 1430 104 1420 103 l 1430 106 l 1426 109 l 1407 109 q 1405 111 1405 109 l 1405 119 q 1393 130 1393 119 l 1392 134 l 1369 134 q 1354 132 1363 134 l 1354 86 q 1352 83 1354 83 l 1335 83 q 1330 88 1333 83 l 1330 101 q 1342 106 1330 104 l 1342 115 q 1331 118 1342 117 l 1330 121 l 1330 170 q 1327 172 1330 172 l 1320 172 q 1317 174 1317 172 l 1317 181 q 1321 185 1317 183 l 1330 185 l 1330 211 q 1333 214 1330 213 l 1352 214 q 1354 217 1354 214 l 1354 224 q 1352 227 1354 227 l 1333 227 q 1331 229 1331 227 l 1331 231 q 1333 233 1331 233 m 1542 233 l 1661 233 q 1664 231 1664 233 l 1664 211 q 1656 207 1662 207 l 1567 207 q 1563 203 1565 207 l 1563 174 q 1567 170 1563 172 l 1635 170 q 1638 163 1638 169 l 1638 155 q 1634 144 1638 146 l 1565 144 l 1563 138 l 1563 113 q 1567 109 1563 111 l 1666 109 q 1668 107 1668 109 l 1668 100 q 1664 97 1668 97 l 1664 86 q 1661 83 1664 83 l 1542 83 q 1540 86 1540 83 l 1540 146 q 1542 149 1540 149 l 1557 149 l 1563 151 l 1563 159 q 1561 161 1563 161 l 1542 161 q 1540 164 1540 161 l 1540 207 q 1542 210 1540 210 l 1551 210 l 1551 220 q 1540 223 1551 222 l 1540 231 q 1542 233 1540 233 m 1701 233 l 1770 233 l 1776 222 q 1786 214 1786 222 q 1799 208 1786 208 l 1799 206 l 1799 187 q 1796 184 1799 186 l 1776 184 q 1772 187 1774 184 l 1772 195 l 1763 195 q 1760 207 1761 195 l 1757 208 l 1708 208 q 1707 210 1707 208 q 1698 206 1698 208 l 1698 197 q 1712 193 1698 195 l 1712 189 l 1710 186 l 1714 184 l 1746 184 q 1749 181 1749 183 l 1749 172 q 1761 163 1761 172 q 1772 158 1761 159 q 1784 145 1772 145 q 1787 143 1787 145 l 1787 133 l 1797 133 q 1799 130 1799 133 l 1799 112 q 1787 107 1799 109 q 1782 95 1787 95 q 1771 85 1771 95 q 1770 83 1771 83 l 1701 83 q 1695 96 1699 83 q 1685 106 1685 96 l 1685 109 l 1676 109 q 1673 111 1673 109 l 1673 112 q 1680 118 1673 113 l 1680 124 q 1674 130 1680 125 q 1682 133 1678 133 l 1695 133 q 1699 121 1698 133 q 1712 116 1712 121 q 1714 109 1712 109 l 1757 109 q 1763 121 1761 109 q 1772 123 1772 121 l 1772 130 q 1770 133 1772 133 l 1751 133 q 1748 144 1748 133 l 1739 144 q 1734 159 1736 144 l 1701 159 q 1697 170 1698 159 q 1686 178 1686 170 q 1678 184 1686 184 q 1672 190 1673 184 l 1662 190 q 1659 193 1659 190 l 1659 200 q 1662 202 1660 202 l 1671 202 q 1673 200 1673 202 l 1673 190 l 1681 190 q 1683 193 1683 190 l 1683 200 l 1673 206 q 1685 210 1673 208 q 1689 222 1685 220 l 1697 222 q 1701 233 1698 233 m 943 227 l 943 214 q 950 221 950 214 q 943 227 950 227 m 1530 222 l 1533 222 q 1537 218 1535 222 l 1537 214 q 1533 210 1537 212 l 1526 210 q 1522 214 1525 210 l 1522 218 q 1530 222 1524 222 m 897 218 l 903 218 q 907 214 905 218 l 907 210 q 903 206 907 208 l 897 206 q 895 208 895 206 l 895 216 q 897 218 895 218 m 521 216 l 528 216 q 530 214 530 216 l 530 206 q 528 203 530 203 l 521 203 q 517 207 519 203 l 517 212 q 521 216 517 214 m 264 191 l 264 123 q 270 121 267 123 q 275 122 273 122 q 279 109 277 109 l 322 109 q 326 121 325 109 q 338 123 338 121 l 338 143 q 343 153 338 147 l 343 160 q 338 172 338 165 l 328 172 q 325 175 327 172 l 325 181 q 338 185 325 184 l 338 193 q 325 196 338 195 q 322 208 325 208 l 290 208 q 277 202 277 208 q 265 193 277 195 l 264 191 m 411 191 l 411 123 q 417 121 413 123 q 422 122 420 122 q 426 109 423 109 l 469 109 q 473 121 472 109 q 486 123 486 121 l 486 143 q 490 153 486 147 l 490 160 q 486 172 486 165 l 475 172 q 472 175 473 172 l 472 181 q 486 185 472 184 l 486 193 q 472 196 486 195 q 469 208 472 208 l 437 208 q 423 202 423 208 q 412 193 423 195 l 411 191 m 555 206 l 555 111 q 557 109 555 109 l 589 109 l 595 119 q 600 121 597 121 l 604 121 q 609 134 605 134 l 616 134 q 623 146 616 142 l 630 146 q 642 154 630 154 l 644 157 l 644 159 l 642 165 l 633 165 q 618 172 630 170 q 612 182 618 182 q 604 193 604 182 q 591 207 591 193 l 585 208 l 572 208 q 555 206 564 208 m 1354 199 l 1354 163 q 1358 159 1354 161 l 1392 159 q 1405 172 1392 172 l 1405 179 q 1416 185 1405 181 q 1428 197 1416 197 l 1430 200 l 1430 206 q 1428 208 1430 208 l 1358 208 q 1354 199 1354 208 m 1242 205 l 1249 205 q 1253 197 1253 203 l 1253 196 q 1249 193 1253 194 l 1242 193 q 1238 196 1240 193 l 1238 201 q 1242 205 1238 203 m 1598 205 l 1605 205 q 1609 197 1609 203 l 1609 196 q 1605 193 1609 194 l 1598 193 q 1594 196 1596 193 l 1594 201 q 1598 205 1594 203 m 665 197 l 671 197 q 673 195 673 197 l 673 187 q 671 185 673 185 l 665 185 q 661 189 663 185 l 661 193 q 665 197 661 195 m 172 193 l 178 193 q 180 191 180 193 l 180 184 q 178 181 180 181 l 172 181 q 168 185 170 181 l 168 190 q 172 193 168 192 m 34 191 l 39 191 q 43 187 41 191 l 43 182 q 40 180 43 180 l 33 180 q 29 187 29 181 l 34 191 m 589 178 l 598 178 q 603 176 601 178 q 608 178 605 178 q 610 175 610 177 l 610 166 q 606 163 610 165 l 588 163 q 585 165 585 163 l 585 168 q 589 178 585 177 m 228 172 l 235 172 q 238 169 238 171 l 238 161 q 235 159 238 159 l 228 159 q 226 161 226 159 l 226 169 q 228 172 226 172 m 375 172 l 382 172 q 385 169 385 171 l 385 161 q 382 159 385 159 l 375 159 q 373 161 373 159 l 373 169 q 375 172 373 172 m 1653 169 l 1672 169 q 1676 165 1674 169 l 1676 160 q 1672 157 1676 159 l 1655 157 q 1651 160 1653 157 l 1651 166 q 1653 169 1651 169 m 807 168 l 809 168 q 813 164 811 168 l 813 157 q 810 154 813 154 l 802 154 q 800 157 800 154 l 800 164 q 807 168 800 168 m 623 165 l 629 165 q 631 163 631 165 l 631 157 q 627 153 631 155 l 623 153 q 618 157 621 153 l 618 161 q 623 165 618 163 m 959 165 l 968 165 q 976 161 976 164 l 976 155 q 974 153 976 153 l 955 153 q 951 157 954 153 l 951 161 q 959 165 953 165 m 1066 165 l 1076 165 q 1084 161 1084 164 l 1084 155 q 1081 153 1084 153 l 1063 153 q 1059 157 1061 153 l 1059 161 q 1066 165 1060 165 m 334 161 l 337 161 q 340 159 340 161 l 340 153 q 337 151 340 151 l 334 151 q 332 153 332 151 l 332 159 q 334 161 332 161 m 481 161 l 484 161 q 486 159 486 161 l 486 153 q 484 151 486 151 l 481 151 q 479 153 479 151 l 479 159 q 481 161 479 161 m 1160 161 l 1180 161 q 1184 158 1182 161 l 1184 153 q 1180 149 1184 151 l 1162 149 q 1158 153 1160 149 l 1158 159 q 1160 161 1158 161 m 1516 161 l 1536 161 q 1540 158 1538 161 l 1540 153 q 1536 149 1540 151 l 1518 149 q 1514 153 1516 149 l 1514 159 q 1516 161 1514 161 m 29 157 l 37 157 q 39 154 39 156 l 39 146 q 37 144 39 144 l 29 144 q 26 146 26 144 l 26 154 q 29 157 27 157 m 1303 155 l 1310 155 q 1314 148 1314 154 l 1314 146 q 1310 143 1314 145 l 1303 143 q 1299 146 1301 143 l 1299 151 q 1303 155 1299 153 m 107 146 l 113 146 q 117 143 115 146 l 117 138 q 113 134 117 136 l 107 134 q 103 138 105 134 l 103 139 q 107 146 104 146 m 307 146 l 327 146 q 331 143 329 146 q 326 134 331 136 l 307 134 q 304 138 306 134 l 304 143 q 307 146 304 144 m 454 146 l 474 146 q 478 143 476 146 q 473 134 478 136 l 454 134 q 451 138 452 134 l 451 143 q 454 146 451 144 m 810 139 l 815 139 q 818 137 818 139 l 818 130 q 815 127 818 127 l 809 127 q 807 130 807 127 l 807 136 q 810 139 807 137 m 223 138 l 226 134 l 226 127 q 223 124 226 124 l 216 124 q 214 127 214 124 l 214 134 q 223 138 214 137 m 1293 134 l 1310 134 q 1314 130 1312 134 l 1314 125 q 1310 122 1314 124 l 1291 122 q 1289 124 1289 122 l 1289 130 q 1293 134 1289 132 m 702 132 l 708 132 q 711 128 709 132 l 711 123 q 708 119 711 121 l 703 119 q 699 123 701 119 l 699 130 q 702 132 700 132 m 38 130 l 58 130 q 61 123 61 130 l 61 122 q 58 118 61 120 l 38 118 q 35 121 35 118 l 35 128 q 38 130 36 130 m 1164 130 l 1170 130 q 1174 125 1172 130 l 1174 119 q 1171 117 1174 117 l 1163 117 q 1160 119 1160 117 l 1160 125 q 1164 130 1160 127 m 1520 130 l 1526 130 q 1530 125 1528 130 l 1530 119 q 1527 117 1530 117 l 1519 117 q 1516 119 1516 117 l 1516 125 q 1520 130 1516 127 m 1671 128 l 1673 124 l 1673 118 q 1671 116 1673 116 l 1668 116 q 1666 118 1666 116 l 1666 124 q 1671 128 1666 126 m 647 123 l 667 123 q 671 119 669 123 l 671 115 q 667 111 671 113 l 648 111 q 645 118 645 112 l 645 121 q 647 123 645 123 m 1321 117 l 1327 117 q 1331 113 1329 117 l 1331 109 q 1327 104 1331 106 l 1322 104 q 1317 109 1320 104 q 1321 117 1318 117 m 1473 115 l 1497 115 q 1500 111 1498 115 l 1500 87 q 1497 83 1500 85 l 1473 83 q 1470 87 1471 83 l 1470 111 q 1473 115 1470 113 m 524 109 l 528 109 q 530 107 530 109 l 530 100 q 528 97 530 97 l 525 97 q 521 101 523 97 l 521 107 q 524 109 522 109 m 968 109 l 975 109 q 979 106 977 109 l 979 101 q 975 97 979 99 l 968 97 q 966 100 966 97 l 966 107 q 968 109 966 109 m 1076 109 l 1082 109 q 1086 106 1084 109 l 1086 101 q 1082 97 1086 99 l 1076 97 q 1074 100 1074 97 l 1074 107 q 1076 109 1074 109 m 908 103 l 914 103 q 917 101 917 103 l 917 91 l 907 91 q 905 94 905 91 l 905 100 q 908 103 905 102 m 1150 101 l 1168 101 q 1171 97 1169 101 l 1171 91 q 1169 88 1171 88 l 1150 88 q 1147 92 1149 88 l 1147 97 q 1150 101 1147 99 m 1506 101 l 1524 101 q 1527 97 1525 101 l 1527 91 q 1525 88 1527 88 l 1506 88 q 1503 92 1505 88 l 1503 97 q 1506 101 1503 99 z "},"#":{"ha":906,"x_min":47,"x_max":871,"o":"m 147 1143 q 250 1135 230 1135 q 256 1122 256 1127 q 248 1089 256 1089 q 190 1093 238 1089 q 181 1069 181 1093 q 229 1056 181 1056 l 235 1048 q 233 1046 235 1046 l 235 1043 q 227 1021 235 1029 q 233 1015 230 1021 l 233 1011 q 227 1006 233 1008 q 188 1008 195 1008 q 177 993 177 1008 l 177 985 q 179 976 177 979 q 168 928 176 930 l 161 928 q 127 939 127 928 q 133 1006 131 993 q 131 1023 131 1013 q 136 1034 136 1024 q 133 1037 133 1034 q 138 1112 136 1102 q 136 1128 136 1118 q 147 1143 142 1143 m 299 1132 l 338 1128 q 349 1130 340 1128 q 405 1105 405 1128 q 410 1091 409 1105 q 395 950 410 1051 l 395 935 q 353 911 377 911 q 271 930 271 916 q 260 952 260 940 l 260 954 q 262 961 260 958 q 260 968 260 964 q 264 983 261 983 l 262 987 l 262 995 q 268 1039 262 1017 q 266 1052 266 1046 q 273 1112 269 1062 l 299 1132 m 438 1120 q 490 1107 490 1120 l 505 1056 l 503 1056 q 516 1023 511 1023 q 519 1029 516 1025 q 530 1113 519 1113 l 538 1113 q 573 1104 573 1113 q 557 904 560 934 q 551 899 552 899 q 536 900 538 900 q 516 897 519 897 q 494 919 494 897 q 471 978 476 975 q 460 902 465 907 l 453 902 q 416 911 416 902 q 427 1065 427 1040 q 433 1076 433 1067 q 429 1080 433 1080 q 431 1107 431 1098 l 431 1112 q 438 1120 435 1120 m 592 1113 q 669 1104 638 1113 q 718 1093 718 1104 q 720 1085 718 1092 q 712 1054 720 1065 l 694 1056 q 673 1043 673 1056 q 661 895 664 924 l 654 891 q 625 892 635 892 l 623 892 q 614 909 614 898 q 625 1002 618 978 l 621 1009 l 625 1057 q 606 1067 623 1067 l 592 1067 q 585 1074 589 1067 q 586 1076 585 1076 l 585 1080 l 585 1102 q 592 1113 589 1113 m 758 1102 q 840 1091 780 1095 q 871 1057 861 1091 q 864 1023 871 1023 l 852 1023 q 819 1036 819 1023 q 783 1046 819 1046 l 781 1046 q 775 1023 776 1046 q 790 1009 788 1009 q 859 991 849 1009 q 866 978 864 978 q 851 887 861 887 q 827 874 834 874 q 788 882 795 874 q 729 897 729 882 l 715 911 q 725 952 718 952 q 770 937 770 952 q 795 924 770 931 q 812 930 800 924 l 812 948 l 814 952 q 786 963 805 963 l 786 967 q 740 978 740 967 q 723 1000 732 978 q 732 1082 728 1082 q 758 1102 743 1096 m 325 1080 q 323 1082 325 1082 l 318 1074 q 311 975 318 1059 q 329 963 315 963 q 349 976 349 963 q 360 1071 360 1022 q 349 1084 355 1082 q 325 1080 345 1084 m 134 913 l 136 913 l 142 909 l 146 909 q 181 895 181 909 l 182 886 q 175 876 179 877 l 172 876 l 147 887 l 146 887 q 138 884 141 884 l 138 880 q 172 869 138 873 q 181 854 177 862 l 179 841 l 179 828 q 162 810 172 812 q 113 831 113 812 q 118 846 113 846 l 129 846 q 146 833 137 839 q 155 839 155 836 l 155 845 q 123 856 155 851 q 116 865 116 864 l 116 871 q 134 913 116 913 m 197 906 q 236 904 222 904 q 250 887 250 898 l 250 880 q 235 845 250 845 q 208 828 208 845 q 201 810 205 810 l 190 810 q 184 819 187 810 q 197 906 191 906 m 273 900 l 284 900 q 299 863 293 900 l 298 863 l 311 821 l 312 821 q 314 858 314 848 q 318 861 318 858 l 318 872 q 325 897 319 897 l 334 897 l 342 891 q 334 833 338 833 l 334 826 l 336 808 l 329 800 q 288 811 288 800 q 281 817 288 813 l 279 817 q 256 804 265 817 l 245 804 q 242 808 242 804 l 242 819 q 260 874 251 836 q 273 900 268 897 m 357 895 q 382 867 382 895 q 385 861 385 867 l 388 861 q 397 891 391 891 l 408 891 q 414 878 413 891 q 401 795 414 795 q 382 793 391 793 q 373 821 378 800 l 372 821 q 364 797 366 821 q 362 795 362 797 q 344 802 344 797 q 347 869 347 860 q 351 872 351 869 q 349 889 349 882 l 357 895 m 438 887 l 449 887 q 453 884 453 886 q 449 811 449 823 q 448 810 448 811 q 460 808 453 810 q 479 886 470 886 q 499 880 499 886 l 499 874 q 501 787 499 846 l 497 785 l 484 785 l 484 804 l 477 804 q 471 787 476 787 q 436 789 451 789 l 435 789 q 429 795 432 789 q 435 886 435 871 l 438 887 m 212 874 l 214 865 l 222 865 q 227 871 224 865 l 227 876 q 220 882 227 881 q 212 874 214 880 m 514 882 l 530 882 q 549 861 549 882 l 549 850 q 540 838 549 838 q 547 823 547 829 l 547 813 q 538 783 546 783 l 510 783 q 505 789 508 783 l 510 880 l 514 882 m 578 880 q 597 858 594 880 q 578 778 597 778 l 566 778 q 553 798 553 787 q 575 880 553 880 l 578 880 m 606 876 q 642 858 642 876 l 642 848 q 634 828 642 828 l 634 824 q 640 815 639 815 l 636 776 l 623 776 l 620 778 q 621 806 621 796 l 621 819 l 618 819 l 618 817 q 612 776 618 776 q 597 782 597 778 q 606 876 603 876 m 656 872 q 681 867 681 871 l 681 831 l 682 813 l 681 813 l 682 810 l 682 776 q 679 772 682 772 l 669 772 q 666 776 666 772 l 666 791 l 659 791 q 653 774 659 774 l 644 774 q 640 780 640 774 q 656 872 653 869 m 694 869 l 695 869 q 729 863 729 869 l 729 861 q 718 846 729 846 l 715 846 q 712 770 712 777 l 697 770 q 694 774 694 770 q 699 848 697 835 q 688 852 688 848 q 694 869 690 869 m 758 867 q 773 845 766 867 q 751 765 773 765 l 742 765 q 729 783 729 772 q 747 867 729 867 l 758 867 m 527 863 l 527 843 l 530 843 l 532 856 l 532 859 q 529 863 532 863 l 527 863 m 575 861 q 572 797 572 816 l 575 797 q 578 861 578 839 l 575 861 m 781 863 q 818 843 818 863 l 818 839 q 808 811 818 821 q 814 800 814 810 q 812 763 814 791 l 799 763 q 795 767 795 763 q 798 806 798 800 l 793 808 q 788 763 791 763 l 779 765 l 773 765 l 773 767 q 781 863 777 852 m 825 859 l 834 859 q 838 856 838 859 l 838 826 l 840 826 q 849 858 845 858 l 859 858 l 862 856 q 844 763 844 799 q 840 760 844 760 q 825 763 834 760 l 829 798 q 821 858 827 805 l 825 859 m 621 856 q 620 836 620 840 l 623 836 l 625 845 l 625 856 l 621 856 m 483 852 q 479 823 483 850 l 484 823 l 484 852 l 483 852 m 275 845 l 275 839 l 281 839 l 281 848 l 279 848 q 275 845 275 848 m 751 848 l 745 783 l 747 783 q 751 787 751 783 q 755 848 755 844 l 751 848 m 795 843 l 795 823 q 801 841 800 823 l 798 843 l 795 843 m 664 838 q 661 810 664 833 l 664 808 l 666 808 l 666 838 l 664 838 m 525 826 l 525 821 l 524 802 l 525 802 q 529 806 529 802 l 529 826 l 525 826 m 119 797 q 149 778 149 797 q 155 755 155 758 l 159 755 q 177 793 159 760 l 186 791 l 201 791 q 205 787 205 790 q 195 706 202 706 l 182 706 q 172 721 172 706 l 172 728 l 161 709 l 157 707 q 134 732 138 707 l 133 732 q 129 711 133 711 l 111 711 l 106 713 q 113 793 113 772 q 119 797 117 797 m 220 789 q 250 776 250 789 l 256 749 l 260 749 q 279 783 275 783 l 303 783 q 307 780 307 783 q 298 699 303 699 l 283 699 q 271 702 277 699 l 273 711 l 273 721 l 260 701 l 258 701 q 238 721 238 701 q 236 724 236 721 l 235 724 q 231 702 235 705 q 208 706 214 705 q 214 785 214 770 l 220 789 m 321 782 q 349 767 349 782 q 355 760 352 760 q 370 778 365 778 q 393 772 393 778 l 370 739 q 388 693 370 731 q 387 691 387 693 l 368 693 l 360 693 q 349 715 357 693 l 347 715 q 336 694 342 708 q 309 701 309 696 q 332 741 332 734 q 316 780 316 776 q 321 782 319 782 m 446 772 q 473 758 473 772 l 483 732 q 505 767 503 767 l 529 767 l 532 765 q 527 684 527 703 l 524 682 l 509 682 q 497 687 499 682 l 497 691 l 499 704 l 496 704 q 484 684 490 684 q 462 707 462 684 q 456 687 458 707 l 438 687 q 435 691 435 687 q 446 772 435 772 m 545 765 q 575 752 575 765 q 586 724 583 724 q 606 760 599 753 l 629 760 l 634 755 q 629 676 629 702 l 625 674 l 605 674 q 599 680 602 674 l 599 684 l 601 696 l 597 696 q 585 676 593 676 q 564 701 564 676 q 558 680 560 701 q 557 678 557 680 q 534 684 538 680 q 545 765 540 765 m 646 758 q 677 741 677 758 q 679 735 679 737 l 682 735 q 697 754 690 754 q 720 749 720 753 l 695 713 l 714 669 l 710 667 q 681 680 681 667 l 677 691 l 675 691 q 661 671 663 671 q 636 678 636 671 q 659 715 659 709 l 642 755 l 646 758 m 734 750 l 755 750 l 760 747 q 755 667 755 703 l 751 665 l 734 665 q 723 669 729 665 q 729 689 724 689 l 727 699 q 729 747 729 742 l 734 750 m 771 749 q 801 735 801 749 q 806 726 802 726 q 821 745 817 745 q 846 739 846 745 q 821 702 821 707 q 840 660 821 699 q 838 658 838 660 q 806 667 806 658 q 799 682 806 677 q 786 661 789 662 q 766 663 774 663 l 762 663 l 762 665 q 784 704 762 671 l 784 707 q 768 747 768 743 l 771 749 m 401 735 l 410 734 l 425 734 l 429 735 l 431 732 q 418 715 420 715 l 416 715 l 397 717 q 395 715 397 715 l 393 719 q 401 735 401 734 m 340 717 l 340 713 l 342 713 l 342 717 l 340 717 m 666 693 l 666 689 l 667 689 l 667 693 l 666 693 m 111 691 l 118 691 q 123 682 122 691 q 121 632 121 648 l 121 630 l 123 630 q 133 646 128 646 q 144 630 144 646 l 146 630 q 155 687 152 685 q 161 689 157 687 q 172 684 172 687 q 151 530 164 605 l 142 528 l 138 528 q 131 569 131 528 l 131 572 l 127 572 q 105 519 120 519 l 101 519 q 98 523 98 519 l 98 545 q 99 565 98 553 q 98 570 98 569 l 103 630 q 101 632 103 632 q 103 660 103 650 l 103 678 q 111 691 103 688 m 199 686 q 201 684 201 686 l 205 686 l 220 686 q 231 665 225 686 q 207 541 224 541 l 177 536 q 168 550 168 547 q 186 686 172 686 l 199 686 m 791 684 l 791 680 l 793 680 l 793 684 l 791 684 m 273 684 q 292 663 289 684 q 275 554 286 554 q 243 547 272 550 q 231 564 231 552 q 245 678 235 678 l 251 682 l 266 682 q 273 684 270 682 m 307 678 l 319 678 q 351 661 351 678 q 344 617 351 617 l 345 610 l 344 600 l 345 591 q 321 554 345 554 l 321 556 q 296 552 319 555 q 292 557 292 557 l 292 559 q 298 574 292 573 q 296 580 296 578 q 307 678 298 678 m 373 676 l 375 676 q 416 661 416 671 l 418 652 q 405 632 418 632 q 390 645 402 632 l 380 645 q 375 587 377 624 l 379 585 l 387 585 q 397 597 387 585 q 410 591 410 595 l 410 576 q 393 556 406 556 l 390 557 q 382 556 387 556 l 380 556 q 379 557 379 556 q 368 554 373 554 l 366 554 q 355 572 355 562 q 373 676 355 676 m 429 671 q 440 665 440 669 l 440 660 l 438 648 q 440 646 438 646 q 436 617 436 623 l 438 600 q 436 584 436 590 q 441 580 441 582 q 451 585 451 583 l 451 591 q 458 667 451 667 l 469 667 q 473 663 473 667 q 464 562 469 562 q 455 554 455 555 q 418 567 418 554 q 416 569 416 567 q 420 618 416 593 l 418 623 q 429 671 418 671 m 484 669 q 530 660 526 663 l 536 665 q 583 654 583 660 l 583 637 q 572 632 581 632 l 566 632 q 560 547 560 557 l 557 545 l 545 545 q 540 552 543 545 q 545 604 542 588 q 544 610 545 606 q 545 626 545 620 l 545 633 q 529 641 545 637 q 512 635 529 637 q 507 554 507 576 q 501 550 502 550 q 486 557 492 551 l 492 613 q 490 621 490 620 q 492 635 492 628 l 492 639 q 477 646 492 642 l 477 661 q 484 669 477 665 m 595 658 q 638 650 638 656 l 638 635 q 634 625 638 631 l 625 626 l 610 626 q 605 617 607 626 q 627 604 605 608 l 629 600 l 629 593 q 620 578 629 583 q 608 582 616 578 q 603 580 605 580 l 603 567 q 629 557 603 563 l 631 554 q 625 530 629 530 q 583 541 583 537 l 583 564 q 585 570 583 568 l 583 574 q 595 658 587 658 m 195 652 l 188 578 q 190 572 190 574 l 192 572 q 205 597 205 572 q 207 602 207 597 q 208 652 208 648 l 195 652 m 255 639 l 256 635 q 251 582 253 618 l 255 580 l 260 580 q 271 650 270 580 l 268 652 q 255 639 255 652 m 653 654 q 690 641 690 651 l 694 632 q 692 612 692 619 l 692 604 q 690 602 692 602 l 692 598 l 692 597 q 681 569 692 576 q 688 519 681 564 l 682 515 q 662 554 662 515 q 659 567 659 566 l 656 567 q 649 524 656 524 l 647 524 q 634 532 637 524 q 644 637 638 597 q 642 643 642 641 q 653 654 642 651 m 319 648 q 316 585 316 624 l 321 582 q 325 587 325 587 l 325 598 q 331 643 331 623 l 331 645 q 327 648 331 648 l 319 648 m 734 646 q 779 639 779 644 l 777 617 l 777 612 q 771 606 777 609 q 749 608 764 608 q 745 597 745 602 l 745 591 q 766 582 745 585 l 768 578 l 768 559 q 758 550 763 550 l 742 552 l 742 534 q 768 523 742 531 l 768 500 q 762 489 768 491 q 720 508 720 501 q 732 645 726 645 q 734 646 734 645 m 798 645 q 829 637 802 639 q 838 613 838 625 l 838 608 q 829 582 838 582 q 816 591 819 582 q 818 597 818 595 q 801 602 810 602 l 801 593 q 799 585 801 589 q 825 569 799 576 q 832 547 832 556 q 816 465 832 465 q 798 475 809 465 q 773 504 783 475 l 773 506 q 781 532 774 532 l 783 532 q 798 513 798 532 l 804 508 l 806 508 q 812 528 812 508 q 786 547 806 539 l 779 565 q 798 645 779 645 m 664 623 l 661 617 l 661 602 q 664 598 661 598 l 667 598 q 673 618 673 598 q 664 623 667 623 m 701 545 q 714 537 711 545 q 707 508 714 508 q 692 521 692 510 q 701 545 695 545 m 399 537 q 475 532 428 534 q 486 534 477 532 q 616 496 565 523 q 633 481 622 496 q 662 469 646 481 q 709 435 689 469 q 757 380 757 385 q 773 345 757 357 q 801 239 801 276 l 803 232 q 755 21 803 131 q 723 -37 753 -1 q 701 -64 701 -45 q 634 -105 691 -76 q 612 -118 619 -105 l 612 -129 q 593 -214 612 -155 q 514 -248 583 -231 q 484 -255 502 -255 l 172 -255 q 121 -227 121 -255 l 121 -218 q 153 -161 121 -176 l 162 -161 q 181 -164 166 -161 q 201 -161 198 -161 q 227 -172 205 -161 q 260 -157 241 -169 l 268 -157 q 296 -166 273 -157 q 316 -161 308 -161 l 321 -161 q 344 -168 342 -168 q 366 -155 360 -155 q 393 -170 372 -155 q 408 -172 401 -172 l 431 -172 q 446 -144 446 -172 q 466 -103 446 -132 l 469 -75 q 462 -66 469 -73 l 458 -68 l 431 -68 q 397 -101 410 -68 q 382 -144 392 -101 q 357 -151 374 -151 l 347 -151 q 314 -148 332 -151 q 299 -151 307 -151 l 296 -151 q 283 -135 292 -151 q 275 -133 279 -133 l 262 -133 q 238 -149 249 -149 q 220 -138 229 -148 l 212 -138 l 201 -146 l 194 -146 q 177 -135 182 -135 q 162 -140 168 -140 l 161 -140 q 142 -131 146 -140 l 142 -107 q 134 -92 142 -100 l 134 -88 q 138 -66 134 -79 q 101 -27 109 -28 q 57 -3 65 -20 q 50 6 55 -3 l 51 16 l 51 21 q 47 36 51 22 l 47 37 q 70 110 53 81 q 77 126 77 119 l 77 139 q 62 186 77 149 l 62 191 q 85 265 62 200 q 99 343 91 280 l 105 347 l 106 343 l 106 341 q 103 323 106 338 q 106 306 106 311 q 105 288 106 304 q 114 280 106 280 q 121 298 121 292 q 119 304 119 302 l 125 308 l 131 308 q 138 300 134 308 l 138 288 l 140 278 q 113 245 113 261 q 92 227 111 245 l 92 224 l 106 224 q 188 204 146 224 l 197 206 l 199 202 l 197 191 q 203 178 203 182 q 194 132 203 162 l 194 130 q 214 104 209 120 q 235 102 218 104 q 242 108 242 105 l 242 110 q 225 138 242 117 q 256 161 225 161 l 256 167 l 245 169 l 245 173 q 253 178 245 177 q 277 163 274 163 l 294 193 q 296 201 296 196 q 264 219 281 205 l 264 221 q 270 227 264 223 q 304 210 277 227 l 307 210 q 334 222 323 222 l 347 221 q 375 222 352 221 q 414 204 401 222 l 427 206 q 455 167 439 206 q 466 154 463 154 l 473 154 q 483 187 478 154 q 522 234 513 234 q 529 250 529 242 l 529 252 l 527 265 q 538 271 538 268 l 538 275 q 505 293 538 279 l 505 295 q 519 313 518 304 q 460 343 519 328 l 458 343 q 440 328 448 328 l 421 330 l 420 326 q 429 306 420 319 l 429 295 q 416 288 426 288 l 414 288 q 294 349 353 308 q 214 422 274 357 q 194 456 194 448 l 194 458 q 253 502 194 479 q 399 537 358 537 m 175 450 l 179 450 l 179 445 q 131 402 155 420 q 116 374 121 387 l 118 371 l 118 363 q 114 359 118 359 l 111 359 q 106 365 106 359 q 125 404 111 404 q 147 430 125 420 q 175 450 163 450 m 620 378 l 616 372 l 625 358 q 623 347 623 348 q 633 317 627 338 q 631 290 631 298 l 642 269 q 638 258 638 263 q 653 235 643 235 q 677 217 663 235 l 679 217 q 697 230 681 217 q 718 249 705 230 q 729 252 724 249 q 703 304 715 290 l 703 308 l 709 317 l 705 324 q 710 326 708 326 q 770 296 770 311 l 766 290 q 773 276 768 276 l 779 276 q 783 280 783 276 l 783 283 q 771 311 776 291 q 751 319 765 317 l 749 323 l 755 330 q 751 336 753 336 l 753 349 l 753 359 q 747 361 751 359 q 705 356 744 358 q 662 374 669 374 q 620 378 635 374 m 578 365 q 555 349 570 349 l 555 347 q 568 339 557 339 l 577 339 q 585 347 580 339 l 585 351 q 578 365 585 364 m 712 341 l 714 341 q 736 330 723 341 l 732 328 q 712 339 712 336 l 712 341 m 121 338 l 123 338 q 127 334 127 337 q 121 326 124 326 q 118 330 118 326 l 118 334 q 121 338 119 338 m 557 313 l 532 313 q 562 286 547 286 q 570 282 562 282 q 590 298 590 292 l 588 308 q 593 321 593 308 q 577 334 588 334 l 575 334 l 557 313 m 585 260 q 562 237 585 257 q 560 222 560 227 q 577 210 566 210 q 581 215 581 214 l 581 232 q 585 235 581 235 q 592 234 587 234 q 595 237 592 237 q 590 252 590 247 l 590 258 q 585 260 588 258 m 775 254 l 775 252 q 786 237 775 237 q 790 249 790 243 q 783 258 786 257 l 779 258 q 775 254 775 257 m 98 171 l 98 145 q 127 115 98 126 l 131 115 q 170 153 170 115 l 170 159 q 142 193 170 182 q 98 171 98 193 m 222 176 q 225 173 225 176 l 222 171 q 218 174 218 171 l 222 176 m 309 132 q 359 82 326 82 q 405 110 397 82 l 405 113 q 375 171 405 165 q 360 173 374 171 q 309 132 309 164 m 125 173 q 147 153 147 168 q 133 138 146 138 q 116 159 121 138 l 116 165 q 125 173 117 169 m 258 138 l 258 134 q 283 82 267 92 q 318 32 283 71 q 304 4 318 17 q 299 -3 304 -3 q 284 -1 289 -1 q 260 -26 260 -7 q 248 -52 256 -30 q 256 -66 252 -66 l 258 -66 q 288 -39 266 -39 q 303 -72 303 -47 l 307 -73 l 311 -73 q 338 -40 327 -52 l 399 -44 q 436 -18 406 -44 q 451 1 446 -18 l 464 16 q 479 6 474 16 q 473 -33 473 -26 q 488 -40 481 -40 l 494 -40 q 497 -37 497 -40 l 497 -35 q 496 -14 497 -27 q 509 34 507 14 l 505 93 q 507 98 507 96 q 492 119 507 103 q 477 146 492 146 q 453 110 464 146 l 455 98 q 435 60 439 60 q 427 50 432 60 l 414 52 l 375 52 q 311 73 345 58 q 273 119 273 104 q 281 136 273 125 q 268 149 281 141 l 264 149 q 258 138 258 146 m 81 141 l 81 123 q 85 119 81 119 q 92 132 92 122 l 92 143 q 88 146 92 146 l 86 146 q 81 141 83 146 m 353 145 q 372 128 372 143 l 372 121 q 355 110 364 110 q 336 130 336 117 q 353 145 336 142 m 483 113 q 497 90 497 113 q 477 69 497 85 l 475 69 q 468 82 468 72 l 468 84 q 483 113 468 101 m 90 64 l 86 64 l 75 84 l 71 84 q 64 71 64 81 q 90 43 64 58 q 92 37 92 39 q 85 34 87 34 q 73 37 79 37 l 68 37 l 66 28 q 79 2 73 3 l 83 2 q 94 16 85 2 q 116 2 100 8 q 140 -9 116 -6 l 142 -12 l 142 -27 q 153 -75 153 -52 l 162 -77 l 164 -77 l 170 -73 l 172 -73 q 192 -77 174 -73 q 199 -70 198 -75 q 190 -11 196 -11 q 164 36 164 -11 l 164 49 q 172 106 164 61 l 168 108 l 166 108 q 106 82 148 108 q 90 64 102 82 m 256 32 q 262 26 256 29 l 266 26 q 270 30 270 26 l 268 43 l 262 43 q 256 32 256 41 m 129 30 l 133 30 q 136 26 136 30 l 136 22 q 133 19 136 19 l 131 19 q 125 24 128 19 l 125 26 q 129 30 126 30 m 351 22 q 368 8 368 11 l 368 4 q 355 -18 356 -18 l 353 -18 q 344 -5 344 -16 l 344 16 q 351 22 344 18 m 268 12 l 268 8 l 270 8 l 270 12 l 268 12 m 675 -24 l 673 -27 l 673 -29 q 679 -35 673 -32 l 686 -35 l 686 -29 q 675 -24 684 -24 m 540 -133 l 524 -131 l 522 -135 q 524 -163 522 -146 q 473 -199 524 -199 l 351 -199 q 260 -205 292 -205 l 153 -205 q 146 -212 150 -205 l 146 -224 q 195 -233 146 -233 l 229 -233 q 262 -220 235 -233 l 303 -220 q 475 -222 369 -220 q 536 -197 480 -222 q 562 -157 562 -187 l 564 -135 q 557 -127 562 -127 q 540 -133 547 -133 z "},"$":{"ha":688,"x_min":0,"x_max":0,"o":""},"%":{"ha":1092,"x_min":0,"x_max":0,"o":""},"&":{"ha":867,"x_min":-14,"x_max":1013,"o":"m 271 968 l 652 968 q 711 934 711 968 l 711 922 q 707 917 711 917 q 749 880 707 880 l 774 880 q 791 863 781 880 l 791 817 q 803 804 791 810 l 837 804 q 870 762 870 804 l 870 687 q 853 649 870 655 l 774 649 q 711 645 753 649 l 711 603 q 724 570 711 572 l 761 570 q 795 494 795 570 l 816 490 l 832 490 q 862 545 862 490 q 874 557 862 551 l 899 557 q 937 587 937 557 l 937 620 q 966 637 944 637 l 983 637 q 1013 620 1006 637 l 1013 574 q 949 553 1013 558 q 899 481 949 481 q 870 469 873 481 l 870 402 q 895 389 874 389 l 928 389 q 945 373 935 389 l 945 339 q 933 314 945 317 l 903 314 q 870 302 873 314 l 870 218 l 866 168 l 916 168 q 945 146 945 168 l 941 109 q 954 100 943 109 l 983 100 q 1013 84 1006 100 l 1013 38 q 975 21 1007 21 q 937 54 937 21 q 924 88 937 88 l 899 88 q 858 121 858 88 l 858 138 l 862 168 l 816 168 q 791 125 791 168 q 724 84 791 84 q 699 4 712 58 l 677 0 l 250 0 q 221 29 221 0 l 221 75 q 208 88 221 81 l 175 88 q 137 163 137 88 l 129 168 l 83 168 q 66 184 76 168 l 66 352 q 141 373 66 368 l 141 435 q 108 448 139 448 l 79 448 q 66 473 66 452 q 83 490 66 479 l 116 490 q 141 524 141 490 q 175 570 141 570 l 208 570 q 221 582 214 570 l 221 616 q 238 645 221 638 l 661 645 l 703 649 l 703 674 q 686 699 703 699 l 656 695 q 631 766 631 695 q 703 787 642 781 l 703 791 q 677 804 699 804 l 250 804 q 225 770 225 804 l 221 733 l 225 716 q 221 674 221 694 l 221 662 q 208 649 221 656 l 83 649 q 66 666 76 649 l 66 774 q 141 808 66 808 q 158 880 141 880 l 175 880 q 221 901 221 880 q 246 959 221 959 q 271 968 260 968 m 50 913 l 96 913 q 108 901 101 913 l 108 842 q 79 825 101 825 l 62 825 q 33 842 39 825 l 33 897 q 50 913 33 903 m 271 402 l 238 402 q 225 389 232 402 l 225 373 q 254 356 232 356 l 283 356 q 300 318 300 351 l 300 310 q 238 277 300 277 q 225 264 235 277 q 288 243 225 243 q 300 214 300 228 l 300 180 q 313 168 300 174 l 610 168 q 631 235 620 168 q 699 252 638 243 q 711 297 711 279 l 711 385 q 690 410 711 410 l 652 406 q 623 444 623 418 l 623 477 q 610 490 623 484 l 368 490 q 300 456 300 490 q 271 402 300 402 m 3 444 l 50 444 q 66 414 66 437 l 66 398 q 50 368 66 375 l 16 368 q -14 398 -14 368 l -14 414 q 3 444 -14 437 m 573 348 q 610 331 610 342 l 610 281 l 598 264 l 577 268 l 548 268 q 535 281 542 268 l 535 318 q 573 348 535 348 z "},"'":{"ha":235,"x_min":0,"x_max":0,"o":""},"(":{"ha":446,"x_min":27,"x_max":414,"o":"m 376 976 q 410 921 410 976 q 406 821 406 824 l 389 808 l 355 808 q 330 795 330 805 l 330 770 q 296 728 330 728 l 262 728 q 250 715 256 728 l 250 589 q 187 568 250 572 l 182 547 l 182 517 q 208 492 182 492 l 237 492 q 250 479 243 492 l 250 261 q 321 240 250 250 q 342 168 332 168 l 376 168 q 414 139 399 168 q 389 0 414 0 l 279 0 q 250 29 250 0 l 250 76 q 237 88 250 82 l 204 88 q 166 164 166 88 l 145 168 l 103 168 q 90 181 97 168 q 124 244 90 244 q 182 261 182 247 l 182 311 q 170 324 182 317 l 124 324 q 94 340 101 324 l 94 791 q 124 808 101 808 l 153 808 q 174 875 172 808 q 246 896 184 880 q 275 976 246 976 l 376 976 m 279 572 l 309 572 q 338 555 332 572 l 338 500 q 326 488 338 498 l 304 492 l 288 492 l 258 488 q 250 500 250 498 l 250 543 q 279 572 250 572 m 44 324 l 77 324 q 94 286 94 318 q 61 244 94 244 l 40 244 q 27 256 34 244 l 27 307 q 44 324 27 313 z "},")":{"ha":458,"x_min":41,"x_max":440,"o":"m 87 972 l 167 972 q 205 930 205 972 q 230 892 205 892 q 285 863 285 892 l 285 825 q 310 812 289 812 l 348 812 q 369 753 366 812 l 360 749 l 339 749 q 285 728 285 749 l 285 682 q 297 669 285 675 l 365 669 l 365 736 q 373 745 366 745 l 424 745 q 440 728 430 745 l 440 686 q 424 669 440 679 l 369 669 q 365 585 365 612 l 365 303 q 369 244 365 280 q 365 227 365 237 l 369 202 q 344 164 358 170 l 310 164 q 285 151 285 161 l 285 118 q 243 84 285 84 l 218 84 q 205 59 205 80 l 205 13 q 192 0 205 7 l 180 0 q 167 4 167 0 l 146 0 l 62 0 q 49 13 56 0 l 49 135 q 104 164 49 164 q 129 206 129 164 l 129 227 q 180 244 129 244 l 201 244 l 205 265 l 205 324 q 184 340 196 340 q 138 336 146 336 q 129 349 129 347 l 129 404 q 146 420 129 410 l 180 420 q 205 433 201 420 l 205 707 q 188 732 205 732 q 138 728 181 732 q 129 741 129 739 l 129 774 q 112 812 129 806 l 79 812 q 41 833 41 812 q 49 871 49 861 l 49 943 q 87 972 49 972 z "},"*":{"ha":694,"x_min":0,"x_max":0,"o":""},"+":{"ha":688,"x_min":0,"x_max":0,"o":""},",":{"ha":357,"x_min":91,"x_max":266,"o":"m 109 168 l 235 168 q 266 115 266 168 l 266 -33 q 209 -81 266 -81 q 183 -95 183 -89 l 183 -125 q 165 -156 183 -149 l 109 -156 q 91 -117 91 -150 l 91 -95 q 109 -77 91 -87 l 161 -77 q 178 -12 178 -77 l 170 -7 l 121 -7 q 91 10 98 -7 l 91 151 q 109 168 91 157 z "},"-":{"ha":732,"x_min":18,"x_max":707,"o":"m 103 589 l 622 589 q 648 567 648 589 q 622 549 643 549 l 581 549 q 570 537 576 549 l 570 489 q 618 478 570 478 l 637 478 q 648 459 646 478 q 622 441 643 441 l 33 441 q 18 456 26 441 l 18 504 q 73 522 18 517 l 77 541 l 77 574 q 103 589 83 589 m 663 549 l 692 549 q 707 534 699 549 l 707 496 q 692 481 707 490 l 663 481 q 648 507 648 488 l 648 522 q 663 549 648 543 z "},".":{"ha":378,"x_min":92,"x_max":290,"o":"m 112 193 l 255 193 q 290 149 290 193 l 290 45 q 250 -4 290 -4 l 127 -4 q 92 16 100 -4 l 92 174 q 112 193 92 181 z "},"/":{"ha":603,"x_min":7,"x_max":589,"o":"m 571 974 q 589 957 578 974 l 589 831 q 571 814 589 825 l 537 814 q 511 802 511 812 q 511 694 511 703 q 487 646 511 650 q 433 642 464 642 l 425 642 l 425 526 q 404 483 414 483 l 373 483 q 338 457 338 483 l 338 353 q 304 319 338 319 l 270 319 q 257 293 257 315 l 257 177 q 239 159 257 170 l 192 159 q 175 121 175 154 l 175 13 q 162 0 175 7 l 20 0 q 7 13 14 0 l 7 142 q 37 159 14 159 l 80 159 q 97 302 93 159 q 115 319 97 309 l 140 319 q 175 345 175 319 q 175 456 175 425 q 227 487 175 487 q 231 491 227 491 l 239 487 q 257 513 257 491 l 257 621 q 274 650 257 644 l 300 650 q 338 681 338 650 l 338 797 q 416 819 338 814 l 416 913 q 442 974 416 974 l 571 974 z "},":":{"ha":906,"x_min":47,"x_max":871,"o":"m 147 1143 q 250 1135 230 1135 q 256 1122 256 1127 q 248 1089 256 1089 q 190 1093 238 1089 q 181 1069 181 1093 q 229 1056 181 1056 l 235 1048 q 233 1046 235 1046 l 235 1043 q 227 1021 235 1029 q 233 1015 230 1021 l 233 1011 q 227 1006 233 1008 q 188 1008 195 1008 q 177 993 177 1008 l 177 985 q 179 976 177 979 q 168 928 176 930 l 161 928 q 127 939 127 928 q 133 1006 131 993 q 131 1023 131 1013 q 136 1034 136 1024 q 133 1037 133 1034 q 138 1112 136 1102 q 136 1128 136 1118 q 147 1143 142 1143 m 299 1132 l 338 1128 q 349 1130 340 1128 q 405 1105 405 1128 q 410 1091 409 1105 q 395 950 410 1051 l 395 935 q 353 911 377 911 q 271 930 271 916 q 260 952 260 940 l 260 954 q 262 961 260 958 q 260 968 260 964 q 264 983 261 983 l 262 987 l 262 995 q 268 1039 262 1017 q 266 1052 266 1046 q 273 1112 269 1062 l 299 1132 m 438 1120 q 490 1107 490 1120 l 505 1056 l 503 1056 q 516 1023 511 1023 q 519 1029 516 1025 q 530 1113 519 1113 l 538 1113 q 573 1104 573 1113 q 557 904 560 934 q 551 899 552 899 q 536 900 538 900 q 516 897 519 897 q 494 919 494 897 q 471 978 476 975 q 460 902 465 907 l 453 902 q 416 911 416 902 q 427 1065 427 1040 q 433 1076 433 1067 q 429 1080 433 1080 q 431 1107 431 1098 l 431 1112 q 438 1120 435 1120 m 592 1113 q 669 1104 638 1113 q 718 1093 718 1104 q 720 1085 718 1092 q 712 1054 720 1065 l 694 1056 q 673 1043 673 1056 q 661 895 664 924 l 654 891 q 625 892 635 892 l 623 892 q 614 909 614 898 q 625 1002 618 978 l 621 1009 l 625 1057 q 606 1067 623 1067 l 592 1067 q 585 1074 589 1067 q 586 1076 585 1076 l 585 1080 l 585 1102 q 592 1113 589 1113 m 758 1102 q 840 1091 780 1095 q 871 1057 861 1091 q 864 1023 871 1023 l 852 1023 q 819 1036 819 1023 q 783 1046 819 1046 l 781 1046 q 775 1023 776 1046 q 790 1009 788 1009 q 859 991 849 1009 q 866 978 864 978 q 851 887 861 887 q 827 874 834 874 q 788 882 795 874 q 729 897 729 882 l 715 911 q 725 952 718 952 q 770 937 770 952 q 795 924 770 931 q 812 930 800 924 l 812 948 l 814 952 q 786 963 805 963 l 786 967 q 740 978 740 967 q 723 1000 732 978 q 732 1082 728 1082 q 758 1102 743 1096 m 325 1080 q 323 1082 325 1082 l 318 1074 q 311 975 318 1059 q 329 963 315 963 q 349 976 349 963 q 360 1071 360 1022 q 349 1084 355 1082 q 325 1080 345 1084 m 134 913 l 136 913 l 142 909 l 146 909 q 181 895 181 909 l 182 886 q 175 876 179 877 l 172 876 l 147 887 l 146 887 q 138 884 141 884 l 138 880 q 172 869 138 873 q 181 854 177 862 l 179 841 l 179 828 q 162 810 172 812 q 113 831 113 812 q 118 846 113 846 l 129 846 q 146 833 137 839 q 155 839 155 836 l 155 845 q 123 856 155 851 q 116 865 116 864 l 116 871 q 134 913 116 913 m 197 906 q 236 904 222 904 q 250 887 250 898 l 250 880 q 235 845 250 845 q 208 828 208 845 q 201 810 205 810 l 190 810 q 184 819 187 810 q 197 906 191 906 m 273 900 l 284 900 q 299 863 293 900 l 298 863 l 311 821 l 312 821 q 314 858 314 848 q 318 861 318 858 l 318 872 q 325 897 319 897 l 334 897 l 342 891 q 334 833 338 833 l 334 826 l 336 808 l 329 800 q 288 811 288 800 q 281 817 288 813 l 279 817 q 256 804 265 817 l 245 804 q 242 808 242 804 l 242 819 q 260 874 251 836 q 273 900 268 897 m 357 895 q 382 867 382 895 q 385 861 385 867 l 388 861 q 397 891 391 891 l 408 891 q 414 878 413 891 q 401 795 414 795 q 382 793 391 793 q 373 821 378 800 l 372 821 q 364 797 366 821 q 362 795 362 797 q 344 802 344 797 q 347 869 347 860 q 351 872 351 869 q 349 889 349 882 l 357 895 m 438 887 l 449 887 q 453 884 453 886 q 449 811 449 823 q 448 810 448 811 q 460 808 453 810 q 479 886 470 886 q 499 880 499 886 l 499 874 q 501 787 499 846 l 497 785 l 484 785 l 484 804 l 477 804 q 471 787 476 787 q 436 789 451 789 l 435 789 q 429 795 432 789 q 435 886 435 871 l 438 887 m 212 874 l 214 865 l 222 865 q 227 871 224 865 l 227 876 q 220 882 227 881 q 212 874 214 880 m 514 882 l 530 882 q 549 861 549 882 l 549 850 q 540 838 549 838 q 547 823 547 829 l 547 813 q 538 783 546 783 l 510 783 q 505 789 508 783 l 510 880 l 514 882 m 578 880 q 597 858 594 880 q 578 778 597 778 l 566 778 q 553 798 553 787 q 575 880 553 880 l 578 880 m 606 876 q 642 858 642 876 l 642 848 q 634 828 642 828 l 634 824 q 640 815 639 815 l 636 776 l 623 776 l 620 778 q 621 806 621 796 l 621 819 l 618 819 l 618 817 q 612 776 618 776 q 597 782 597 778 q 606 876 603 876 m 656 872 q 681 867 681 871 l 681 831 l 682 813 l 681 813 l 682 810 l 682 776 q 679 772 682 772 l 669 772 q 666 776 666 772 l 666 791 l 659 791 q 653 774 659 774 l 644 774 q 640 780 640 774 q 656 872 653 869 m 694 869 l 695 869 q 729 863 729 869 l 729 861 q 718 846 729 846 l 715 846 q 712 770 712 777 l 697 770 q 694 774 694 770 q 699 848 697 835 q 688 852 688 848 q 694 869 690 869 m 758 867 q 773 845 766 867 q 751 765 773 765 l 742 765 q 729 783 729 772 q 747 867 729 867 l 758 867 m 527 863 l 527 843 l 530 843 l 532 856 l 532 859 q 529 863 532 863 l 527 863 m 575 861 q 572 797 572 816 l 575 797 q 578 861 578 839 l 575 861 m 781 863 q 818 843 818 863 l 818 839 q 808 811 818 821 q 814 800 814 810 q 812 763 814 791 l 799 763 q 795 767 795 763 q 798 806 798 800 l 793 808 q 788 763 791 763 l 779 765 l 773 765 l 773 767 q 781 863 777 852 m 825 859 l 834 859 q 838 856 838 859 l 838 826 l 840 826 q 849 858 845 858 l 859 858 l 862 856 q 844 763 844 799 q 840 760 844 760 q 825 763 834 760 l 829 798 q 821 858 827 805 l 825 859 m 621 856 q 620 836 620 840 l 623 836 l 625 845 l 625 856 l 621 856 m 483 852 q 479 823 483 850 l 484 823 l 484 852 l 483 852 m 275 845 l 275 839 l 281 839 l 281 848 l 279 848 q 275 845 275 848 m 751 848 l 745 783 l 747 783 q 751 787 751 783 q 755 848 755 844 l 751 848 m 795 843 l 795 823 q 801 841 800 823 l 798 843 l 795 843 m 664 838 q 661 810 664 833 l 664 808 l 666 808 l 666 838 l 664 838 m 525 826 l 525 821 l 524 802 l 525 802 q 529 806 529 802 l 529 826 l 525 826 m 119 797 q 149 778 149 797 q 155 755 155 758 l 159 755 q 177 793 159 760 l 186 791 l 201 791 q 205 787 205 790 q 195 706 202 706 l 182 706 q 172 721 172 706 l 172 728 l 161 709 l 157 707 q 134 732 138 707 l 133 732 q 129 711 133 711 l 111 711 l 106 713 q 113 793 113 772 q 119 797 117 797 m 220 789 q 250 776 250 789 l 256 749 l 260 749 q 279 783 275 783 l 303 783 q 307 780 307 783 q 298 699 303 699 l 283 699 q 271 702 277 699 l 273 711 l 273 721 l 260 701 l 258 701 q 238 721 238 701 q 236 724 236 721 l 235 724 q 231 702 235 705 q 208 706 214 705 q 214 785 214 770 l 220 789 m 321 782 q 349 767 349 782 q 355 760 352 760 q 370 778 365 778 q 393 772 393 778 l 370 739 q 388 693 370 731 q 387 691 387 693 l 368 693 l 360 693 q 349 715 357 693 l 347 715 q 336 694 342 708 q 309 701 309 696 q 332 741 332 734 q 316 780 316 776 q 321 782 319 782 m 446 772 q 473 758 473 772 l 483 732 q 505 767 503 767 l 529 767 l 532 765 q 527 684 527 703 l 524 682 l 509 682 q 497 687 499 682 l 497 691 l 499 704 l 496 704 q 484 684 490 684 q 462 707 462 684 q 456 687 458 707 l 438 687 q 435 691 435 687 q 446 772 435 772 m 545 765 q 575 752 575 765 q 586 724 583 724 q 606 760 599 753 l 629 760 l 634 755 q 629 676 629 702 l 625 674 l 605 674 q 599 680 602 674 l 599 684 l 601 696 l 597 696 q 585 676 593 676 q 564 701 564 676 q 558 680 560 701 q 557 678 557 680 q 534 684 538 680 q 545 765 540 765 m 646 758 q 677 741 677 758 q 679 735 679 737 l 682 735 q 697 754 690 754 q 720 749 720 753 l 695 713 l 714 669 l 710 667 q 681 680 681 667 l 677 691 l 675 691 q 661 671 663 671 q 636 678 636 671 q 659 715 659 709 l 642 755 l 646 758 m 734 750 l 755 750 l 760 747 q 755 667 755 703 l 751 665 l 734 665 q 723 669 729 665 q 729 689 724 689 l 727 699 q 729 747 729 742 l 734 750 m 771 749 q 801 735 801 749 q 806 726 802 726 q 821 745 817 745 q 846 739 846 745 q 821 702 821 707 q 840 660 821 699 q 838 658 838 660 q 806 667 806 658 q 799 682 806 677 q 786 661 789 662 q 766 663 774 663 l 762 663 l 762 665 q 784 704 762 671 l 784 707 q 768 747 768 743 l 771 749 m 401 735 l 410 734 l 425 734 l 429 735 l 431 732 q 418 715 420 715 l 416 715 l 397 717 q 395 715 397 715 l 393 719 q 401 735 401 734 m 340 717 l 340 713 l 342 713 l 342 717 l 340 717 m 666 693 l 666 689 l 667 689 l 667 693 l 666 693 m 111 691 l 118 691 q 123 682 122 691 q 121 632 121 648 l 121 630 l 123 630 q 133 646 128 646 q 144 630 144 646 l 146 630 q 155 687 152 685 q 161 689 157 687 q 172 684 172 687 q 151 530 164 605 l 142 528 l 138 528 q 131 569 131 528 l 131 572 l 127 572 q 105 519 120 519 l 101 519 q 98 523 98 519 l 98 545 q 99 565 98 553 q 98 570 98 569 l 103 630 q 101 632 103 632 q 103 660 103 650 l 103 678 q 111 691 103 688 m 199 686 q 201 684 201 686 l 205 686 l 220 686 q 231 665 225 686 q 207 541 224 541 l 177 536 q 168 550 168 547 q 186 686 172 686 l 199 686 m 791 684 l 791 680 l 793 680 l 793 684 l 791 684 m 273 684 q 292 663 289 684 q 275 554 286 554 q 243 547 272 550 q 231 564 231 552 q 245 678 235 678 l 251 682 l 266 682 q 273 684 270 682 m 307 678 l 319 678 q 351 661 351 678 q 344 617 351 617 l 345 610 l 344 600 l 345 591 q 321 554 345 554 l 321 556 q 296 552 319 555 q 292 557 292 557 l 292 559 q 298 574 292 573 q 296 580 296 578 q 307 678 298 678 m 373 676 l 375 676 q 416 661 416 671 l 418 652 q 405 632 418 632 q 390 645 402 632 l 380 645 q 375 587 377 624 l 379 585 l 387 585 q 397 597 387 585 q 410 591 410 595 l 410 576 q 393 556 406 556 l 390 557 q 382 556 387 556 l 380 556 q 379 557 379 556 q 368 554 373 554 l 366 554 q 355 572 355 562 q 373 676 355 676 m 429 671 q 440 665 440 669 l 440 660 l 438 648 q 440 646 438 646 q 436 617 436 623 l 438 600 q 436 584 436 590 q 441 580 441 582 q 451 585 451 583 l 451 591 q 458 667 451 667 l 469 667 q 473 663 473 667 q 464 562 469 562 q 455 554 455 555 q 418 567 418 554 q 416 569 416 567 q 420 618 416 593 l 418 623 q 429 671 418 671 m 484 669 q 530 660 526 663 l 536 665 q 583 654 583 660 l 583 637 q 572 632 581 632 l 566 632 q 560 547 560 557 l 557 545 l 545 545 q 540 552 543 545 q 545 604 542 588 q 544 610 545 606 q 545 626 545 620 l 545 633 q 529 641 545 637 q 512 635 529 637 q 507 554 507 576 q 501 550 502 550 q 486 557 492 551 l 492 613 q 490 621 490 620 q 492 635 492 628 l 492 639 q 477 646 492 642 l 477 661 q 484 669 477 665 m 595 658 q 638 650 638 656 l 638 635 q 634 625 638 631 l 625 626 l 610 626 q 605 617 607 626 q 627 604 605 608 l 629 600 l 629 593 q 620 578 629 583 q 608 582 616 578 q 603 580 605 580 l 603 567 q 629 557 603 563 l 631 554 q 625 530 629 530 q 583 541 583 537 l 583 564 q 585 570 583 568 l 583 574 q 595 658 587 658 m 195 652 l 188 578 q 190 572 190 574 l 192 572 q 205 597 205 572 q 207 602 207 597 q 208 652 208 648 l 195 652 m 255 639 l 256 635 q 251 582 253 618 l 255 580 l 260 580 q 271 650 270 580 l 268 652 q 255 639 255 652 m 653 654 q 690 641 690 651 l 694 632 q 692 612 692 619 l 692 604 q 690 602 692 602 l 692 598 l 692 597 q 681 569 692 576 q 688 519 681 564 l 682 515 q 662 554 662 515 q 659 567 659 566 l 656 567 q 649 524 656 524 l 647 524 q 634 532 637 524 q 644 637 638 597 q 642 643 642 641 q 653 654 642 651 m 319 648 q 316 585 316 624 l 321 582 q 325 587 325 587 l 325 598 q 331 643 331 623 l 331 645 q 327 648 331 648 l 319 648 m 734 646 q 779 639 779 644 l 777 617 l 777 612 q 771 606 777 609 q 749 608 764 608 q 745 597 745 602 l 745 591 q 766 582 745 585 l 768 578 l 768 559 q 758 550 763 550 l 742 552 l 742 534 q 768 523 742 531 l 768 500 q 762 489 768 491 q 720 508 720 501 q 732 645 726 645 q 734 646 734 645 m 798 645 q 829 637 802 639 q 838 613 838 625 l 838 608 q 829 582 838 582 q 816 591 819 582 q 818 597 818 595 q 801 602 810 602 l 801 593 q 799 585 801 589 q 825 569 799 576 q 832 547 832 556 q 816 465 832 465 q 798 475 809 465 q 773 504 783 475 l 773 506 q 781 532 774 532 l 783 532 q 798 513 798 532 l 804 508 l 806 508 q 812 528 812 508 q 786 547 806 539 l 779 565 q 798 645 779 645 m 664 623 l 661 617 l 661 602 q 664 598 661 598 l 667 598 q 673 618 673 598 q 664 623 667 623 m 701 545 q 714 537 711 545 q 707 508 714 508 q 692 521 692 510 q 701 545 695 545 m 399 537 q 475 532 428 534 q 486 534 477 532 q 616 496 565 523 q 633 481 622 496 q 662 469 646 481 q 709 435 689 469 q 757 380 757 385 q 773 345 757 357 q 801 239 801 276 l 803 232 q 755 21 803 131 q 723 -37 753 -1 q 701 -64 701 -45 q 634 -105 691 -76 q 612 -118 619 -105 l 612 -129 q 593 -214 612 -155 q 514 -248 583 -231 q 484 -255 502 -255 l 172 -255 q 121 -227 121 -255 l 121 -218 q 153 -161 121 -176 l 162 -161 q 181 -164 166 -161 q 201 -161 198 -161 q 227 -172 205 -161 q 260 -157 241 -169 l 268 -157 q 296 -166 273 -157 q 316 -161 308 -161 l 321 -161 q 344 -168 342 -168 q 366 -155 360 -155 q 393 -170 372 -155 q 408 -172 401 -172 l 431 -172 q 446 -144 446 -172 q 466 -103 446 -132 l 469 -75 q 462 -66 469 -73 l 458 -68 l 431 -68 q 397 -101 410 -68 q 382 -144 392 -101 q 357 -151 374 -151 l 347 -151 q 314 -148 332 -151 q 299 -151 307 -151 l 296 -151 q 283 -135 292 -151 q 275 -133 279 -133 l 262 -133 q 238 -149 249 -149 q 220 -138 229 -148 l 212 -138 l 201 -146 l 194 -146 q 177 -135 182 -135 q 162 -140 168 -140 l 161 -140 q 142 -131 146 -140 l 142 -107 q 134 -92 142 -100 l 134 -88 q 138 -66 134 -79 q 101 -27 109 -28 q 57 -3 65 -20 q 50 6 55 -3 l 51 16 l 51 21 q 47 36 51 22 l 47 37 q 70 110 53 81 q 77 126 77 119 l 77 139 q 62 186 77 149 l 62 191 q 85 265 62 200 q 99 343 91 280 l 105 347 l 106 343 l 106 341 q 103 323 106 338 q 106 306 106 311 q 105 288 106 304 q 114 280 106 280 q 121 298 121 292 q 119 304 119 302 l 125 308 l 131 308 q 138 300 134 308 l 138 288 l 140 278 q 113 245 113 261 q 92 227 111 245 l 92 224 l 106 224 q 188 204 146 224 l 197 206 l 199 202 l 197 191 q 203 178 203 182 q 194 132 203 162 l 194 130 q 214 104 209 120 q 235 102 218 104 q 242 108 242 105 l 242 110 q 225 138 242 117 q 256 161 225 161 l 256 167 l 245 169 l 245 173 q 253 178 245 177 q 277 163 274 163 l 294 193 q 296 201 296 196 q 264 219 281 205 l 264 221 q 270 227 264 223 q 304 210 277 227 l 307 210 q 334 222 323 222 l 347 221 q 375 222 352 221 q 414 204 401 222 l 427 206 q 455 167 439 206 q 466 154 463 154 l 473 154 q 483 187 478 154 q 522 234 513 234 q 529 250 529 242 l 529 252 l 527 265 q 538 271 538 268 l 538 275 q 505 293 538 279 l 505 295 q 519 313 518 304 q 460 343 519 328 l 458 343 q 440 328 448 328 l 421 330 l 420 326 q 429 306 420 319 l 429 295 q 416 288 426 288 l 414 288 q 294 349 353 308 q 214 422 274 357 q 194 456 194 448 l 194 458 q 253 502 194 479 q 399 537 358 537 m 175 450 l 179 450 l 179 445 q 131 402 155 420 q 116 374 121 387 l 118 371 l 118 363 q 114 359 118 359 l 111 359 q 106 365 106 359 q 125 404 111 404 q 147 430 125 420 q 175 450 163 450 m 620 378 l 616 372 l 625 358 q 623 347 623 348 q 633 317 627 338 q 631 290 631 298 l 642 269 q 638 258 638 263 q 653 235 643 235 q 677 217 663 235 l 679 217 q 697 230 681 217 q 718 249 705 230 q 729 252 724 249 q 703 304 715 290 l 703 308 l 709 317 l 705 324 q 710 326 708 326 q 770 296 770 311 l 766 290 q 773 276 768 276 l 779 276 q 783 280 783 276 l 783 283 q 771 311 776 291 q 751 319 765 317 l 749 323 l 755 330 q 751 336 753 336 l 753 349 l 753 359 q 747 361 751 359 q 705 356 744 358 q 662 374 669 374 q 620 378 635 374 m 578 365 q 555 349 570 349 l 555 347 q 568 339 557 339 l 577 339 q 585 347 580 339 l 585 351 q 578 365 585 364 m 712 341 l 714 341 q 736 330 723 341 l 732 328 q 712 339 712 336 l 712 341 m 121 338 l 123 338 q 127 334 127 337 q 121 326 124 326 q 118 330 118 326 l 118 334 q 121 338 119 338 m 557 313 l 532 313 q 562 286 547 286 q 570 282 562 282 q 590 298 590 292 l 588 308 q 593 321 593 308 q 577 334 588 334 l 575 334 l 557 313 m 585 260 q 562 237 585 257 q 560 222 560 227 q 577 210 566 210 q 581 215 581 214 l 581 232 q 585 235 581 235 q 592 234 587 234 q 595 237 592 237 q 590 252 590 247 l 590 258 q 585 260 588 258 m 775 254 l 775 252 q 786 237 775 237 q 790 249 790 243 q 783 258 786 257 l 779 258 q 775 254 775 257 m 98 171 l 98 145 q 127 115 98 126 l 131 115 q 170 153 170 115 l 170 159 q 142 193 170 182 q 98 171 98 193 m 222 176 q 225 173 225 176 l 222 171 q 218 174 218 171 l 222 176 m 309 132 q 359 82 326 82 q 405 110 397 82 l 405 113 q 375 171 405 165 q 360 173 374 171 q 309 132 309 164 m 125 173 q 147 153 147 168 q 133 138 146 138 q 116 159 121 138 l 116 165 q 125 173 117 169 m 258 138 l 258 134 q 283 82 267 92 q 318 32 283 71 q 304 4 318 17 q 299 -3 304 -3 q 284 -1 289 -1 q 260 -26 260 -7 q 248 -52 256 -30 q 256 -66 252 -66 l 258 -66 q 288 -39 266 -39 q 303 -72 303 -47 l 307 -73 l 311 -73 q 338 -40 327 -52 l 399 -44 q 436 -18 406 -44 q 451 1 446 -18 l 464 16 q 479 6 474 16 q 473 -33 473 -26 q 488 -40 481 -40 l 494 -40 q 497 -37 497 -40 l 497 -35 q 496 -14 497 -27 q 509 34 507 14 l 505 93 q 507 98 507 96 q 492 119 507 103 q 477 146 492 146 q 453 110 464 146 l 455 98 q 435 60 439 60 q 427 50 432 60 l 414 52 l 375 52 q 311 73 345 58 q 273 119 273 104 q 281 136 273 125 q 268 149 281 141 l 264 149 q 258 138 258 146 m 81 141 l 81 123 q 85 119 81 119 q 92 132 92 122 l 92 143 q 88 146 92 146 l 86 146 q 81 141 83 146 m 353 145 q 372 128 372 143 l 372 121 q 355 110 364 110 q 336 130 336 117 q 353 145 336 142 m 483 113 q 497 90 497 113 q 477 69 497 85 l 475 69 q 468 82 468 72 l 468 84 q 483 113 468 101 m 90 64 l 86 64 l 75 84 l 71 84 q 64 71 64 81 q 90 43 64 58 q 92 37 92 39 q 85 34 87 34 q 73 37 79 37 l 68 37 l 66 28 q 79 2 73 3 l 83 2 q 94 16 85 2 q 116 2 100 8 q 140 -9 116 -6 l 142 -12 l 142 -27 q 153 -75 153 -52 l 162 -77 l 164 -77 l 170 -73 l 172 -73 q 192 -77 174 -73 q 199 -70 198 -75 q 190 -11 196 -11 q 164 36 164 -11 l 164 49 q 172 106 164 61 l 168 108 l 166 108 q 106 82 148 108 q 90 64 102 82 m 256 32 q 262 26 256 29 l 266 26 q 270 30 270 26 l 268 43 l 262 43 q 256 32 256 41 m 129 30 l 133 30 q 136 26 136 30 l 136 22 q 133 19 136 19 l 131 19 q 125 24 128 19 l 125 26 q 129 30 126 30 m 351 22 q 368 8 368 11 l 368 4 q 355 -18 356 -18 l 353 -18 q 344 -5 344 -16 l 344 16 q 351 22 344 18 m 268 12 l 268 8 l 270 8 l 270 12 l 268 12 m 675 -24 l 673 -27 l 673 -29 q 679 -35 673 -32 l 686 -35 l 686 -29 q 675 -24 684 -24 m 540 -133 l 524 -131 l 522 -135 q 524 -163 522 -146 q 473 -199 524 -199 l 351 -199 q 260 -205 292 -205 l 153 -205 q 146 -212 150 -205 l 146 -224 q 195 -233 146 -233 l 229 -233 q 262 -220 235 -233 l 303 -220 q 475 -222 369 -220 q 536 -197 480 -222 q 562 -157 562 -187 l 564 -135 q 557 -127 562 -127 q 540 -133 547 -133 z "},";":{"ha":378,"x_min":0,"x_max":0,"o":""},"<":{"ha":688,"x_min":0,"x_max":0,"o":""},"=":{"ha":688,"x_min":0,"x_max":0,"o":""},">":{"ha":688,"x_min":0,"x_max":0,"o":""},"?":{"ha":842,"x_min":-7,"x_max":881,"o":"m 262 972 l 675 972 q 713 930 713 972 q 755 892 713 892 q 797 867 797 892 q 826 812 797 812 l 864 812 q 881 783 881 805 l 881 677 q 818 644 881 644 q 801 618 801 644 l 801 585 q 784 568 801 578 l 751 568 q 717 509 721 568 q 683 488 717 488 l 561 488 l 557 467 q 582 454 561 454 l 616 454 q 633 437 623 454 l 633 395 q 616 378 633 389 l 591 378 q 557 353 557 378 q 524 319 554 319 l 431 319 q 397 361 397 319 l 397 471 q 414 509 397 503 l 507 509 q 557 538 557 509 l 557 555 q 545 589 557 587 l 431 589 q 397 602 399 589 l 397 606 q 414 644 397 638 l 578 644 q 633 665 633 644 q 658 724 633 724 q 713 745 713 724 l 713 779 q 688 804 713 804 l 334 804 q 309 762 309 804 q 279 724 309 724 l 241 724 q 224 652 231 724 l 216 648 l 90 648 q 73 669 81 650 q 90 690 81 688 l 136 690 q 153 720 153 696 l 153 741 q 136 770 153 763 l 90 770 q 73 791 81 772 q 90 812 81 810 l 115 812 q 153 842 153 812 l 153 875 q 170 892 153 882 l 203 892 q 229 905 225 892 l 229 930 q 262 972 229 972 m 27 770 l 43 770 q 73 741 73 770 l 73 720 q 43 690 73 690 l 27 690 q -7 732 -7 690 q 27 770 -5 770 m 262 602 q 283 597 277 602 q 321 602 307 602 l 368 602 l 397 597 l 397 526 q 385 513 397 520 l 245 513 q 229 551 229 519 l 229 559 q 262 602 229 602 m 410 164 l 536 164 q 557 122 557 155 l 557 38 q 540 0 557 5 q 486 8 503 8 l 414 8 q 397 46 397 14 l 397 151 q 410 164 397 157 z "},"@":{"ha":1848,"x_min":26,"x_max":1799,"o":"m 104 903 l 267 903 q 275 884 271 903 q 295 878 295 884 l 295 861 l 318 861 q 325 854 321 861 l 325 846 q 314 839 325 839 l 314 820 q 310 816 314 816 l 295 816 l 295 807 q 271 792 295 792 q 250 770 271 770 q 233 747 250 747 q 224 730 229 747 l 149 730 q 142 724 146 730 l 142 648 q 138 644 142 644 l 104 644 q 98 650 101 644 l 98 736 q 104 743 98 739 l 109 743 q 111 741 111 743 l 115 743 l 138 743 l 140 753 l 138 764 l 104 764 q 98 770 101 764 l 98 865 l 79 880 l 79 886 q 104 903 79 890 m 382 903 l 503 903 q 511 882 509 903 q 530 869 530 882 q 550 859 530 859 l 550 850 l 562 850 q 567 846 567 849 l 567 828 l 580 828 q 584 833 584 828 l 584 846 l 567 857 q 586 863 567 860 q 595 884 586 882 l 608 884 q 614 903 610 903 l 734 903 q 743 884 739 903 q 762 871 762 884 q 766 863 762 863 l 770 863 q 777 878 770 876 l 787 878 q 794 865 794 876 q 785 857 791 857 l 785 824 q 779 818 785 821 l 745 818 q 738 824 741 818 l 738 837 l 723 837 q 717 859 719 837 l 713 861 l 627 861 q 625 863 625 861 q 610 857 610 860 l 610 841 q 633 835 610 837 l 633 826 l 631 822 l 637 818 l 693 818 q 697 813 697 817 l 697 798 q 719 781 719 798 q 738 772 719 774 q 758 751 738 751 q 764 747 764 751 l 764 730 l 781 730 q 785 726 785 729 l 785 694 q 764 685 785 688 q 755 663 764 663 q 736 646 736 663 q 734 644 736 644 l 614 644 q 606 665 611 644 q 586 683 586 665 l 586 687 l 571 687 q 567 691 567 687 l 567 694 q 578 704 567 695 l 578 715 q 569 726 569 724 q 582 730 576 730 l 606 730 q 612 709 610 730 q 633 700 633 709 q 637 687 633 687 l 713 687 q 721 709 718 687 q 738 713 738 709 l 738 726 q 734 730 738 730 l 702 730 q 695 749 695 730 l 680 749 q 672 775 675 749 l 614 775 q 608 794 610 775 q 588 807 588 794 q 575 818 588 818 q 565 828 567 818 l 550 828 l 550 792 l 565 792 q 571 785 568 792 l 571 777 q 565 770 571 774 l 550 770 l 550 689 q 558 685 558 689 l 558 672 q 554 668 558 668 l 541 668 q 537 672 537 668 l 537 687 l 534 687 q 528 668 531 687 q 509 653 509 665 q 503 644 509 644 l 382 644 q 374 661 379 644 q 353 681 353 661 l 353 687 l 338 687 q 334 691 334 687 l 334 770 q 338 775 334 775 l 353 775 l 353 796 l 338 796 q 334 800 334 796 l 334 857 q 338 861 334 861 l 353 861 l 353 873 q 361 882 353 877 l 374 882 q 382 903 378 903 m 813 903 l 1139 903 q 1152 899 1145 903 q 1156 903 1152 903 l 1278 903 q 1286 880 1286 901 l 1284 871 l 1289 873 l 1299 873 q 1303 869 1303 873 l 1303 857 q 1299 852 1303 852 l 1293 852 q 1280 861 1280 852 l 1244 861 q 1239 857 1239 860 l 1239 691 q 1244 687 1240 687 l 1280 687 q 1284 683 1284 686 l 1284 648 q 1280 644 1284 644 l 1156 644 q 1149 650 1153 644 l 1149 681 q 1156 687 1149 684 l 1192 687 l 1192 691 q 1173 700 1192 694 l 1173 704 q 1179 717 1175 717 l 1194 717 l 1196 739 l 1196 796 q 1216 803 1196 800 l 1216 822 q 1196 839 1196 822 q 1188 861 1195 861 l 1156 861 l 1149 865 l 1130 857 l 1128 857 q 1104 861 1107 861 l 1063 861 l 1061 846 l 1061 648 q 1057 644 1061 644 l 1023 644 q 1017 650 1020 644 l 1017 702 q 1040 709 1017 706 l 1040 724 q 1036 728 1040 728 l 1019 728 l 1019 713 q 1013 706 1019 709 l 1004 706 l 998 711 q 1004 728 1000 728 l 1017 728 l 1017 816 q 998 824 1017 821 l 995 828 l 995 837 q 1017 846 995 843 l 1017 861 l 901 861 q 897 857 897 860 l 897 691 q 901 687 897 687 l 937 687 q 941 683 941 686 l 941 648 q 937 644 941 644 l 813 644 q 806 650 810 644 l 806 681 q 813 687 806 684 l 850 687 l 850 691 q 830 700 850 694 l 830 704 q 837 717 831 717 l 852 717 l 854 739 l 854 796 q 873 803 854 800 l 873 822 q 854 839 854 822 q 845 861 852 861 l 813 861 q 806 867 810 861 l 806 897 q 813 903 806 900 m 1308 903 l 1342 903 q 1346 899 1346 903 l 1346 762 l 1349 751 l 1364 751 q 1372 730 1372 749 l 1387 730 q 1392 726 1392 729 l 1392 691 q 1396 687 1392 687 l 1432 687 l 1434 698 l 1434 726 q 1453 734 1434 728 q 1466 751 1453 751 q 1479 777 1476 751 q 1496 779 1495 779 l 1496 794 q 1477 800 1496 798 l 1475 805 l 1475 826 l 1460 826 q 1453 833 1457 826 l 1453 835 q 1460 848 1455 848 l 1475 848 l 1475 897 q 1481 903 1475 900 l 1518 903 q 1522 899 1522 903 l 1522 777 l 1527 779 l 1560 779 q 1567 772 1564 779 l 1567 764 q 1560 758 1567 761 l 1533 758 l 1522 760 l 1522 739 q 1501 726 1520 732 q 1488 709 1501 709 l 1477 706 l 1477 696 q 1455 685 1477 690 q 1449 663 1455 663 l 1436 663 q 1428 644 1433 644 l 1398 644 q 1390 655 1390 648 l 1390 661 q 1368 670 1368 667 l 1368 685 q 1346 698 1346 685 q 1325 711 1346 711 q 1323 730 1325 722 l 1308 730 q 1303 734 1303 730 l 1303 848 q 1323 854 1303 852 l 1325 859 l 1325 863 l 1323 873 l 1308 873 q 1303 878 1303 873 l 1303 899 q 1308 903 1304 903 m 1571 903 l 1777 903 q 1781 899 1781 903 l 1781 865 q 1768 859 1779 859 l 1614 859 q 1608 852 1611 859 l 1608 800 q 1614 794 1608 798 l 1732 794 q 1738 781 1738 792 l 1738 768 q 1730 749 1738 752 l 1610 749 l 1608 739 l 1608 696 q 1614 689 1608 692 l 1777 689 q 1781 685 1781 688 l 1781 648 q 1777 644 1781 644 l 1571 644 q 1567 648 1567 644 l 1567 753 q 1571 758 1568 758 l 1597 758 l 1608 760 l 1608 775 q 1603 779 1608 779 l 1571 779 q 1567 783 1567 779 l 1567 859 q 1571 863 1568 863 l 1586 863 l 1586 880 q 1567 886 1586 884 l 1567 899 q 1571 903 1568 903 m 941 892 l 944 888 l 944 884 l 941 869 q 954 882 954 869 q 941 892 954 892 m 1550 884 l 1556 884 q 1563 878 1559 884 l 1563 869 q 1556 863 1563 866 l 1544 863 q 1537 869 1540 863 l 1537 878 q 1550 884 1539 884 m 142 854 l 142 828 q 138 824 142 824 l 123 824 l 123 807 q 142 800 123 803 l 142 779 q 149 772 142 776 l 199 772 q 209 792 202 772 q 227 805 227 792 q 233 816 227 816 l 264 816 q 275 831 273 831 q 293 835 293 831 l 293 839 q 277 852 285 839 q 267 861 267 852 l 149 861 q 142 854 146 861 m 378 831 l 378 713 q 389 709 382 713 q 397 711 393 711 q 404 687 399 687 l 479 687 q 486 709 484 687 q 507 713 507 709 l 507 747 q 515 764 507 755 l 515 777 q 507 796 507 786 l 490 796 q 484 803 487 796 l 484 813 q 507 820 484 818 l 507 833 q 484 839 507 837 q 479 861 484 861 l 423 861 q 399 850 399 861 q 380 835 399 838 l 378 831 m 254 854 l 264 854 q 269 850 269 853 l 269 835 q 264 831 269 831 l 254 831 q 248 837 251 831 l 248 848 q 254 854 248 850 m 1668 854 l 1681 854 q 1687 841 1687 852 l 1687 839 q 1681 833 1687 836 l 1668 833 q 1662 839 1665 833 l 1662 848 q 1668 854 1662 850 m 837 826 l 848 826 q 854 820 850 826 l 854 807 q 848 800 854 804 l 837 800 q 830 813 830 803 q 837 826 831 826 m 1179 826 l 1190 826 q 1196 820 1193 826 l 1196 807 q 1190 800 1196 804 l 1179 800 q 1173 813 1173 803 q 1179 826 1175 826 m 147 824 l 158 824 q 164 818 161 824 l 164 805 q 160 800 164 800 l 145 800 q 140 805 140 800 l 140 809 q 142 811 140 811 l 140 816 l 140 818 q 147 824 140 821 m 1252 820 l 1286 820 q 1293 813 1289 820 q 1284 798 1290 798 l 1250 798 q 1246 803 1246 798 l 1246 813 q 1252 820 1246 817 m 1460 798 l 1471 798 q 1477 792 1474 798 l 1477 781 q 1473 777 1477 777 l 1466 777 q 1453 783 1455 777 l 1453 792 q 1460 798 1453 795 m 316 796 l 329 796 q 334 792 334 795 l 334 779 q 329 775 334 775 l 316 775 q 312 779 312 775 l 312 792 q 316 796 313 796 m 970 785 l 987 785 q 1000 779 1000 784 l 1000 768 q 995 764 1000 764 l 963 764 q 957 770 960 764 l 957 779 q 970 785 959 785 m 500 779 l 505 779 q 509 775 509 779 l 509 764 q 505 760 509 760 l 500 760 q 496 764 496 760 l 496 775 q 500 779 497 779 m 1428 770 l 1440 770 q 1447 764 1444 770 l 1447 753 q 1440 747 1447 750 l 1430 747 q 1423 753 1427 747 l 1423 766 q 1428 770 1424 770 m 61 764 l 94 764 q 98 760 98 764 l 98 747 q 94 743 98 743 l 61 743 l 61 764 m 779 764 l 813 764 q 817 760 817 764 l 817 743 l 787 743 l 777 741 l 774 745 l 774 760 q 779 764 775 764 m 1122 764 l 1156 764 q 1160 760 1160 764 l 1160 743 l 1130 743 l 1120 741 l 1117 745 l 1117 760 q 1122 764 1118 764 m 55 760 l 59 760 l 59 747 l 55 747 l 55 760 m 453 753 l 488 753 q 494 747 490 753 q 486 732 494 735 l 453 732 q 447 739 450 732 l 447 747 q 453 753 447 750 m 308 739 l 312 732 l 312 719 q 308 715 312 715 l 295 715 q 290 719 290 715 l 290 732 q 308 739 290 736 m 1301 724 l 1310 724 q 1316 717 1313 724 l 1316 709 q 1310 702 1316 705 l 1299 702 q 1295 706 1295 702 l 1295 717 q 1301 724 1295 720 m 1533 724 l 1544 724 q 1550 717 1546 724 l 1550 706 q 1546 702 1550 702 l 1531 702 q 1527 706 1527 702 l 1527 717 q 1533 724 1527 720 m 562 722 l 567 715 l 567 704 q 562 700 567 700 l 558 700 q 554 704 554 700 l 554 715 q 562 722 554 718 m 72 711 l 83 711 q 90 704 86 711 l 90 696 q 83 689 90 692 l 74 689 q 68 696 71 689 l 68 706 q 72 711 68 711 m 987 689 l 998 689 q 1004 683 1000 689 l 1004 674 q 998 668 1004 671 l 987 668 q 982 672 982 668 l 982 685 q 987 689 983 689 m 1509 674 l 1539 674 q 1546 668 1542 674 l 1546 657 q 1541 653 1546 653 l 1509 653 q 1503 659 1506 653 l 1503 668 q 1509 674 1503 671 m 142 611 l 294 611 l 313 597 q 329 581 313 581 q 334 559 329 559 l 337 559 l 337 603 q 345 611 337 607 l 389 611 q 394 606 394 610 l 394 535 q 424 505 424 535 q 448 494 424 503 l 448 454 q 454 448 449 448 l 497 448 q 505 456 501 448 l 505 494 q 530 503 505 499 q 538 530 530 530 l 557 530 l 557 559 q 565 568 557 564 l 587 568 l 587 589 q 559 597 587 595 l 559 603 q 568 611 559 607 l 611 611 q 616 606 616 610 l 616 543 q 625 538 625 543 l 625 516 l 641 516 q 646 522 646 516 l 646 538 l 625 551 q 649 559 625 556 q 660 587 649 584 l 676 587 q 684 611 679 611 l 836 611 q 847 587 842 611 l 858 587 l 869 597 l 885 597 q 890 592 890 597 l 890 573 q 885 568 890 568 l 871 568 l 871 565 q 877 559 872 559 l 890 559 q 915 570 890 570 l 918 584 q 893 600 918 600 l 893 606 q 899 611 894 611 l 1156 611 q 1164 603 1160 611 l 1164 587 l 1181 587 q 1189 578 1185 587 l 1189 568 q 1124 557 1189 557 l 1056 557 l 1053 538 l 1053 288 q 1048 283 1053 283 l 1004 283 q 996 291 1000 283 l 996 356 q 1026 364 996 361 l 1026 383 q 1021 389 1026 389 l 999 389 l 999 370 q 991 361 999 366 l 980 361 l 972 367 q 980 389 975 389 l 996 389 l 996 500 q 972 511 996 507 l 969 516 l 969 527 q 996 538 969 534 l 996 557 l 899 557 l 901 551 l 901 511 q 893 503 901 507 l 850 503 q 842 511 846 503 l 842 527 l 823 527 q 814 554 817 527 l 809 557 l 701 557 q 698 559 698 557 q 679 551 679 556 l 679 532 q 709 524 679 527 l 709 513 l 706 508 q 714 503 707 508 l 785 503 q 790 497 790 502 l 790 478 q 817 456 817 478 q 842 446 817 447 q 866 418 842 418 q 874 413 874 418 l 874 391 l 896 391 q 901 386 901 391 l 901 345 q 874 334 901 338 q 863 307 874 307 q 839 286 839 307 q 836 283 839 283 l 684 283 q 673 310 681 283 q 649 332 649 310 l 649 337 l 630 337 q 625 342 625 337 l 625 345 q 638 359 625 347 l 638 372 l 627 386 q 644 391 636 391 l 673 391 q 682 364 679 391 q 709 353 709 364 q 714 337 709 337 l 809 337 q 820 364 815 337 q 842 370 842 364 l 842 386 q 836 391 842 391 l 795 391 q 787 416 787 391 l 768 416 q 758 448 762 416 l 684 448 q 676 473 680 448 q 652 489 652 473 q 635 503 652 503 q 622 516 625 503 l 616 516 q 595 500 616 500 q 587 475 590 500 q 562 462 562 475 q 535 446 562 446 q 519 418 535 418 q 505 410 505 418 l 505 345 q 513 337 505 341 q 522 340 519 340 q 532 332 532 336 l 532 318 q 524 310 532 314 l 508 310 q 497 283 504 283 l 454 283 q 448 288 448 283 l 448 370 q 475 378 448 375 l 478 383 l 478 389 l 475 402 l 454 402 q 446 418 446 405 l 429 418 q 416 448 423 418 q 394 465 394 448 q 367 478 394 478 q 345 503 367 503 l 307 503 q 299 511 303 503 l 299 527 l 280 527 q 272 554 275 527 l 267 557 l 158 557 q 155 559 155 557 q 136 551 136 556 l 136 532 q 166 524 136 527 l 166 513 l 163 508 l 172 503 l 242 503 q 248 497 248 502 l 248 478 q 275 456 275 478 q 299 446 275 447 q 323 418 299 418 q 332 413 332 418 l 332 391 l 353 391 q 359 386 359 391 l 359 345 q 332 334 359 338 q 321 307 332 307 q 296 286 296 307 q 294 283 296 283 l 142 283 q 131 310 138 283 q 106 332 106 310 l 106 337 l 87 337 q 82 342 82 337 l 82 345 q 96 359 82 347 l 96 372 q 85 386 96 374 q 101 391 94 391 l 131 391 q 139 364 136 391 q 166 353 166 364 q 172 337 166 337 l 267 337 q 277 364 273 337 q 299 370 299 364 l 299 386 q 294 391 299 391 l 253 391 q 245 416 245 391 l 226 416 q 215 448 220 416 l 142 448 q 134 473 137 448 q 109 489 109 473 q 93 503 109 503 q 79 516 82 503 l 58 516 q 52 522 52 516 l 52 538 q 58 543 53 543 l 77 543 q 82 538 82 543 l 82 516 l 98 516 q 104 522 104 516 l 104 538 l 82 551 q 106 559 82 556 q 117 587 106 584 l 134 587 q 142 611 136 611 m 1200 611 l 1460 611 q 1466 606 1466 610 l 1466 562 q 1449 554 1463 554 l 1254 554 q 1246 546 1250 554 l 1246 481 q 1254 473 1246 477 l 1403 473 q 1411 456 1411 470 l 1411 440 q 1400 416 1411 420 l 1249 416 l 1246 402 l 1246 348 q 1254 340 1246 344 l 1438 340 q 1447 356 1438 356 l 1490 356 q 1495 351 1495 355 l 1495 334 q 1490 329 1495 329 l 1466 329 l 1466 288 q 1460 283 1466 283 l 1200 283 q 1194 288 1194 283 l 1194 421 q 1200 427 1195 427 l 1232 427 l 1246 429 l 1246 448 q 1240 454 1246 454 l 1200 454 q 1194 459 1194 454 l 1194 554 q 1200 559 1195 559 l 1219 559 l 1219 581 q 1194 589 1219 586 l 1194 606 q 1200 611 1195 611 m 1517 611 l 1558 611 q 1569 584 1565 611 q 1593 573 1593 584 l 1593 557 l 1612 557 q 1620 549 1616 557 l 1620 505 l 1623 500 l 1655 503 l 1669 503 q 1674 508 1674 503 l 1674 549 q 1702 559 1674 556 q 1715 584 1702 584 l 1726 584 q 1734 611 1729 611 l 1780 611 q 1786 606 1786 610 l 1786 288 q 1780 283 1786 283 l 1734 283 q 1729 288 1729 283 l 1729 397 q 1734 402 1729 402 l 1753 402 l 1756 416 l 1753 429 l 1734 429 q 1729 435 1729 429 l 1729 486 l 1726 500 l 1710 500 q 1699 475 1703 500 l 1693 473 l 1677 473 q 1661 437 1677 457 q 1650 418 1661 418 l 1639 418 q 1631 435 1631 421 l 1631 446 q 1615 473 1615 446 q 1590 486 1590 473 l 1588 500 l 1571 500 q 1566 494 1566 499 l 1566 291 q 1558 283 1566 287 l 1517 283 q 1509 299 1509 286 l 1509 446 q 1522 462 1522 460 l 1522 473 l 1509 489 l 1509 543 q 1485 551 1509 548 l 1485 570 q 1509 578 1485 576 l 1509 603 q 1517 611 1509 607 m 538 592 l 554 592 q 562 573 560 592 l 554 568 l 538 568 q 530 584 530 570 q 538 592 530 588 m 1322 549 l 1338 549 q 1346 532 1346 546 l 1346 530 q 1338 522 1346 526 l 1322 522 q 1314 530 1318 522 l 1314 541 q 1322 549 1314 545 m 1460 513 l 1474 513 q 1482 505 1478 513 l 1482 494 q 1471 484 1482 490 l 1460 484 q 1452 500 1452 486 l 1452 505 q 1460 513 1452 509 m 1501 481 l 1506 481 q 1512 475 1512 480 l 1512 462 q 1503 454 1512 458 l 1501 454 q 1495 459 1495 454 l 1495 475 q 1501 481 1496 481 m 39 470 l 79 470 q 87 462 83 470 l 87 451 q 79 443 87 447 l 41 443 q 33 451 37 443 l 33 465 q 39 470 34 470 m 581 470 l 622 470 q 630 462 626 470 l 630 451 q 622 443 630 447 l 584 443 q 576 451 580 443 l 576 465 q 581 470 576 470 m 937 462 l 958 462 q 975 454 975 460 l 975 440 q 969 435 975 435 l 928 435 q 920 443 924 435 l 920 454 q 937 462 923 462 m 1143 454 l 1186 454 q 1194 446 1190 454 l 1194 435 q 1186 427 1194 431 l 1145 427 q 1137 435 1141 427 l 1137 448 q 1143 454 1138 454 m 1707 427 l 1723 427 q 1729 421 1729 426 l 1729 408 q 1723 402 1729 402 l 1707 402 q 1702 408 1702 402 l 1702 421 q 1707 427 1702 427 m 427 402 l 440 402 q 448 394 444 402 l 448 383 q 440 375 448 379 l 429 375 q 421 383 425 375 l 421 397 q 427 402 422 402 m 1151 383 l 1164 383 q 1173 375 1168 383 l 1173 361 q 1167 356 1173 356 l 1148 356 q 1143 361 1143 356 l 1143 375 q 1151 383 1143 379 m 77 380 l 82 372 l 82 359 q 77 353 82 353 l 71 353 q 66 359 66 353 l 66 372 q 77 380 66 376 m 619 380 l 625 372 l 625 359 q 619 353 625 353 l 614 353 q 608 359 608 353 l 608 372 q 619 380 608 376 m 405 356 l 418 356 q 427 342 425 356 q 416 329 421 330 l 405 329 q 397 337 401 329 l 397 348 q 405 356 397 352 m 50 340 l 66 340 q 71 334 71 339 l 71 318 q 66 313 71 313 l 50 313 q 44 318 44 313 l 44 334 q 50 340 45 340 m 592 340 l 608 340 q 614 334 614 339 l 614 318 q 608 313 614 313 l 592 313 q 587 318 587 313 l 587 334 q 592 340 587 340 m 958 340 l 972 340 q 980 332 976 340 l 980 321 q 972 313 980 317 l 958 313 q 953 318 953 313 l 953 334 q 958 340 954 340 m 1121 321 l 1159 321 q 1167 313 1163 321 l 1167 299 q 1162 294 1167 294 l 1121 294 q 1113 302 1117 294 l 1113 313 q 1121 321 1113 317 m 45 233 l 66 233 q 68 231 68 233 l 68 172 q 81 164 81 172 l 81 160 l 88 160 q 92 157 90 160 l 92 113 q 96 109 92 111 l 113 109 q 116 112 116 109 l 116 130 q 121 134 116 131 l 130 134 l 130 146 l 119 146 q 116 151 117 146 l 116 155 q 118 158 116 158 l 139 158 q 143 151 143 157 l 143 116 q 139 109 143 109 l 121 109 q 117 104 119 109 l 117 87 q 113 83 117 85 l 96 83 q 91 96 92 83 q 80 100 80 96 q 73 109 80 109 q 67 113 67 109 l 67 144 q 55 148 67 146 q 47 159 55 159 q 41 163 41 159 l 41 176 q 45 180 41 178 l 54 180 l 54 187 q 43 191 54 190 l 41 193 l 41 226 q 45 233 42 233 m 195 233 l 212 233 q 217 228 214 233 l 217 208 l 229 208 q 233 205 231 208 l 233 200 q 229 196 233 198 l 217 196 l 217 163 q 214 159 217 161 l 206 159 q 201 146 203 146 l 191 146 l 191 112 q 179 107 191 109 q 172 96 179 96 q 165 85 165 96 l 163 83 l 145 83 q 140 92 140 85 l 140 97 q 153 109 140 109 q 166 112 166 109 q 155 116 166 114 l 154 118 l 154 123 q 165 128 154 126 l 166 130 l 166 155 q 178 159 166 157 q 182 172 179 172 l 190 172 l 190 202 q 179 206 190 204 l 179 216 q 181 218 179 218 l 190 218 l 190 228 q 195 233 190 230 m 267 233 l 336 233 q 340 221 339 233 q 352 214 352 221 q 354 208 352 208 l 376 208 q 380 205 378 208 l 380 200 q 376 196 380 198 l 363 196 l 363 137 l 364 137 l 370 138 l 373 134 l 373 127 q 370 124 373 124 l 363 124 l 363 111 q 352 107 363 109 q 340 94 352 94 q 336 83 338 83 l 267 83 q 262 94 264 83 q 249 104 249 94 l 249 109 l 241 109 q 238 111 238 109 l 238 157 q 241 159 239 159 l 249 159 l 249 172 l 241 172 q 238 174 238 172 l 238 206 q 241 208 239 208 l 249 208 l 249 216 q 254 221 249 218 l 262 221 q 267 233 264 233 m 414 233 l 483 233 q 488 221 486 233 q 500 210 500 221 q 510 206 510 208 l 510 155 l 516 155 q 520 151 518 155 l 520 146 q 516 143 520 145 l 510 143 l 510 130 l 516 130 q 520 127 518 130 l 520 121 q 517 118 520 118 l 510 118 l 510 111 q 499 107 510 109 q 488 94 499 94 q 483 83 486 83 l 414 83 q 409 94 412 83 q 396 104 396 94 l 396 109 l 388 109 q 385 111 385 109 l 385 157 q 388 159 386 159 l 396 159 l 396 172 l 388 172 q 385 174 385 172 l 385 206 q 388 208 386 208 l 396 208 l 396 216 q 401 221 396 218 l 409 221 q 414 233 411 233 m 534 233 l 602 233 q 608 221 604 233 q 618 214 618 221 q 630 206 618 206 l 631 203 l 631 196 l 640 196 q 645 182 643 196 q 656 179 656 182 l 656 161 l 659 158 l 659 153 l 656 149 l 656 136 q 648 132 654 132 l 645 132 q 637 121 645 121 l 631 119 l 631 111 q 629 109 631 109 l 618 109 q 605 95 618 95 l 605 86 q 603 83 605 83 l 534 83 q 530 87 532 83 l 530 94 q 534 97 530 95 l 545 97 q 547 100 547 97 l 547 107 q 545 109 547 109 l 534 109 q 530 113 532 109 l 530 200 q 542 205 530 203 l 542 214 q 531 217 542 216 l 530 220 l 530 229 q 534 233 530 231 m 703 233 l 770 233 q 774 221 773 233 q 785 217 785 221 q 789 207 785 207 l 795 208 l 797 206 l 797 193 l 806 193 q 808 191 808 193 l 808 185 q 806 182 808 182 l 776 182 q 773 185 773 182 l 773 200 q 770 207 773 206 l 702 207 q 699 205 699 207 l 699 134 q 688 130 699 132 l 687 128 l 687 123 q 699 118 687 119 q 701 109 699 115 l 770 109 q 773 117 773 111 l 773 132 q 776 134 774 134 l 794 134 q 797 132 797 134 l 797 112 q 786 109 797 110 q 779 96 786 96 q 772 85 772 96 l 770 83 l 702 83 q 699 86 699 83 l 699 95 q 686 100 686 96 l 687 102 q 677 109 687 109 q 673 113 675 109 l 673 182 q 687 186 673 185 l 687 195 q 673 199 687 197 l 673 203 q 681 207 675 207 l 684 207 l 687 214 q 686 218 686 217 q 696 221 690 221 l 698 221 q 703 233 698 232 m 821 233 l 831 233 q 842 228 841 233 l 842 124 q 854 121 842 122 q 870 109 854 109 l 877 109 q 884 122 882 122 l 892 122 l 892 130 q 905 134 892 133 q 908 146 905 146 l 916 146 l 916 168 q 905 172 916 169 l 905 180 q 907 182 905 182 l 916 182 l 916 222 q 924 233 916 233 l 1166 233 q 1170 229 1168 233 l 1170 222 l 1177 222 q 1181 218 1179 222 l 1181 214 q 1152 208 1181 208 l 1121 208 l 1120 200 l 1120 86 q 1117 83 1120 83 l 1097 83 q 1093 87 1095 83 l 1093 117 q 1107 121 1093 119 l 1107 130 q 1105 132 1107 132 l 1095 132 l 1095 123 q 1091 119 1095 121 l 1086 119 l 1082 122 q 1086 132 1084 132 l 1093 132 l 1093 182 q 1082 187 1093 186 l 1081 190 l 1081 195 q 1093 200 1081 198 l 1093 208 l 1013 208 l 1012 200 l 1012 86 q 1010 83 1012 83 l 989 83 q 986 87 988 83 l 986 117 q 1000 121 986 119 l 1000 130 q 997 132 1000 132 l 987 132 l 987 123 q 983 119 987 121 l 979 119 l 975 122 q 979 132 976 132 l 986 132 l 986 182 q 975 187 986 186 l 974 190 l 974 195 q 986 200 974 198 l 986 208 l 943 208 l 943 87 q 939 83 943 85 l 920 83 q 917 87 919 83 l 917 91 l 929 91 l 930 97 l 930 100 q 917 104 930 103 q 913 109 917 106 l 896 109 q 893 106 893 108 l 893 87 q 886 83 892 83 l 846 83 q 842 96 843 83 l 838 96 q 829 107 829 96 q 818 112 818 109 l 818 119 q 830 128 818 128 l 830 137 q 819 142 830 140 l 818 144 l 818 229 q 821 233 818 231 m 1186 233 l 1305 233 q 1308 227 1308 233 l 1327 227 q 1331 223 1329 227 l 1331 218 q 1327 214 1331 216 l 1308 214 q 1300 207 1308 207 l 1211 207 q 1207 203 1209 207 l 1207 174 q 1211 170 1207 172 l 1279 170 q 1282 163 1282 169 l 1282 155 q 1278 144 1282 146 l 1208 144 l 1207 138 l 1207 113 q 1211 109 1207 111 l 1305 109 q 1308 107 1308 109 l 1308 86 q 1305 83 1308 83 l 1186 83 q 1184 86 1184 83 l 1184 146 q 1186 149 1184 149 l 1201 149 l 1207 151 l 1207 159 q 1205 161 1207 161 l 1186 161 q 1184 164 1184 161 l 1184 207 q 1186 210 1184 210 l 1195 210 l 1195 220 q 1184 223 1195 222 l 1184 231 q 1186 233 1184 233 m 1333 233 l 1428 233 l 1431 232 l 1430 226 q 1443 220 1430 222 l 1444 208 l 1453 208 q 1456 206 1456 208 l 1456 185 q 1453 182 1456 182 l 1444 182 q 1437 172 1444 172 q 1428 159 1428 172 q 1417 155 1421 158 l 1419 153 q 1409 145 1419 145 q 1405 142 1407 145 l 1405 140 l 1407 134 l 1426 134 q 1431 122 1430 134 q 1444 109 1444 121 l 1444 109 l 1452 109 q 1456 104 1454 109 l 1456 87 q 1452 83 1456 85 l 1434 83 q 1419 94 1428 91 l 1417 101 q 1430 104 1420 103 l 1430 106 l 1426 109 l 1407 109 q 1405 111 1405 109 l 1405 119 q 1393 130 1393 119 l 1392 134 l 1369 134 q 1354 132 1363 134 l 1354 86 q 1352 83 1354 83 l 1335 83 q 1330 88 1333 83 l 1330 101 q 1342 106 1330 104 l 1342 115 q 1331 118 1342 117 l 1330 121 l 1330 170 q 1327 172 1330 172 l 1320 172 q 1317 174 1317 172 l 1317 181 q 1321 185 1317 183 l 1330 185 l 1330 211 q 1333 214 1330 213 l 1352 214 q 1354 217 1354 214 l 1354 224 q 1352 227 1354 227 l 1333 227 q 1331 229 1331 227 l 1331 231 q 1333 233 1331 233 m 1542 233 l 1661 233 q 1664 231 1664 233 l 1664 211 q 1656 207 1662 207 l 1567 207 q 1563 203 1565 207 l 1563 174 q 1567 170 1563 172 l 1635 170 q 1638 163 1638 169 l 1638 155 q 1634 144 1638 146 l 1565 144 l 1563 138 l 1563 113 q 1567 109 1563 111 l 1666 109 q 1668 107 1668 109 l 1668 100 q 1664 97 1668 97 l 1664 86 q 1661 83 1664 83 l 1542 83 q 1540 86 1540 83 l 1540 146 q 1542 149 1540 149 l 1557 149 l 1563 151 l 1563 159 q 1561 161 1563 161 l 1542 161 q 1540 164 1540 161 l 1540 207 q 1542 210 1540 210 l 1551 210 l 1551 220 q 1540 223 1551 222 l 1540 231 q 1542 233 1540 233 m 1701 233 l 1770 233 l 1776 222 q 1786 214 1786 222 q 1799 208 1786 208 l 1799 206 l 1799 187 q 1796 184 1799 186 l 1776 184 q 1772 187 1774 184 l 1772 195 l 1763 195 q 1760 207 1761 195 l 1757 208 l 1708 208 q 1707 210 1707 208 q 1698 206 1698 208 l 1698 197 q 1712 193 1698 195 l 1712 189 l 1710 186 l 1714 184 l 1746 184 q 1749 181 1749 183 l 1749 172 q 1761 163 1761 172 q 1772 158 1761 159 q 1784 145 1772 145 q 1787 143 1787 145 l 1787 133 l 1797 133 q 1799 130 1799 133 l 1799 112 q 1787 107 1799 109 q 1782 95 1787 95 q 1771 85 1771 95 q 1770 83 1771 83 l 1701 83 q 1695 96 1699 83 q 1685 106 1685 96 l 1685 109 l 1676 109 q 1673 111 1673 109 l 1673 112 q 1680 118 1673 113 l 1680 124 q 1674 130 1680 125 q 1682 133 1678 133 l 1695 133 q 1699 121 1698 133 q 1712 116 1712 121 q 1714 109 1712 109 l 1757 109 q 1763 121 1761 109 q 1772 123 1772 121 l 1772 130 q 1770 133 1772 133 l 1751 133 q 1748 144 1748 133 l 1739 144 q 1734 159 1736 144 l 1701 159 q 1697 170 1698 159 q 1686 178 1686 170 q 1678 184 1686 184 q 1672 190 1673 184 l 1662 190 q 1659 193 1659 190 l 1659 200 q 1662 202 1660 202 l 1671 202 q 1673 200 1673 202 l 1673 190 l 1681 190 q 1683 193 1683 190 l 1683 200 l 1673 206 q 1685 210 1673 208 q 1689 222 1685 220 l 1697 222 q 1701 233 1698 233 m 943 227 l 943 214 q 950 221 950 214 q 943 227 950 227 m 1530 222 l 1533 222 q 1537 218 1535 222 l 1537 214 q 1533 210 1537 212 l 1526 210 q 1522 214 1525 210 l 1522 218 q 1530 222 1524 222 m 897 218 l 903 218 q 907 214 905 218 l 907 210 q 903 206 907 208 l 897 206 q 895 208 895 206 l 895 216 q 897 218 895 218 m 521 216 l 528 216 q 530 214 530 216 l 530 206 q 528 203 530 203 l 521 203 q 517 207 519 203 l 517 212 q 521 216 517 214 m 264 191 l 264 123 q 270 121 267 123 q 275 122 273 122 q 279 109 277 109 l 322 109 q 326 121 325 109 q 338 123 338 121 l 338 143 q 343 153 338 147 l 343 160 q 338 172 338 165 l 328 172 q 325 175 327 172 l 325 181 q 338 185 325 184 l 338 193 q 325 196 338 195 q 322 208 325 208 l 290 208 q 277 202 277 208 q 265 193 277 195 l 264 191 m 411 191 l 411 123 q 417 121 413 123 q 422 122 420 122 q 426 109 423 109 l 469 109 q 473 121 472 109 q 486 123 486 121 l 486 143 q 490 153 486 147 l 490 160 q 486 172 486 165 l 475 172 q 472 175 473 172 l 472 181 q 486 185 472 184 l 486 193 q 472 196 486 195 q 469 208 472 208 l 437 208 q 423 202 423 208 q 412 193 423 195 l 411 191 m 555 206 l 555 111 q 557 109 555 109 l 589 109 l 595 119 q 600 121 597 121 l 604 121 q 609 134 605 134 l 616 134 q 623 146 616 142 l 630 146 q 642 154 630 154 l 644 157 l 644 159 l 642 165 l 633 165 q 618 172 630 170 q 612 182 618 182 q 604 193 604 182 q 591 207 591 193 l 585 208 l 572 208 q 555 206 564 208 m 1354 199 l 1354 163 q 1358 159 1354 161 l 1392 159 q 1405 172 1392 172 l 1405 179 q 1416 185 1405 181 q 1428 197 1416 197 l 1430 200 l 1430 206 q 1428 208 1430 208 l 1358 208 q 1354 199 1354 208 m 1242 205 l 1249 205 q 1253 197 1253 203 l 1253 196 q 1249 193 1253 194 l 1242 193 q 1238 196 1240 193 l 1238 201 q 1242 205 1238 203 m 1598 205 l 1605 205 q 1609 197 1609 203 l 1609 196 q 1605 193 1609 194 l 1598 193 q 1594 196 1596 193 l 1594 201 q 1598 205 1594 203 m 665 197 l 671 197 q 673 195 673 197 l 673 187 q 671 185 673 185 l 665 185 q 661 189 663 185 l 661 193 q 665 197 661 195 m 172 193 l 178 193 q 180 191 180 193 l 180 184 q 178 181 180 181 l 172 181 q 168 185 170 181 l 168 190 q 172 193 168 192 m 34 191 l 39 191 q 43 187 41 191 l 43 182 q 40 180 43 180 l 33 180 q 29 187 29 181 l 34 191 m 589 178 l 598 178 q 603 176 601 178 q 608 178 605 178 q 610 175 610 177 l 610 166 q 606 163 610 165 l 588 163 q 585 165 585 163 l 585 168 q 589 178 585 177 m 228 172 l 235 172 q 238 169 238 171 l 238 161 q 235 159 238 159 l 228 159 q 226 161 226 159 l 226 169 q 228 172 226 172 m 375 172 l 382 172 q 385 169 385 171 l 385 161 q 382 159 385 159 l 375 159 q 373 161 373 159 l 373 169 q 375 172 373 172 m 1653 169 l 1672 169 q 1676 165 1674 169 l 1676 160 q 1672 157 1676 159 l 1655 157 q 1651 160 1653 157 l 1651 166 q 1653 169 1651 169 m 807 168 l 809 168 q 813 164 811 168 l 813 157 q 810 154 813 154 l 802 154 q 800 157 800 154 l 800 164 q 807 168 800 168 m 623 165 l 629 165 q 631 163 631 165 l 631 157 q 627 153 631 155 l 623 153 q 618 157 621 153 l 618 161 q 623 165 618 163 m 959 165 l 968 165 q 976 161 976 164 l 976 155 q 974 153 976 153 l 955 153 q 951 157 954 153 l 951 161 q 959 165 953 165 m 1066 165 l 1076 165 q 1084 161 1084 164 l 1084 155 q 1081 153 1084 153 l 1063 153 q 1059 157 1061 153 l 1059 161 q 1066 165 1060 165 m 334 161 l 337 161 q 340 159 340 161 l 340 153 q 337 151 340 151 l 334 151 q 332 153 332 151 l 332 159 q 334 161 332 161 m 481 161 l 484 161 q 486 159 486 161 l 486 153 q 484 151 486 151 l 481 151 q 479 153 479 151 l 479 159 q 481 161 479 161 m 1160 161 l 1180 161 q 1184 158 1182 161 l 1184 153 q 1180 149 1184 151 l 1162 149 q 1158 153 1160 149 l 1158 159 q 1160 161 1158 161 m 1516 161 l 1536 161 q 1540 158 1538 161 l 1540 153 q 1536 149 1540 151 l 1518 149 q 1514 153 1516 149 l 1514 159 q 1516 161 1514 161 m 29 157 l 37 157 q 39 154 39 156 l 39 146 q 37 144 39 144 l 29 144 q 26 146 26 144 l 26 154 q 29 157 27 157 m 1303 155 l 1310 155 q 1314 148 1314 154 l 1314 146 q 1310 143 1314 145 l 1303 143 q 1299 146 1301 143 l 1299 151 q 1303 155 1299 153 m 107 146 l 113 146 q 117 143 115 146 l 117 138 q 113 134 117 136 l 107 134 q 103 138 105 134 l 103 139 q 107 146 104 146 m 307 146 l 327 146 q 331 143 329 146 q 326 134 331 136 l 307 134 q 304 138 306 134 l 304 143 q 307 146 304 144 m 454 146 l 474 146 q 478 143 476 146 q 473 134 478 136 l 454 134 q 451 138 452 134 l 451 143 q 454 146 451 144 m 810 139 l 815 139 q 818 137 818 139 l 818 130 q 815 127 818 127 l 809 127 q 807 130 807 127 l 807 136 q 810 139 807 137 m 223 138 l 226 134 l 226 127 q 223 124 226 124 l 216 124 q 214 127 214 124 l 214 134 q 223 138 214 137 m 1293 134 l 1310 134 q 1314 130 1312 134 l 1314 125 q 1310 122 1314 124 l 1291 122 q 1289 124 1289 122 l 1289 130 q 1293 134 1289 132 m 702 132 l 708 132 q 711 128 709 132 l 711 123 q 708 119 711 121 l 703 119 q 699 123 701 119 l 699 130 q 702 132 700 132 m 38 130 l 58 130 q 61 123 61 130 l 61 122 q 58 118 61 120 l 38 118 q 35 121 35 118 l 35 128 q 38 130 36 130 m 1164 130 l 1170 130 q 1174 125 1172 130 l 1174 119 q 1171 117 1174 117 l 1163 117 q 1160 119 1160 117 l 1160 125 q 1164 130 1160 127 m 1520 130 l 1526 130 q 1530 125 1528 130 l 1530 119 q 1527 117 1530 117 l 1519 117 q 1516 119 1516 117 l 1516 125 q 1520 130 1516 127 m 1671 128 l 1673 124 l 1673 118 q 1671 116 1673 116 l 1668 116 q 1666 118 1666 116 l 1666 124 q 1671 128 1666 126 m 647 123 l 667 123 q 671 119 669 123 l 671 115 q 667 111 671 113 l 648 111 q 645 118 645 112 l 645 121 q 647 123 645 123 m 1321 117 l 1327 117 q 1331 113 1329 117 l 1331 109 q 1327 104 1331 106 l 1322 104 q 1317 109 1320 104 q 1321 117 1318 117 m 1473 115 l 1497 115 q 1500 111 1498 115 l 1500 87 q 1497 83 1500 85 l 1473 83 q 1470 87 1471 83 l 1470 111 q 1473 115 1470 113 m 524 109 l 528 109 q 530 107 530 109 l 530 100 q 528 97 530 97 l 525 97 q 521 101 523 97 l 521 107 q 524 109 522 109 m 968 109 l 975 109 q 979 106 977 109 l 979 101 q 975 97 979 99 l 968 97 q 966 100 966 97 l 966 107 q 968 109 966 109 m 1076 109 l 1082 109 q 1086 106 1084 109 l 1086 101 q 1082 97 1086 99 l 1076 97 q 1074 100 1074 97 l 1074 107 q 1076 109 1074 109 m 908 103 l 914 103 q 917 101 917 103 l 917 91 l 907 91 q 905 94 905 91 l 905 100 q 908 103 905 102 m 1150 101 l 1168 101 q 1171 97 1169 101 l 1171 91 q 1169 88 1171 88 l 1150 88 q 1147 92 1149 88 l 1147 97 q 1150 101 1147 99 m 1506 101 l 1524 101 q 1527 97 1525 101 l 1527 91 q 1525 88 1527 88 l 1506 88 q 1503 92 1505 88 l 1503 97 q 1506 101 1503 99 z "},"A":{"ha":893,"x_min":-172,"x_max":897,"o":"m 432 972 l 542 972 q 572 934 572 972 l 572 904 q 644 887 572 891 q 656 824 652 876 q 724 807 656 814 q 745 735 738 735 l 800 735 q 817 718 806 735 l 817 680 q 829 646 817 649 l 846 646 q 897 616 897 646 l 897 16 l 884 0 q 850 4 874 0 q 749 0 799 0 q 728 33 728 10 l 728 118 q 770 160 728 160 l 804 160 q 817 173 810 160 l 817 211 q 779 241 817 241 l 745 241 q 728 270 728 248 l 728 308 q 720 317 728 317 l 255 317 q 242 270 242 317 l 242 12 q 229 0 242 6 l 191 0 q 90 16 90 0 q 85 33 85 24 l 85 334 q 115 363 85 363 l 229 363 q 246 406 243 363 q 217 444 246 444 l 102 444 q 85 473 85 450 l 85 608 q 128 646 85 646 q 166 680 166 646 q 195 735 166 735 q 238 731 218 731 q 259 807 248 807 q 322 832 322 807 q 339 891 322 891 l 373 891 q 411 934 411 891 q 432 972 411 960 m 411 659 q 339 642 411 646 l 335 633 l 335 604 q 293 566 335 566 q 242 524 242 566 l 242 515 q 272 486 242 486 l 694 486 q 728 511 728 486 l 728 553 q 715 566 728 559 l 669 566 q 644 642 650 566 l 623 646 l 508 646 q 492 676 492 653 l 492 692 q 508 722 492 715 l 542 722 q 572 752 572 722 l 572 773 q 547 807 572 807 q 542 803 542 807 l 521 807 q 411 786 411 807 l 411 659 m 18 722 l 68 722 q 85 705 75 722 l 85 671 q 73 646 85 650 l 22 646 q 5 714 5 646 l 18 722 m -41 444 l 47 444 q 85 427 80 444 l 85 380 q 68 363 85 374 l -54 363 q -83 401 -83 363 l -83 410 q -41 444 -83 444 m 682 241 l 694 241 q 732 220 732 241 q 715 156 729 156 l 711 156 q 694 160 702 156 q 677 156 687 156 l 669 156 q 648 203 653 156 q 682 241 650 241 m -155 160 l -113 160 q -92 118 -98 160 q -117 80 -92 80 q -163 76 -155 76 l -172 88 l -172 143 q -155 160 -172 150 z "},"B":{"ha":970,"x_min":0,"x_max":970,"o":"m 178 970 l 783 970 q 813 915 813 970 q 877 885 813 885 q 898 813 892 885 l 919 813 q 970 783 970 813 l 970 661 q 953 644 970 654 l 830 644 q 813 661 823 644 l 813 775 q 787 800 813 800 l 351 800 q 326 766 326 800 l 326 673 q 339 648 329 648 l 783 648 q 813 610 813 648 l 813 576 q 826 564 813 570 l 872 564 q 898 487 889 564 l 919 483 l 953 483 q 970 466 960 483 l 970 174 q 940 157 963 157 l 906 157 q 885 81 895 157 l 877 76 l 843 76 q 809 8 809 76 l 796 0 l 186 0 q 157 38 157 0 l 157 479 q 127 508 157 508 q 89 504 104 504 l 81 517 l 81 568 q 98 585 81 574 l 132 585 q 157 597 153 585 l 157 809 q 182 843 157 843 q 229 847 205 847 q 309 843 296 843 l 317 855 l 317 919 l 296 923 l 195 923 q 161 936 163 923 l 161 953 q 178 970 161 960 m 17 923 l 144 923 q 157 911 150 923 l 157 855 q 144 843 157 849 q 64 847 121 843 q 8 843 27 843 q 0 868 0 857 l 0 894 q 17 923 0 916 m 326 457 l 326 191 q 351 157 326 157 l 618 157 q 644 199 644 157 q 682 237 644 237 l 783 237 q 813 267 813 237 l 813 296 q 885 322 813 310 q 894 364 894 341 q 877 394 888 394 l 830 394 q 813 411 823 394 l 813 453 q 796 483 813 476 l 339 483 q 326 457 326 479 m 741 394 l 783 394 q 813 364 813 394 l 813 343 q 762 313 813 313 q 724 330 730 313 l 724 377 q 741 394 724 384 m 581 313 l 627 313 q 644 283 644 307 l 644 267 q 627 237 644 244 l 581 237 q 564 275 564 243 q 581 313 564 308 m 76 136 l 93 136 q 123 119 116 136 l 123 64 l 115 51 q 89 55 111 51 q 55 51 66 51 q 47 64 47 62 l 47 119 q 76 136 54 136 z "},"C":{"ha":916,"x_min":-68,"x_max":917,"o":"m 309 972 l 732 972 q 762 918 762 972 l 766 892 l 820 892 q 837 876 827 892 l 837 846 q 866 804 837 804 q 896 812 874 804 q 917 783 917 807 l 917 666 q 900 649 917 659 l 779 649 q 762 666 772 649 l 762 771 q 736 804 762 804 l 305 804 q 280 779 280 804 l 280 331 q 263 314 280 324 l 230 314 q 200 277 200 314 l 200 272 q 217 235 200 240 l 263 235 q 284 172 280 235 l 305 168 l 736 168 q 762 201 762 168 l 762 306 q 779 323 762 313 l 900 323 q 917 306 906 323 l 917 197 q 887 168 917 168 l 858 168 q 837 125 837 158 l 837 96 q 820 79 837 90 l 787 79 q 762 67 762 77 l 762 33 q 741 0 762 11 l 309 0 q 280 29 280 0 l 280 67 q 204 84 280 79 q 196 109 196 98 q 200 113 196 113 q 171 168 200 168 q 113 193 113 168 l 113 629 q 129 658 113 651 l 175 658 q 200 670 197 658 l 200 725 q 188 737 200 730 l 142 737 q 113 766 113 737 l 113 775 q 184 808 113 808 q 200 854 200 831 q 196 871 196 869 q 275 897 196 897 q 309 972 275 972 m 54 737 l 96 737 q 113 720 102 737 l 113 674 q 75 658 106 658 q 37 674 43 658 l 37 720 q 54 737 37 727 m -47 503 l -18 503 q 12 486 5 503 l 12 452 q -35 423 12 423 q -64 440 -64 429 l -64 486 q -47 503 -64 492 m 317 314 l 326 314 q 359 281 359 314 l 359 272 q 330 235 359 235 l 309 235 q 280 264 280 235 l 280 285 q 317 314 280 314 m -55 256 l 75 256 q 92 227 92 249 l 92 210 q 75 180 92 187 l -39 180 q -68 218 -68 180 l -68 243 q -55 256 -68 249 z "},"D":{"ha":943,"x_min":-95,"x_max":945,"o":"m 159 972 l 588 972 q 618 917 618 972 q 661 891 618 891 q 699 849 699 891 q 736 806 699 806 l 762 810 q 788 772 777 805 l 783 747 l 783 743 q 792 734 785 734 l 847 734 q 864 718 854 734 l 864 701 q 877 645 864 645 l 894 645 q 945 615 945 645 l 945 344 q 894 314 945 314 l 877 314 q 860 242 867 314 q 788 225 788 237 l 788 186 q 758 157 788 157 l 711 157 q 690 85 700 157 q 618 64 618 75 l 618 30 q 601 0 618 7 l 159 0 q 130 38 130 0 l 130 51 q 159 89 130 89 l 219 89 q 245 115 245 89 l 245 136 q 211 170 245 170 l 147 170 q 130 208 130 176 l 130 739 q 172 781 130 781 l 198 781 q 211 793 204 781 l 211 844 q 198 857 211 850 l 168 857 q 130 895 130 857 l 130 934 q 159 972 130 972 m 71 857 l 113 857 q 130 840 119 857 l 130 793 q 117 781 130 787 l 79 781 q 50 823 50 781 q 71 857 50 846 m 291 793 l 291 170 q 304 157 291 163 l 508 157 q 542 225 542 157 q 571 237 557 237 l 601 237 q 618 267 618 245 l 618 310 q 694 331 618 327 q 732 408 706 408 l 775 408 l 800 450 l 839 450 q 868 488 868 450 l 868 492 q 851 530 868 525 l 813 530 q 771 564 793 530 l 715 564 q 699 581 709 564 l 699 615 q 669 645 699 645 l 635 645 q 618 662 629 645 l 618 696 q 606 722 618 718 l 580 722 q 537 772 537 722 q 499 814 537 814 l 456 814 q 291 793 291 814 m 550 611 q 606 607 553 611 l 623 611 q 652 577 648 611 l 652 551 q 610 517 652 517 l 525 517 q 491 530 493 517 q 520 607 491 607 l 550 611 m 736 530 l 758 530 q 788 500 788 530 l 788 488 q 745 450 788 450 l 741 450 q 707 484 707 453 l 707 492 q 736 530 707 530 m -65 463 l 45 463 q 62 446 52 463 l 62 399 q 24 382 56 382 l -44 382 q -95 412 -95 382 l -95 433 q -65 463 -95 463 m 24 306 q 62 289 56 306 l 62 237 q 50 225 62 231 l 3 225 q -14 242 -4 225 l -14 289 q 24 306 -9 306 m 104 170 q 130 153 130 161 l 130 106 q 100 85 127 94 q 75 119 75 94 l 75 140 q 104 170 75 170 z "},"E":{"ha":972,"x_min":-68,"x_max":973,"o":"m 197 974 l 952 974 q 973 932 973 964 l 973 848 q 923 806 973 806 l 348 806 q 323 781 323 806 l 323 583 q 356 558 323 558 l 789 558 q 805 529 805 551 l 805 433 q 764 391 805 391 l 335 391 q 323 378 329 391 l 323 193 q 348 168 323 168 l 944 168 q 973 117 973 168 l 973 42 q 952 0 973 9 l 197 0 q 168 17 174 0 l 168 399 q 180 424 170 424 l 289 424 q 323 449 323 424 l 323 491 q 310 504 323 497 l 184 504 q 168 521 178 504 l 168 802 q 218 819 168 819 l 235 819 q 243 827 243 819 l 243 882 q 230 894 243 888 l 205 894 q 168 911 173 894 l 168 957 q 197 974 174 974 m 566 785 l 574 785 q 612 755 612 785 l 612 722 q 595 705 612 715 l 553 705 q 524 734 524 705 l 524 764 q 566 785 534 785 m 28 504 l 138 504 q 168 466 168 504 l 168 462 q 125 424 168 424 l 54 424 q -1 445 5 424 l -1 487 q 28 504 6 504 m -30 113 l 50 113 q 87 84 87 113 l 87 63 q 58 34 87 34 l -39 34 q -68 50 -61 34 l -68 84 q -30 113 -68 113 m 58 299 l 66 299 q 104 270 104 299 l 104 237 q 87 220 104 230 l 45 220 q 16 249 16 220 l 16 279 q 58 299 26 299 m 102 897 l 111 897 q 149 867 149 897 l 149 834 q 132 817 149 827 l 90 817 q 60 846 60 817 l 60 876 q 102 897 70 897 z "},"F":{"ha":996,"x_min":0,"x_max":998,"o":"m 212 972 l 968 972 q 998 934 998 972 l 998 844 q 981 814 998 822 l 454 814 q 409 814 431 814 q 374 814 388 814 q 352 789 352 812 l 352 577 q 386 551 352 551 l 810 551 q 836 539 836 549 l 836 399 q 798 382 830 382 l 365 382 q 344 352 360 382 q 306 323 306 352 l 306 297 q 348 263 306 271 l 352 242 l 352 30 q 335 0 352 7 l 199 0 q 182 17 193 0 l 182 72 q 199 89 182 79 l 242 89 q 271 119 271 89 l 271 157 q 191 178 271 172 q 182 203 182 192 l 182 446 q 225 479 182 473 l 229 509 l 229 517 q 191 556 229 556 q 182 581 182 570 l 182 942 q 212 972 182 972 m 30 734 l 140 734 q 161 688 161 726 q 119 654 161 654 l 43 654 q 0 696 0 654 q 30 734 0 734 m 161 547 l 170 547 q 182 522 182 543 l 182 505 q 170 479 182 483 l 157 479 q 149 488 149 479 l 149 522 q 161 547 151 547 m 412 357 q 463 323 463 352 q 467 310 463 318 q 437 271 467 271 l 378 271 q 352 284 355 271 l 352 344 q 361 352 353 352 l 386 352 l 412 357 m 51 340 l 68 340 q 102 271 102 340 q 72 259 86 259 l 43 259 q 13 289 13 259 l 13 310 q 51 340 13 340 m 127 174 l 170 174 q 182 149 182 170 l 182 119 q 153 89 182 89 l 144 89 q 115 106 121 89 l 115 149 q 127 174 117 174 z "},"G":{"ha":953,"x_min":-34,"x_max":953,"o":"m 344 974 l 777 974 q 798 940 798 963 l 798 907 q 823 894 802 894 l 856 894 q 873 878 863 894 l 873 848 q 886 814 873 817 l 919 814 q 953 781 953 814 l 953 680 q 936 650 953 657 l 814 650 q 798 667 808 650 l 798 772 q 772 806 798 806 l 340 806 q 315 781 315 806 l 315 193 q 340 168 315 168 l 772 168 q 798 201 798 168 l 798 298 q 785 323 798 320 l 524 323 q 478 336 478 323 l 478 349 q 487 357 479 357 l 520 357 q 549 374 543 357 l 549 428 q 524 449 549 435 q 478 441 508 441 l 470 453 q 487 491 474 491 l 936 491 q 953 462 953 484 l 953 197 q 923 168 953 168 l 894 168 q 873 126 873 159 l 873 96 q 856 80 873 90 l 823 80 q 798 67 798 77 l 798 42 q 777 0 798 9 l 344 0 q 311 75 311 0 q 235 109 235 75 q 214 168 225 168 l 176 168 q 151 180 154 168 l 151 201 q 189 235 189 224 q 151 298 189 298 l 146 319 l 146 621 q 197 650 146 650 l 214 650 q 227 676 227 655 l 227 709 l 222 730 l 180 730 q 146 764 146 730 l 146 777 q 176 806 146 806 l 214 806 q 243 890 224 808 l 252 894 l 290 894 q 315 936 315 894 q 344 974 315 974 m 696 751 q 730 709 730 751 q 701 671 730 671 l 680 671 q 650 701 650 671 l 650 730 q 696 751 659 751 m 88 739 q 146 722 146 734 l 146 667 q 130 650 146 661 l 83 650 q 67 696 71 650 q 88 739 67 725 m 8 516 l 83 516 q 125 483 125 516 l 125 474 q 96 437 125 437 l -13 437 q -34 474 -34 448 q 8 516 -34 516 m 432 449 q 470 437 470 447 l 470 374 q 432 357 470 361 q 394 386 394 357 l 394 433 q 432 449 400 449 m 117 290 l 130 290 q 146 273 136 290 l 146 231 q 130 214 146 224 q 100 252 100 214 q 117 290 106 290 z "},"H":{"ha":1013,"x_min":-27,"x_max":1013,"o":"m 190 972 l 330 972 q 359 942 359 972 l 359 577 q 393 551 359 551 l 817 551 q 847 590 847 551 l 847 675 q 817 713 847 713 l 783 713 q 766 730 777 713 l 766 772 q 783 789 766 779 l 817 789 q 847 827 847 789 l 847 955 q 877 972 854 972 l 983 972 q 1013 955 1006 972 l 1013 51 q 996 0 1013 0 l 864 0 q 847 17 857 0 l 847 267 q 907 284 847 281 q 915 327 915 304 l 911 365 l 860 365 q 830 395 857 365 l 372 395 q 359 382 366 395 l 359 30 q 342 0 359 7 l 223 0 q 189 38 189 0 l 189 395 l 193 416 l 71 416 q 33 433 38 416 l 33 479 q 50 496 33 486 l 193 496 q 189 522 193 500 q 193 539 189 539 l 190 972 m 50 781 q 87 726 87 781 l 87 709 q 50 688 87 688 l 37 688 q -1 705 4 688 l -1 764 q 50 781 -1 781 m 198 496 q 202 454 198 476 q 198 416 198 438 l 325 416 q 359 441 359 416 l 359 471 q 334 496 359 496 l 198 496 m 787 374 l 809 374 q 843 361 840 374 l 843 297 q 804 280 837 280 l 796 280 q 753 314 753 280 l 753 340 q 787 374 753 374 m 54 271 l 66 271 q 134 237 134 271 l 134 220 q 83 178 134 178 l 16 178 q -27 220 -27 178 l -27 229 q 16 267 -27 267 q 54 271 38 271 z "},"I":{"ha":587,"x_min":-54,"x_max":601,"o":"m 115 970 l 551 970 q 585 843 601 975 q 564 813 574 816 l 450 813 q 412 796 417 813 l 412 186 q 441 157 412 157 l 558 157 q 588 119 588 157 l 588 38 q 571 0 588 5 l 102 0 q 85 17 96 0 l 85 140 q 102 157 85 146 l 221 157 q 246 170 243 157 l 246 178 q 183 195 246 191 q 174 208 174 205 l 174 241 q 212 271 174 271 l 242 271 q 255 317 255 271 l 255 572 q 268 585 255 578 l 306 585 q 331 597 328 585 l 331 652 q 255 677 331 667 l 255 758 q 217 813 255 813 l 102 813 q 85 830 96 813 l 85 953 q 115 970 92 970 m -12 881 q 26 851 26 881 l 26 826 q 1 796 26 796 q -54 813 -54 800 l -54 817 q -29 877 -54 877 l -12 881 m 212 677 q 251 665 251 674 l 251 602 q 221 585 243 585 l 212 585 q 174 614 174 585 l 174 648 q 212 677 174 677 m -24 449 l 90 449 q 115 436 115 446 l 115 377 l 111 368 q 39 373 61 373 l 22 373 l -29 368 q -41 398 -41 384 l -41 419 q -24 449 -41 442 z "},"J":{"ha":827,"x_min":-54,"x_max":829,"o":"m 332 972 l 812 972 q 829 955 818 972 l 829 819 q 790 802 823 802 l 684 802 q 671 789 678 802 l 671 186 q 604 149 671 155 q 591 123 591 144 l 591 94 q 519 68 591 78 q 493 0 513 0 l 205 0 q 183 43 183 9 l 183 68 q 158 81 179 81 l 124 81 q 98 153 110 81 q 26 182 33 153 q 56 203 33 203 l 103 203 q 115 216 109 203 l 115 271 q 81 284 113 284 l 43 284 q 31 297 37 284 l 31 301 q 68 318 37 318 l 145 318 q 183 284 183 318 q 196 250 183 253 l 226 250 q 264 208 264 250 q 307 157 264 157 l 387 157 q 421 170 418 157 l 421 208 q 463 250 421 250 l 489 250 q 502 263 495 250 l 502 301 q 472 318 502 311 q 434 314 449 314 q 421 357 421 314 q 463 395 421 395 q 502 420 502 395 l 502 581 q 532 620 502 604 q 536 637 536 627 l 536 666 q 502 709 536 681 l 502 789 q 489 802 502 795 l 217 802 q 183 857 183 802 l 183 917 q 196 968 183 953 q 332 972 288 972 m 417 692 l 451 692 q 502 662 502 692 l 502 628 q 485 611 502 621 l 404 611 q 378 624 382 611 l 378 675 q 417 692 385 692 m 319 543 q 366 522 366 536 l 366 471 q 349 454 366 465 l 302 454 q 286 505 286 454 q 319 543 286 543 m -12 284 q 26 254 26 284 l 26 220 q 9 203 26 214 l -33 203 q -54 246 -54 214 q -12 284 -54 284 z "},"K":{"ha":817,"x_min":0,"x_max":821,"o":"m 821 970 l 821 833 q 804 817 821 827 l 757 817 q 740 778 740 810 l 740 753 q 659 731 740 735 q 650 697 650 715 l 650 663 q 633 646 650 656 l 587 646 q 566 574 574 646 q 532 566 550 566 l 506 566 q 493 553 500 566 l 493 421 q 506 408 493 415 l 553 408 q 578 332 570 408 l 608 328 l 637 328 q 654 306 654 319 l 650 276 q 667 251 659 251 l 701 251 q 740 234 734 251 l 740 195 q 770 157 740 157 l 804 157 q 821 140 810 157 l 821 30 q 791 0 821 0 l 680 0 q 650 38 650 0 l 650 144 q 637 157 650 151 l 544 157 q 493 187 493 157 l 493 289 q 476 328 493 317 q 433 319 444 323 l 404 328 q 332 306 336 317 q 336 157 336 206 l 336 106 q 311 0 336 0 l 195 0 q 165 17 173 0 l 165 136 q 200 149 168 149 l 230 149 q 242 161 236 149 l 242 212 q 230 225 242 218 l 204 225 q 165 242 172 225 l 165 357 q 183 374 165 363 l 298 374 q 323 399 323 374 l 323 438 q 294 455 316 455 l 178 455 q 165 468 172 455 l 165 633 q 153 667 165 665 l 127 667 q 85 689 94 667 l 85 731 q 136 761 85 761 l 153 761 q 165 795 165 764 l 165 956 q 183 974 165 963 l 306 974 q 336 918 336 974 l 336 659 q 349 646 336 653 l 378 646 q 404 689 404 646 q 425 735 404 728 l 459 735 q 493 765 493 735 q 523 817 493 817 q 574 838 574 817 l 574 880 q 650 901 574 895 q 654 905 650 905 l 650 948 q 667 974 650 965 l 697 974 l 821 970 m 111 918 q 140 901 134 918 l 140 854 q 102 838 134 838 l 85 838 q 60 850 63 838 q 90 918 60 918 l 111 918 m 38 455 l 123 455 q 165 416 165 455 q 136 374 165 374 l 17 374 l 0 387 l 4 408 l 4 442 q 38 455 7 455 m 102 225 l 149 225 q 165 178 165 221 q 149 144 165 144 l 123 149 l 98 144 l 85 161 l 85 208 q 102 225 85 215 z "},"L":{"ha":707,"x_min":-47,"x_max":812,"o":"m 170 974 l 305 974 q 323 957 312 974 l 323 468 q 365 442 323 442 q 404 404 404 442 l 404 399 q 378 353 404 361 q 352 357 374 353 q 323 340 323 351 l 323 183 q 357 157 323 157 l 795 157 q 812 119 812 152 l 812 43 q 790 0 812 9 l 174 0 q 157 17 167 0 l 157 21 q 195 43 157 29 q 199 60 199 50 l 199 85 q 161 119 199 114 q 153 144 153 133 l 153 633 q 174 668 153 656 l 203 668 q 233 697 233 668 l 233 723 q 208 749 233 749 l 170 749 q 153 779 153 755 l 153 944 q 170 974 153 967 m 106 749 l 123 749 q 153 732 146 749 l 153 697 q 114 668 153 668 q 76 685 81 668 l 76 732 q 106 749 83 749 m 46 498 l 89 498 q 106 481 95 498 l 106 438 q 89 421 106 431 l 46 421 q 29 438 39 421 l 29 481 q 46 498 29 487 m -31 272 l 89 272 q 119 242 119 272 l 119 221 q 67 191 119 191 l 3 191 q -47 217 -47 191 q -31 272 -44 272 m 136 111 q 157 47 153 111 l 144 38 l 131 38 q 119 51 125 38 l 119 81 q 136 111 119 104 z "},"M":{"ha":947,"x_min":-81,"x_max":947,"o":"m 151 970 l 275 970 q 292 953 281 970 l 292 919 q 325 894 292 894 q 372 860 372 894 l 372 826 q 385 813 372 820 l 439 813 q 452 800 446 813 l 452 661 q 477 644 452 652 q 588 652 534 652 l 609 652 q 622 699 622 652 l 622 796 q 651 813 629 813 l 685 813 q 698 826 691 813 l 698 860 q 762 894 698 894 q 779 919 779 894 l 779 953 q 795 970 779 960 l 930 970 q 947 940 947 963 l 947 38 q 918 0 947 0 l 808 0 q 779 17 785 0 l 779 334 q 817 351 784 351 l 846 351 q 859 377 859 356 l 859 381 q 846 428 859 428 l 817 428 q 779 445 784 428 l 779 618 q 753 644 779 644 l 723 644 q 698 602 698 644 q 660 564 698 564 l 630 564 q 613 491 620 564 q 575 449 575 491 q 545 406 575 406 l 511 406 q 494 436 494 414 l 494 474 l 452 500 l 452 530 q 439 564 452 561 l 410 564 q 372 606 372 564 q 347 644 372 644 l 317 644 q 292 618 292 644 l 292 17 q 262 0 284 0 l 164 0 q 134 30 134 0 l 134 389 q 130 496 134 425 l 164 517 q 168 534 168 524 l 168 564 q 134 597 168 585 l 134 775 q 96 792 129 792 l 71 792 q 54 830 54 798 q 71 868 54 863 l 101 868 q 134 911 134 868 l 134 953 q 151 970 134 960 m -18 686 q 41 669 41 686 q 45 640 45 652 q 3 597 45 597 q -35 627 -35 597 l -35 669 q -18 686 -35 675 m 105 585 l 122 585 q 134 559 134 581 l 134 538 q 117 508 134 515 q 88 547 88 508 q 105 585 88 578 m 715 428 l 762 428 q 779 398 779 421 l 779 381 q 762 351 779 358 l 715 351 q 698 381 698 358 l 698 398 q 715 428 698 421 m -39 216 l 50 216 q 88 199 82 216 l 88 153 q 58 136 81 136 l -52 136 q -81 174 -81 136 q -39 216 -81 216 z "},"N":{"ha":945,"x_min":-54,"x_max":947,"o":"m 801 972 l 918 972 q 947 955 940 972 l 947 21 q 926 0 947 17 q 863 4 884 4 l 797 4 q 784 17 791 4 l 784 37 q 822 62 822 58 l 822 66 q 784 138 822 126 q 768 171 779 171 l 655 171 q 621 246 621 171 l 592 250 l 555 250 q 542 262 549 250 l 542 275 q 547 279 542 279 q 530 326 537 326 l 496 326 q 458 351 458 326 l 463 371 q 429 417 463 417 l 396 417 q 380 467 380 417 l 380 484 q 371 492 380 492 l 317 492 q 304 479 311 492 l 304 42 q 275 4 304 4 l 167 4 q 138 21 144 4 l 138 522 q 155 538 138 528 l 283 538 q 304 572 304 549 l 304 588 q 275 617 304 617 l 150 617 q 138 642 138 621 l 138 943 q 155 960 138 949 l 288 960 q 304 922 304 954 l 304 671 q 317 659 304 665 l 326 659 q 375 655 354 659 q 425 659 397 659 q 458 613 458 659 q 484 572 458 572 l 530 572 q 547 555 536 572 l 547 522 q 576 492 547 492 l 609 492 q 625 475 615 492 l 625 429 q 638 417 625 424 l 663 417 q 705 376 705 417 l 705 351 q 730 338 709 338 l 768 338 q 780 351 773 338 l 780 709 q 830 751 780 751 q 859 763 859 751 l 859 813 q 846 826 859 819 l 817 826 q 780 867 780 826 l 780 930 q 801 972 780 962 m 37 884 q 75 855 79 884 l 79 834 q 50 805 79 805 l 21 805 q -8 834 -8 805 l -8 851 q 37 884 -8 884 m 722 826 l 755 826 q 780 813 780 823 l 780 763 q 768 751 780 758 l 722 751 q 705 768 715 751 l 705 809 q 722 826 705 816 m 21 617 l 87 617 q 138 588 138 617 l 138 576 q 109 538 138 538 l 0 538 q -21 576 -21 549 q 21 617 -21 617 m -33 204 l 79 204 q 113 171 113 204 l 113 134 q 96 117 113 127 l -25 117 q -54 163 -54 117 q -33 204 -48 204 m 755 125 l 768 125 q 780 113 773 125 l 780 62 q 755 50 776 50 q 739 66 749 50 l 739 109 q 755 125 739 115 z "},"O":{"ha":955,"x_min":-54,"x_max":956,"o":"m 340 972 l 782 972 q 799 955 789 972 l 799 921 q 833 895 799 895 q 880 861 880 895 l 880 827 q 892 814 880 821 l 926 814 q 956 798 949 814 l 956 174 q 918 157 950 157 l 892 157 q 880 144 886 157 l 880 111 q 816 77 880 77 q 799 47 799 69 l 799 17 q 769 0 792 0 l 332 0 q 307 64 313 0 q 269 81 296 81 l 239 81 q 217 157 222 81 l 183 157 q 145 174 151 157 l 145 471 q 183 488 151 488 l 209 488 q 222 500 215 488 l 222 551 q 209 564 222 557 l 183 564 q 145 581 151 564 l 145 798 q 175 814 152 814 l 209 814 q 222 827 215 814 l 222 861 q 277 895 222 895 l 294 895 q 319 968 303 897 l 340 972 m 315 713 l 315 259 q 357 237 315 252 l 366 242 l 378 242 q 391 229 385 242 l 391 186 q 421 157 391 157 l 680 157 q 709 186 709 157 l 709 220 q 790 242 709 237 q 799 267 799 256 l 799 399 q 833 441 799 420 l 833 496 q 799 543 799 517 q 786 564 799 564 l 748 564 q 709 594 709 564 l 709 637 q 726 654 709 643 l 748 649 q 799 666 799 654 l 799 701 q 765 726 799 726 l 726 726 q 709 743 720 726 l 709 789 q 684 814 709 814 l 523 814 q 391 793 391 814 q 349 726 391 726 q 315 713 317 726 m -37 814 l 77 814 q 111 772 111 814 q 77 734 109 734 l -12 734 q -50 777 -50 734 l -54 802 l -37 814 m 81 564 l 128 564 q 145 526 140 564 q 128 488 140 488 l 81 488 q 64 505 75 488 l 64 547 q 81 564 64 554 m 777 509 q 799 492 797 501 l 799 446 q 786 433 799 439 l 769 433 q 756 446 763 433 l 756 492 q 777 509 758 501 m 604 408 l 714 408 q 743 378 743 408 q 701 327 743 327 l 612 327 q 574 357 574 327 l 574 391 q 604 408 581 408 m 43 348 q 64 318 64 342 l 64 293 q 18 259 64 259 q -16 293 -16 262 l -16 310 q 9 344 -16 344 q 43 348 33 348 z "},"P":{"ha":880,"x_min":-14,"x_max":956,"o":"m 770 970 q 800 915 800 970 l 812 894 l 842 898 l 863 898 q 880 847 880 898 l 880 821 q 888 813 882 813 l 905 813 q 956 783 956 813 l 956 677 q 922 644 956 644 l 888 644 q 880 635 880 642 l 880 614 q 850 564 880 564 q 791 538 791 564 q 753 483 791 483 q 711 466 711 483 l 711 445 q 681 394 711 394 q 630 373 630 394 q 600 326 630 326 l 338 326 q 313 292 313 326 l 313 38 q 296 0 313 5 l 173 0 q 143 51 143 0 l 143 317 q 177 373 143 373 q 194 368 186 373 q 253 373 230 373 l 292 373 q 304 398 304 377 l 304 423 q 292 449 304 446 l 185 449 q 143 500 143 449 l 143 826 q 84 860 143 860 q 75 898 75 880 q 118 936 75 936 q 164 970 139 936 l 770 970 m 313 783 l 313 690 q 300 677 313 684 l 270 677 q 236 665 239 677 l 236 606 q 270 593 239 593 l 300 593 q 313 568 313 589 l 313 513 q 342 483 313 483 l 511 483 q 550 525 550 483 q 622 568 550 568 q 630 593 630 581 l 630 623 q 673 644 640 644 l 779 644 q 795 694 785 644 l 817 699 l 863 699 q 880 737 880 705 l 880 745 q 867 779 880 777 l 825 779 q 779 809 795 779 q 741 813 755 813 l 351 813 q 313 783 313 813 m 728 787 l 753 787 q 787 775 784 787 l 787 715 q 770 699 787 709 l 728 699 q 711 715 721 699 l 711 771 q 728 787 711 777 m 359 677 q 393 656 381 677 l 393 614 q 380 589 393 592 l 321 589 q 309 602 315 589 l 309 606 q 313 627 309 620 l 309 652 l 309 656 q 359 677 309 675 m 3 449 l 130 449 q 143 436 136 449 l 143 385 q 130 373 143 379 l 3 373 q -14 402 -14 380 l -14 419 q 3 449 -14 442 m 50 245 l 92 245 q 109 229 99 245 l 109 186 q 67 165 98 165 q 33 195 33 165 l 33 229 q 50 245 33 235 z "},"Q":{"ha":1003,"x_min":-88,"x_max":1003,"o":"m 334 970 l 706 970 q 760 932 760 970 q 764 890 760 905 l 785 890 q 852 807 852 890 q 928 769 928 807 l 928 180 q 940 168 928 174 l 965 168 q 1003 151 997 168 l 1003 17 q 986 0 1003 10 l 865 0 q 836 54 836 0 q 827 75 836 75 l 773 75 q 760 62 767 75 l 760 29 q 744 0 760 7 l 296 0 q 279 29 279 7 l 279 62 q 267 75 279 68 l 242 75 q 204 92 210 75 l 204 113 q 167 168 204 168 q 125 184 125 168 l 125 606 q 200 627 125 623 l 204 669 q 175 703 204 703 l 142 703 q 125 719 135 703 l 125 782 q 167 802 134 802 l 192 802 q 204 848 204 802 l 204 873 q 234 890 211 890 l 267 890 q 279 903 273 890 l 279 937 q 334 970 279 970 m 279 694 l 279 272 q 309 243 279 243 l 351 243 q 376 168 363 243 l 669 168 q 681 180 675 168 l 681 230 q 669 243 681 236 l 644 243 q 610 255 612 243 l 610 267 q 618 276 611 276 l 648 276 q 681 305 681 276 l 681 334 q 648 368 681 361 l 627 363 l 614 363 q 606 372 606 363 l 606 385 q 656 401 606 401 l 748 401 q 760 427 760 406 l 760 531 q 748 543 760 537 l 723 543 q 681 577 681 543 l 681 585 q 723 623 681 623 q 760 648 760 623 l 760 698 q 719 723 760 723 q 681 765 681 723 q 656 802 681 802 l 393 802 q 359 773 359 802 q 330 723 359 723 q 279 694 279 723 m 87 703 q 125 673 125 703 l 125 652 q 109 623 125 629 l 75 623 q 45 661 45 623 l 45 669 q 87 703 45 703 m 547 564 q 597 535 597 564 q 602 506 597 522 q 555 477 602 482 q 514 510 514 477 l 514 527 q 547 564 514 564 m -21 502 l 16 497 l 41 502 q 71 452 71 502 q 29 410 71 410 l -46 410 q -88 443 -88 410 l -88 460 q -34 502 -88 502 l -21 502 m 551 368 q 602 351 602 361 l 602 292 q 564 276 596 276 q 526 305 526 276 l 526 338 q 551 368 526 368 m 20 322 l 50 322 q 79 305 73 322 l 79 272 q 41 243 79 243 q 4 259 9 243 l 4 305 q 20 322 4 312 z "},"R":{"ha":962,"x_min":-122,"x_max":964,"o":"m 167 972 l 786 972 l 799 963 l 795 934 l 795 925 q 871 891 795 891 q 888 819 884 891 l 909 814 l 947 814 q 964 785 964 808 l 964 679 q 930 645 964 645 l 897 645 q 884 620 884 641 l 884 586 q 867 569 884 579 l 837 569 q 795 547 804 569 l 795 517 q 727 484 795 484 q 714 463 717 463 q 718 450 718 454 q 697 403 718 412 l 663 403 q 633 365 633 403 q 659 331 633 331 l 688 327 q 761 331 733 331 q 795 271 795 331 q 837 237 795 237 l 867 237 q 884 220 873 237 l 884 186 q 897 161 886 161 l 922 161 q 964 127 964 161 l 964 34 q 922 0 964 0 l 846 0 q 795 30 795 0 q 735 51 795 48 q 718 115 727 60 q 756 127 734 127 l 782 127 q 795 140 785 127 q 765 161 789 161 l 663 161 q 637 174 641 161 l 637 191 q 625 237 637 237 l 608 237 q 557 267 557 237 q 536 323 557 323 q 447 327 502 323 q 307 301 307 322 l 307 30 q 269 0 307 0 l 201 0 q 149 30 149 0 l 149 119 q 167 136 149 125 l 201 136 q 230 174 230 136 l 230 186 q 213 216 230 210 l 167 216 q 149 233 160 216 l 149 547 q 128 577 149 571 q 81 573 99 573 q 64 607 64 578 q 98 658 64 658 l 137 658 q 149 683 149 662 l 149 831 q 167 849 149 838 l 281 849 q 307 861 303 849 l 307 917 q 281 929 302 929 l 167 929 q 149 946 160 929 l 149 955 q 167 972 149 962 m 22 929 l 120 929 q 149 900 149 929 l 149 878 q 120 849 149 849 l 22 849 q -7 866 -1 849 l -7 912 q 22 929 -1 929 m 307 777 l 307 513 q 332 488 307 488 l 540 488 q 561 560 557 488 q 633 586 633 570 q 667 645 633 645 q 714 679 714 645 q 744 734 714 734 q 795 764 795 734 l 795 789 q 782 814 795 811 l 336 814 q 307 777 307 814 m -3 467 q 35 437 35 467 l 35 403 q 18 386 35 397 l -24 386 q -54 416 -54 386 l -54 446 q -3 467 -54 464 m -71 331 l -3 331 q 35 301 35 331 l 35 267 q 18 250 35 260 l -92 250 q -122 280 -122 250 l -122 301 q -71 331 -122 331 m 98 216 l 120 216 q 149 186 149 216 l 149 165 q 111 136 149 136 q 69 170 69 136 l 69 178 q 98 216 69 216 z "},"S":{"ha":881,"x_min":-81,"x_max":880,"o":"m 237 974 l 697 974 q 718 901 707 974 q 795 867 795 901 l 795 863 l 791 833 q 871 812 791 815 q 880 787 880 798 l 880 663 q 842 646 874 646 l 744 646 q 709 689 709 646 l 709 714 q 697 727 709 720 l 650 727 q 633 744 644 727 l 633 783 q 604 817 633 817 l 331 817 q 271 812 308 817 q 237 817 267 817 l 224 800 l 224 740 q 237 727 224 734 l 280 727 q 314 697 314 723 q 306 668 314 689 q 344 646 306 646 l 535 646 q 552 616 552 640 l 552 583 q 625 562 552 572 q 633 528 633 546 l 633 502 q 646 489 633 496 l 680 489 q 709 472 703 489 l 709 438 q 786 404 709 404 q 803 357 803 404 l 803 332 q 812 323 804 323 q 867 328 814 323 l 880 311 l 880 178 q 863 161 880 172 l 829 161 q 803 149 803 159 l 803 132 q 773 73 803 73 q 739 77 750 77 q 705 9 705 77 q 671 0 690 0 l 263 0 q 224 17 231 0 l 224 47 q 203 81 224 70 l 174 81 q 140 157 140 81 l 110 161 l 80 161 q 67 174 74 161 l 67 191 l 106 221 q 110 260 106 256 q 72 294 110 278 l 72 306 q 186 328 72 321 l 208 328 q 224 289 224 321 l 224 251 q 259 238 227 238 l 297 238 l 314 221 l 310 200 l 310 174 q 323 161 310 168 l 608 161 q 633 195 633 161 l 633 221 q 650 238 633 228 l 675 238 q 709 264 709 238 l 709 306 q 697 319 709 313 l 582 319 q 548 395 548 319 l 518 399 l 488 399 q 471 438 471 406 l 471 472 q 441 489 465 489 l 242 489 q 224 506 235 489 l 224 540 q 186 570 224 570 l 161 570 q 144 600 144 576 l 144 633 q 132 646 144 640 l 97 646 q 59 689 63 646 l 67 693 l 119 693 q 132 706 125 693 l 132 761 q 72 779 132 772 l 67 787 l 67 804 q 140 821 67 817 q 174 897 140 897 l 212 897 q 229 970 224 897 l 237 974 m 8 774 q 63 757 63 771 l 63 702 q 55 693 63 693 l 3 693 q -26 723 -26 693 l -26 740 q 8 774 -24 774 m -52 557 l 46 557 q 76 528 76 557 l 76 506 q 38 476 76 476 l -43 476 q -81 506 -81 476 l -81 540 q -52 557 -75 557 m 50 285 l 63 268 l 63 221 q 42 204 54 204 q 20 221 22 212 l 20 268 q 50 285 28 285 m -31 170 l 12 170 q 29 153 19 170 l 29 102 q 16 90 29 96 l -18 90 q -47 119 -47 90 l -47 153 q -31 170 -47 160 z "},"T":{"ha":698,"x_min":-115,"x_max":781,"o":"m 159 972 l 739 972 q 781 938 781 972 l 781 875 q 747 811 781 811 l 464 811 q 451 765 451 811 l 451 17 q 413 0 446 0 l 324 0 q 286 17 292 0 l 286 224 q 299 237 286 230 l 345 237 q 375 254 368 237 l 375 292 q 349 317 375 317 l 294 317 q 286 326 286 317 l 286 617 q 256 667 286 667 l 222 667 q 206 684 216 667 l 206 727 q 222 744 206 733 l 256 744 q 286 777 286 744 q 273 811 283 811 l 7 811 q -26 824 -24 811 l -26 832 q -14 845 -26 838 l 16 845 q 50 892 50 845 q -22 938 50 938 l -26 947 l -26 955 l -18 968 q 159 972 94 972 m -94 934 l -43 934 q -31 909 -31 930 l -31 875 q -60 845 -31 845 l -77 845 q -115 909 -115 845 q -94 934 -109 926 m 113 532 l 163 532 q 214 503 214 532 q 218 490 214 498 q 197 452 218 464 l 87 452 q 58 490 58 452 l 58 498 q 113 532 58 532 m 235 317 l 277 317 q 290 309 280 317 l 286 288 l 286 254 q 248 237 281 237 q 214 254 214 237 q 235 317 214 317 m 168 169 l 210 169 q 227 152 216 169 l 227 106 q 206 89 218 89 q 151 106 151 91 l 151 152 q 168 169 151 159 z "},"U":{"ha":945,"x_min":-88,"x_max":945,"o":"m 210 970 q 298 932 298 970 l 298 260 q 311 248 298 254 l 349 248 q 378 205 378 248 q 420 168 378 168 l 470 159 l 525 159 q 550 239 530 159 q 575 248 564 248 l 609 248 q 621 273 621 252 l 621 307 q 638 323 621 313 l 688 323 q 701 357 701 326 l 701 387 q 718 403 701 393 l 751 403 q 777 416 773 403 l 777 550 q 743 563 774 563 l 718 563 q 701 579 711 563 l 701 621 q 718 638 701 628 l 751 638 q 777 651 773 638 l 777 924 q 827 966 777 966 q 852 970 846 966 q 907 962 907 966 l 916 966 q 945 949 945 960 l 945 17 q 907 0 939 0 l 819 0 q 781 17 787 0 l 781 38 q 789 46 782 46 l 844 46 q 869 80 869 46 l 869 96 q 840 126 869 126 l 793 126 q 751 159 770 159 l 655 159 q 621 134 621 159 l 621 21 q 579 0 612 0 l 336 0 q 298 17 304 0 l 298 46 q 269 80 298 80 q 218 109 218 80 q 205 155 218 155 q 184 159 199 159 l 155 159 q 138 218 138 159 l 138 222 q 163 281 138 281 l 205 281 q 218 294 212 281 l 218 336 q 184 361 218 361 l 155 361 q 138 412 138 361 l 138 911 q 168 962 138 962 l 210 970 m 646 873 l 692 873 q 709 857 699 873 l 709 823 q 697 798 709 801 l 646 798 q 634 823 634 802 l 634 861 q 646 873 634 867 m -50 718 l 42 718 q 71 701 64 718 l 71 655 q 42 638 64 638 l -59 638 q -88 655 -81 638 q -84 671 -84 669 l -88 697 q -50 718 -88 718 m 75 550 q 105 516 105 542 l 105 491 q 88 462 105 469 l 34 462 q 17 491 17 469 l 17 512 q 75 550 17 550 m 109 361 q 138 345 138 355 l 138 294 q 126 281 138 288 l 75 281 q 63 294 70 281 l 63 332 q 109 361 63 361 m 739 126 l 755 126 q 781 113 781 123 l 781 109 q 777 88 781 95 l 781 63 l 781 54 q 772 46 781 46 l 718 46 q 701 63 711 46 l 701 109 q 739 126 707 126 z "},"V":{"ha":889,"x_min":-142,"x_max":889,"o":"m 91 972 l 218 972 q 231 946 231 968 l 231 437 q 248 399 231 405 l 282 399 q 324 348 324 399 q 337 318 324 318 l 371 318 q 401 301 394 318 l 401 186 q 414 161 404 161 l 549 161 q 562 208 562 161 l 562 301 q 579 318 562 308 l 609 318 q 638 374 638 318 q 711 403 638 398 q 724 488 718 415 q 795 505 746 499 l 795 564 q 783 577 795 570 l 758 577 q 719 607 719 577 l 719 654 q 707 679 719 675 l 672 679 q 638 713 638 679 l 638 722 q 668 760 638 760 l 707 760 q 719 785 719 764 l 719 955 q 736 972 719 962 l 872 972 q 889 942 889 965 l 889 361 q 838 318 889 318 q 808 284 808 318 q 766 237 808 237 l 736 237 q 719 220 730 237 l 719 191 q 655 157 719 157 q 643 144 649 157 l 643 115 q 621 72 643 81 l 575 72 q 553 0 561 72 l 444 0 q 397 34 397 4 l 401 60 q 320 85 401 68 l 312 98 l 312 144 q 282 161 304 161 l 248 161 q 231 191 231 168 l 231 225 q 218 237 231 231 l 193 237 q 155 254 160 237 l 155 280 q 138 318 155 313 l 91 318 q 74 348 74 325 l 74 764 q 91 781 74 770 l 125 781 q 155 819 155 781 l 155 823 q 138 861 155 856 l 91 861 q 74 878 84 861 l 74 955 q 91 972 74 962 m 23 861 l 44 861 q 74 831 74 861 l 74 810 q 36 781 74 781 l 32 781 q -11 802 -1 781 q 23 861 -11 861 m -113 658 l -2 658 q 27 637 27 658 q -7 577 27 577 l -130 577 q -142 603 -142 581 l -142 620 q -113 658 -142 658 m 655 577 l 702 577 q 719 547 719 570 l 719 522 q 707 496 719 500 q 638 522 638 496 l 638 547 q 655 577 638 570 m 549 475 l 566 475 q 604 458 599 475 l 604 403 q 587 386 604 397 l 553 386 q 519 408 533 386 l 524 429 l 519 454 q 549 475 526 475 m 87 297 q 121 254 121 297 q 100 216 121 228 l 70 216 q 40 246 40 216 l 40 267 q 87 297 40 297 z "},"W":{"ha":1188,"x_min":-41,"x_max":1190,"o":"m 85 975 q 165 975 100 975 l 212 975 q 228 958 218 975 l 228 597 q 270 571 228 571 q 308 534 308 571 l 308 504 q 317 496 309 496 l 333 496 q 384 479 384 496 l 384 197 q 413 168 384 168 l 518 168 q 543 193 543 168 l 543 298 q 598 328 543 328 l 619 328 q 631 340 625 328 l 631 378 q 619 404 631 400 l 581 404 q 543 420 549 404 l 543 467 q 572 483 550 483 l 690 483 q 711 441 711 473 l 711 214 q 690 159 711 166 l 577 159 q 543 117 543 159 l 543 88 q 547 42 543 71 q 501 0 547 0 l 426 0 q 384 42 384 0 l 384 67 q 371 80 384 73 l 325 80 q 308 96 318 80 l 308 130 q 266 168 308 168 q 228 197 228 168 l 228 391 q 216 404 228 397 l 178 404 q 140 420 146 404 l 140 471 q 127 483 140 477 l 90 483 q 60 513 60 483 l 60 588 q 90 618 60 618 l 127 618 q 140 651 140 620 l 140 668 q 102 697 140 697 l 77 697 q 60 714 71 697 l 60 932 q 85 975 63 975 m 1131 966 q 1190 941 1190 966 l 1190 500 q 1173 483 1190 493 l 1127 483 q 1106 412 1116 483 q 1073 404 1090 404 l 1035 404 q 1022 370 1022 401 l 1022 176 l 1010 159 l 980 164 q 947 147 947 156 l 947 122 q 926 80 947 90 l 880 80 q 867 67 873 80 l 867 21 q 825 0 857 0 l 749 0 q 703 55 703 0 l 703 92 q 749 159 703 159 l 774 164 q 817 159 796 159 q 867 180 867 164 l 867 189 q 854 201 867 195 l 829 201 q 787 243 787 201 q 829 281 787 281 q 867 307 867 281 l 867 454 q 896 483 867 483 l 926 483 q 947 525 947 492 l 947 555 q 1018 576 947 571 l 1022 584 l 1022 773 q 997 785 1018 785 l 963 785 q 947 802 957 785 l 947 857 q 963 873 947 863 l 1014 873 q 1022 882 1022 873 l 1022 932 q 1085 966 1022 966 l 1131 966 m 909 718 l 926 718 q 955 701 948 718 l 955 655 q 917 639 949 639 l 909 639 q 880 655 886 639 l 880 701 q 909 718 886 718 m 22 697 q 60 668 60 697 l 60 634 q 43 618 60 628 l 1 618 q -20 660 -20 628 q 22 697 -20 697 m -24 471 l 22 471 q 39 433 39 465 q 22 395 39 401 l -24 395 q -41 412 -31 395 l -41 441 q -24 471 -41 464 m 480 404 l 526 404 q 543 366 543 397 q 526 328 539 328 l 480 328 q 463 345 473 328 l 463 374 q 480 404 463 397 m 31 302 l 165 302 q 182 239 182 302 q 136 222 168 226 l 77 227 q 22 222 75 227 q 14 264 14 242 q 31 302 18 302 z "},"X":{"ha":889,"x_min":0,"x_max":897,"o":"m 109 972 l 231 972 q 247 955 237 972 l 247 922 q 281 897 247 897 q 335 876 335 892 l 335 867 q 331 850 335 858 q 360 804 331 804 l 398 804 q 414 775 414 798 l 414 662 q 427 649 414 656 l 541 649 q 570 679 570 649 l 570 775 q 587 804 570 798 l 616 804 q 649 867 649 804 q 725 901 649 901 q 745 972 725 972 l 854 972 q 884 934 884 972 l 884 846 q 871 812 884 815 q 829 817 866 812 q 812 800 817 814 l 817 779 q 800 729 812 729 l 762 729 q 725 691 725 729 l 725 666 q 708 649 725 659 l 674 649 q 649 637 649 647 l 649 595 q 616 562 649 562 l 574 562 l 570 541 l 570 440 q 608 410 570 410 l 629 414 q 649 377 649 414 l 649 339 q 662 327 649 333 l 687 327 q 725 310 719 327 l 725 281 q 754 247 725 247 q 812 231 812 247 q 817 210 817 223 l 817 172 q 833 159 817 165 l 859 163 q 891 8 897 163 l 850 0 l 766 0 q 725 50 725 0 q 654 92 725 92 l 649 100 l 649 130 q 608 168 649 168 q 570 201 570 168 l 570 302 q 536 327 570 327 l 444 327 q 402 289 402 327 l 402 176 q 339 159 402 162 q 323 121 323 149 l 323 96 q 306 79 323 90 l 260 79 q 247 67 254 79 l 247 33 q 205 0 247 0 l 142 0 q 96 13 96 0 l 96 25 q 104 33 98 33 l 134 33 q 168 58 168 33 l 168 100 q 155 113 168 106 l 100 113 q 88 125 94 113 l 88 130 q 142 159 88 159 q 168 176 161 159 l 168 210 q 210 247 168 247 q 247 272 247 247 q 277 327 247 327 l 314 327 q 331 398 324 327 q 406 414 406 402 l 406 435 q 381 448 402 448 l 343 448 q 327 465 337 448 l 327 511 q 377 528 327 528 l 398 528 q 410 541 404 528 l 410 553 q 381 570 404 570 q 339 566 376 570 q 314 691 327 566 q 256 708 314 704 q 201 729 249 729 l 184 729 q 168 758 168 736 l 168 791 q 155 804 168 798 l 121 804 q 92 821 99 804 l 92 955 q 109 972 92 962 m 50 771 l 96 771 q 113 741 113 764 l 113 725 q 96 695 113 702 l 50 695 q 33 733 33 701 l 33 741 q 50 771 33 764 m 163 704 l 231 704 q 238 633 243 704 l 163 629 q 146 645 157 629 l 146 687 q 163 704 146 694 m 205 427 q 247 394 247 427 l 247 377 q 189 343 247 343 q 168 381 168 343 l 168 394 q 205 427 168 427 m 29 113 l 58 113 q 88 84 88 113 l 88 50 q 50 33 82 33 l 42 33 q 0 67 0 33 l 0 75 q 29 113 0 113 z "},"Y":{"ha":723,"x_min":-224,"x_max":761,"o":"m -41 972 l 90 972 q 103 946 103 968 l 103 764 q 137 739 103 739 q 184 718 174 739 l 184 671 q 226 645 184 645 q 264 603 264 645 l 264 513 q 290 488 264 488 l 408 488 q 434 522 434 488 l 434 628 q 451 645 434 635 l 485 645 q 511 658 507 645 l 511 688 q 540 726 511 726 l 578 726 q 591 751 591 730 l 591 823 q 629 840 597 840 l 671 840 q 680 849 680 840 l 680 900 q 663 917 680 906 l 629 917 q 595 929 598 917 l 595 951 q 616 972 595 956 l 744 972 q 761 942 761 965 l 761 683 q 722 645 761 645 l 693 645 q 680 620 680 641 l 680 586 q 663 569 680 579 l 637 569 q 600 530 600 569 l 600 505 q 583 488 600 498 l 545 488 q 511 454 511 488 l 511 416 q 498 403 511 410 l 464 403 q 434 386 441 403 l 434 178 q 451 161 434 172 q 485 165 474 165 q 511 144 503 159 l 511 98 q 481 81 503 81 l 447 81 q 425 9 435 81 q 391 0 410 0 l 302 0 q 264 17 270 0 l 264 259 q 277 271 264 265 l 319 271 q 353 306 353 271 l 353 327 q 328 352 353 352 l 281 352 q 256 399 269 352 l 248 403 l 218 399 q 184 446 184 399 q 158 488 184 488 q 103 517 103 488 l 103 556 q 69 569 100 569 l 43 569 q 26 586 37 569 l 26 611 q -3 645 26 645 q -62 671 -62 645 q -96 713 -62 713 q -135 755 -135 713 l -135 760 q -83 802 -135 802 l -60 814 l -58 912 l -62 942 q -41 972 -52 969 m -194 951 l -169 951 q -135 925 -145 951 l -139 904 q -135 887 -139 895 q -156 861 -140 869 l -207 861 q -224 891 -224 868 l -224 921 q -194 951 -224 951 m 540 917 l 578 917 q 600 874 591 917 q 587 840 595 840 l 528 840 q 511 887 511 844 q 540 917 511 917 m 214 352 l 235 352 q 264 306 264 352 q 222 271 264 271 q 184 301 184 271 l 184 323 q 214 352 184 352 m 145 216 l 175 216 q 197 182 197 205 q 150 136 197 136 l 145 136 q 116 165 116 136 l 116 186 q 145 216 116 216 z "},"Z":{"ha":906,"x_min":-102,"x_max":985,"o":"m 119 972 l 896 972 q 913 955 900 972 q 908 883 908 905 l 908 831 q 955 806 908 823 l 959 798 l 959 747 q 853 726 951 726 l 844 726 q 815 649 840 726 l 793 645 l 760 645 q 747 632 753 645 l 747 607 q 730 569 747 574 l 696 569 q 667 551 673 569 l 667 517 q 650 488 667 495 l 620 488 q 586 433 586 488 l 586 416 q 569 399 586 409 l 543 399 q 509 386 512 399 l 509 357 q 467 318 509 318 q 429 310 429 318 q 399 237 429 237 l 353 237 q 340 225 347 237 l 340 174 q 353 161 340 168 l 467 161 l 496 212 q 509 216 505 216 q 569 165 569 216 l 577 161 l 874 161 q 913 136 913 161 q 900 127 902 127 l 853 127 q 823 89 823 127 l 823 81 q 836 47 823 50 l 879 47 q 913 26 902 47 l 913 17 q 874 0 907 0 l 115 0 q 102 13 109 0 l 102 77 q 73 94 95 94 l 39 94 q 21 123 21 100 l 21 144 q 51 182 21 182 q 94 178 73 178 q 119 237 106 237 q 182 271 182 237 l 182 314 q 221 331 189 331 l 233 331 q 238 327 238 331 q 263 399 263 327 l 276 408 l 310 408 q 340 437 340 408 l 340 471 q 370 488 347 488 l 404 488 q 425 560 414 488 q 471 569 441 569 l 488 569 q 501 581 494 569 q 496 615 496 612 q 577 649 496 649 q 594 730 584 659 q 667 747 667 734 l 667 802 q 654 814 667 808 l 391 814 q 353 777 366 814 l 344 772 l 297 772 q 276 814 288 772 l 132 814 q 102 844 102 814 q 132 861 109 861 l 178 861 q 191 874 184 861 l 191 917 q 157 942 191 942 l 123 942 q 111 955 117 942 l 111 963 q 119 972 112 972 m 43 938 l 85 938 q 102 908 102 931 l 102 891 q 85 861 102 868 l 51 861 q 30 921 34 861 q 43 938 36 938 m 289 713 l 310 713 q 327 696 317 713 l 327 641 q 310 624 327 634 l 267 624 q 250 641 261 624 l 250 696 q 289 713 256 713 m -72 386 l -34 386 l -17 374 q -21 361 -17 369 q -17 314 -17 332 q -51 306 -33 306 l -64 306 q -102 335 -102 306 l -102 369 q -72 386 -95 386 m 951 127 q 985 85 985 127 l 985 77 q 947 34 985 34 q 908 68 908 36 l 913 89 q 908 102 908 98 q 951 127 908 124 z "},"[":{"ha":514,"x_min":0,"x_max":0,"o":""},"\\":{"ha":386,"x_min":0,"x_max":0,"o":""},"]":{"ha":514,"x_min":0,"x_max":0,"o":""},"^":{"ha":688,"x_min":0,"x_max":0,"o":""},"_":{"ha":694,"x_min":0,"x_max":0,"o":""},"`":{"ha":694,"x_min":0,"x_max":0,"o":""},"a":{"ha":893,"x_min":-172,"x_max":897,"o":"m 432 972 l 542 972 q 572 934 572 972 l 572 904 q 644 887 572 891 q 656 824 652 876 q 724 807 656 814 q 745 735 738 735 l 800 735 q 817 718 806 735 l 817 680 q 829 646 817 649 l 846 646 q 897 616 897 646 l 897 16 l 884 0 q 850 4 874 0 q 749 0 799 0 q 728 33 728 10 l 728 118 q 770 160 728 160 l 804 160 q 817 173 810 160 l 817 211 q 779 241 817 241 l 745 241 q 728 270 728 248 l 728 308 q 720 317 728 317 l 255 317 q 242 270 242 317 l 242 12 q 229 0 242 6 l 191 0 q 90 16 90 0 q 85 33 85 24 l 85 334 q 115 363 85 363 l 229 363 q 246 406 243 363 q 217 444 246 444 l 102 444 q 85 473 85 450 l 85 608 q 128 646 85 646 q 166 680 166 646 q 195 735 166 735 q 238 731 218 731 q 259 807 248 807 q 322 832 322 807 q 339 891 322 891 l 373 891 q 411 934 411 891 q 432 972 411 960 m 411 659 q 339 642 411 646 l 335 633 l 335 604 q 293 566 335 566 q 242 524 242 566 l 242 515 q 272 486 242 486 l 694 486 q 728 511 728 486 l 728 553 q 715 566 728 559 l 669 566 q 644 642 650 566 l 623 646 l 508 646 q 492 676 492 653 l 492 692 q 508 722 492 715 l 542 722 q 572 752 572 722 l 572 773 q 547 807 572 807 q 542 803 542 807 l 521 807 q 411 786 411 807 l 411 659 m 18 722 l 68 722 q 85 705 75 722 l 85 671 q 73 646 85 650 l 22 646 q 5 714 5 646 l 18 722 m -41 444 l 47 444 q 85 427 80 444 l 85 380 q 68 363 85 374 l -54 363 q -83 401 -83 363 l -83 410 q -41 444 -83 444 m 682 241 l 694 241 q 732 220 732 241 q 715 156 729 156 l 711 156 q 694 160 702 156 q 677 156 687 156 l 669 156 q 648 203 653 156 q 682 241 650 241 m -155 160 l -113 160 q -92 118 -98 160 q -117 80 -92 80 q -163 76 -155 76 l -172 88 l -172 143 q -155 160 -172 150 z "},"b":{"ha":970,"x_min":0,"x_max":970,"o":"m 178 970 l 783 970 q 813 915 813 970 q 877 885 813 885 q 898 813 892 885 l 919 813 q 970 783 970 813 l 970 661 q 953 644 970 654 l 830 644 q 813 661 823 644 l 813 775 q 787 800 813 800 l 351 800 q 326 766 326 800 l 326 673 q 339 648 329 648 l 783 648 q 813 610 813 648 l 813 576 q 826 564 813 570 l 872 564 q 898 487 889 564 l 919 483 l 953 483 q 970 466 960 483 l 970 174 q 940 157 963 157 l 906 157 q 885 81 895 157 l 877 76 l 843 76 q 809 8 809 76 l 796 0 l 186 0 q 157 38 157 0 l 157 479 q 127 508 157 508 q 89 504 104 504 l 81 517 l 81 568 q 98 585 81 574 l 132 585 q 157 597 153 585 l 157 809 q 182 843 157 843 q 229 847 205 847 q 309 843 296 843 l 317 855 l 317 919 l 296 923 l 195 923 q 161 936 163 923 l 161 953 q 178 970 161 960 m 17 923 l 144 923 q 157 911 150 923 l 157 855 q 144 843 157 849 q 64 847 121 843 q 8 843 27 843 q 0 868 0 857 l 0 894 q 17 923 0 916 m 326 457 l 326 191 q 351 157 326 157 l 618 157 q 644 199 644 157 q 682 237 644 237 l 783 237 q 813 267 813 237 l 813 296 q 885 322 813 310 q 894 364 894 341 q 877 394 888 394 l 830 394 q 813 411 823 394 l 813 453 q 796 483 813 476 l 339 483 q 326 457 326 479 m 741 394 l 783 394 q 813 364 813 394 l 813 343 q 762 313 813 313 q 724 330 730 313 l 724 377 q 741 394 724 384 m 581 313 l 627 313 q 644 283 644 307 l 644 267 q 627 237 644 244 l 581 237 q 564 275 564 243 q 581 313 564 308 m 76 136 l 93 136 q 123 119 116 136 l 123 64 l 115 51 q 89 55 111 51 q 55 51 66 51 q 47 64 47 62 l 47 119 q 76 136 54 136 z "},"c":{"ha":916,"x_min":-68,"x_max":917,"o":"m 309 972 l 732 972 q 762 918 762 972 l 766 892 l 820 892 q 837 876 827 892 l 837 846 q 866 804 837 804 q 896 812 874 804 q 917 783 917 807 l 917 666 q 900 649 917 659 l 779 649 q 762 666 772 649 l 762 771 q 736 804 762 804 l 305 804 q 280 779 280 804 l 280 331 q 263 314 280 324 l 230 314 q 200 277 200 314 l 200 272 q 217 235 200 240 l 263 235 q 284 172 280 235 l 305 168 l 736 168 q 762 201 762 168 l 762 306 q 779 323 762 313 l 900 323 q 917 306 906 323 l 917 197 q 887 168 917 168 l 858 168 q 837 125 837 158 l 837 96 q 820 79 837 90 l 787 79 q 762 67 762 77 l 762 33 q 741 0 762 11 l 309 0 q 280 29 280 0 l 280 67 q 204 84 280 79 q 196 109 196 98 q 200 113 196 113 q 171 168 200 168 q 113 193 113 168 l 113 629 q 129 658 113 651 l 175 658 q 200 670 197 658 l 200 725 q 188 737 200 730 l 142 737 q 113 766 113 737 l 113 775 q 184 808 113 808 q 200 854 200 831 q 196 871 196 869 q 275 897 196 897 q 309 972 275 972 m 54 737 l 96 737 q 113 720 102 737 l 113 674 q 75 658 106 658 q 37 674 43 658 l 37 720 q 54 737 37 727 m -47 503 l -18 503 q 12 486 5 503 l 12 452 q -35 423 12 423 q -64 440 -64 429 l -64 486 q -47 503 -64 492 m 317 314 l 326 314 q 359 281 359 314 l 359 272 q 330 235 359 235 l 309 235 q 280 264 280 235 l 280 285 q 317 314 280 314 m -55 256 l 75 256 q 92 227 92 249 l 92 210 q 75 180 92 187 l -39 180 q -68 218 -68 180 l -68 243 q -55 256 -68 249 z "},"d":{"ha":943,"x_min":-95,"x_max":945,"o":"m 159 972 l 588 972 q 618 917 618 972 q 661 891 618 891 q 699 849 699 891 q 736 806 699 806 l 762 810 q 788 772 777 805 l 783 747 l 783 743 q 792 734 785 734 l 847 734 q 864 718 854 734 l 864 701 q 877 645 864 645 l 894 645 q 945 615 945 645 l 945 344 q 894 314 945 314 l 877 314 q 860 242 867 314 q 788 225 788 237 l 788 186 q 758 157 788 157 l 711 157 q 690 85 700 157 q 618 64 618 75 l 618 30 q 601 0 618 7 l 159 0 q 130 38 130 0 l 130 51 q 159 89 130 89 l 219 89 q 245 115 245 89 l 245 136 q 211 170 245 170 l 147 170 q 130 208 130 176 l 130 739 q 172 781 130 781 l 198 781 q 211 793 204 781 l 211 844 q 198 857 211 850 l 168 857 q 130 895 130 857 l 130 934 q 159 972 130 972 m 71 857 l 113 857 q 130 840 119 857 l 130 793 q 117 781 130 787 l 79 781 q 50 823 50 781 q 71 857 50 846 m 291 793 l 291 170 q 304 157 291 163 l 508 157 q 542 225 542 157 q 571 237 557 237 l 601 237 q 618 267 618 245 l 618 310 q 694 331 618 327 q 732 408 706 408 l 775 408 l 800 450 l 839 450 q 868 488 868 450 l 868 492 q 851 530 868 525 l 813 530 q 771 564 793 530 l 715 564 q 699 581 709 564 l 699 615 q 669 645 699 645 l 635 645 q 618 662 629 645 l 618 696 q 606 722 618 718 l 580 722 q 537 772 537 722 q 499 814 537 814 l 456 814 q 291 793 291 814 m 550 611 q 606 607 553 611 l 623 611 q 652 577 648 611 l 652 551 q 610 517 652 517 l 525 517 q 491 530 493 517 q 520 607 491 607 l 550 611 m 736 530 l 758 530 q 788 500 788 530 l 788 488 q 745 450 788 450 l 741 450 q 707 484 707 453 l 707 492 q 736 530 707 530 m -65 463 l 45 463 q 62 446 52 463 l 62 399 q 24 382 56 382 l -44 382 q -95 412 -95 382 l -95 433 q -65 463 -95 463 m 24 306 q 62 289 56 306 l 62 237 q 50 225 62 231 l 3 225 q -14 242 -4 225 l -14 289 q 24 306 -9 306 m 104 170 q 130 153 130 161 l 130 106 q 100 85 127 94 q 75 119 75 94 l 75 140 q 104 170 75 170 z "},"e":{"ha":972,"x_min":-68,"x_max":973,"o":"m 197 974 l 952 974 q 973 932 973 964 l 973 848 q 923 806 973 806 l 348 806 q 323 781 323 806 l 323 583 q 356 558 323 558 l 789 558 q 805 529 805 551 l 805 433 q 764 391 805 391 l 335 391 q 323 378 329 391 l 323 193 q 348 168 323 168 l 944 168 q 973 117 973 168 l 973 42 q 952 0 973 9 l 197 0 q 168 17 174 0 l 168 399 q 180 424 170 424 l 289 424 q 323 449 323 424 l 323 491 q 310 504 323 497 l 184 504 q 168 521 178 504 l 168 802 q 218 819 168 819 l 235 819 q 243 827 243 819 l 243 882 q 230 894 243 888 l 205 894 q 168 911 173 894 l 168 957 q 197 974 174 974 m 566 785 l 574 785 q 612 755 612 785 l 612 722 q 595 705 612 715 l 553 705 q 524 734 524 705 l 524 764 q 566 785 534 785 m 28 504 l 138 504 q 168 466 168 504 l 168 462 q 125 424 168 424 l 54 424 q -1 445 5 424 l -1 487 q 28 504 6 504 m -30 113 l 50 113 q 87 84 87 113 l 87 63 q 58 34 87 34 l -39 34 q -68 50 -61 34 l -68 84 q -30 113 -68 113 m 58 299 l 66 299 q 104 270 104 299 l 104 237 q 87 220 104 230 l 45 220 q 16 249 16 220 l 16 279 q 58 299 26 299 m 102 897 l 111 897 q 149 867 149 897 l 149 834 q 132 817 149 827 l 90 817 q 60 846 60 817 l 60 876 q 102 897 70 897 z "},"f":{"ha":996,"x_min":0,"x_max":998,"o":"m 212 972 l 968 972 q 998 934 998 972 l 998 844 q 981 814 998 822 l 454 814 q 409 814 431 814 q 374 814 388 814 q 352 789 352 812 l 352 577 q 386 551 352 551 l 810 551 q 836 539 836 549 l 836 399 q 798 382 830 382 l 365 382 q 344 352 360 382 q 306 323 306 352 l 306 297 q 348 263 306 271 l 352 242 l 352 30 q 335 0 352 7 l 199 0 q 182 17 193 0 l 182 72 q 199 89 182 79 l 242 89 q 271 119 271 89 l 271 157 q 191 178 271 172 q 182 203 182 192 l 182 446 q 225 479 182 473 l 229 509 l 229 517 q 191 556 229 556 q 182 581 182 570 l 182 942 q 212 972 182 972 m 30 734 l 140 734 q 161 688 161 726 q 119 654 161 654 l 43 654 q 0 696 0 654 q 30 734 0 734 m 161 547 l 170 547 q 182 522 182 543 l 182 505 q 170 479 182 483 l 157 479 q 149 488 149 479 l 149 522 q 161 547 151 547 m 412 357 q 463 323 463 352 q 467 310 463 318 q 437 271 467 271 l 378 271 q 352 284 355 271 l 352 344 q 361 352 353 352 l 386 352 l 412 357 m 51 340 l 68 340 q 102 271 102 340 q 72 259 86 259 l 43 259 q 13 289 13 259 l 13 310 q 51 340 13 340 m 127 174 l 170 174 q 182 149 182 170 l 182 119 q 153 89 182 89 l 144 89 q 115 106 121 89 l 115 149 q 127 174 117 174 z "},"g":{"ha":953,"x_min":-34,"x_max":953,"o":"m 344 974 l 777 974 q 798 940 798 963 l 798 907 q 823 894 802 894 l 856 894 q 873 878 863 894 l 873 848 q 886 814 873 817 l 919 814 q 953 781 953 814 l 953 680 q 936 650 953 657 l 814 650 q 798 667 808 650 l 798 772 q 772 806 798 806 l 340 806 q 315 781 315 806 l 315 193 q 340 168 315 168 l 772 168 q 798 201 798 168 l 798 298 q 785 323 798 320 l 524 323 q 478 336 478 323 l 478 349 q 487 357 479 357 l 520 357 q 549 374 543 357 l 549 428 q 524 449 549 435 q 478 441 508 441 l 470 453 q 487 491 474 491 l 936 491 q 953 462 953 484 l 953 197 q 923 168 953 168 l 894 168 q 873 126 873 159 l 873 96 q 856 80 873 90 l 823 80 q 798 67 798 77 l 798 42 q 777 0 798 9 l 344 0 q 311 75 311 0 q 235 109 235 75 q 214 168 225 168 l 176 168 q 151 180 154 168 l 151 201 q 189 235 189 224 q 151 298 189 298 l 146 319 l 146 621 q 197 650 146 650 l 214 650 q 227 676 227 655 l 227 709 l 222 730 l 180 730 q 146 764 146 730 l 146 777 q 176 806 146 806 l 214 806 q 243 890 224 808 l 252 894 l 290 894 q 315 936 315 894 q 344 974 315 974 m 696 751 q 730 709 730 751 q 701 671 730 671 l 680 671 q 650 701 650 671 l 650 730 q 696 751 659 751 m 88 739 q 146 722 146 734 l 146 667 q 130 650 146 661 l 83 650 q 67 696 71 650 q 88 739 67 725 m 8 516 l 83 516 q 125 483 125 516 l 125 474 q 96 437 125 437 l -13 437 q -34 474 -34 448 q 8 516 -34 516 m 432 449 q 470 437 470 447 l 470 374 q 432 357 470 361 q 394 386 394 357 l 394 433 q 432 449 400 449 m 117 290 l 130 290 q 146 273 136 290 l 146 231 q 130 214 146 224 q 100 252 100 214 q 117 290 106 290 z "},"h":{"ha":1013,"x_min":-27,"x_max":1013,"o":"m 190 972 l 330 972 q 359 942 359 972 l 359 577 q 393 551 359 551 l 817 551 q 847 590 847 551 l 847 675 q 817 713 847 713 l 783 713 q 766 730 777 713 l 766 772 q 783 789 766 779 l 817 789 q 847 827 847 789 l 847 955 q 877 972 854 972 l 983 972 q 1013 955 1006 972 l 1013 51 q 996 0 1013 0 l 864 0 q 847 17 857 0 l 847 267 q 907 284 847 281 q 915 327 915 304 l 911 365 l 860 365 q 830 395 857 365 l 372 395 q 359 382 366 395 l 359 30 q 342 0 359 7 l 223 0 q 189 38 189 0 l 189 395 l 193 416 l 71 416 q 33 433 38 416 l 33 479 q 50 496 33 486 l 193 496 q 189 522 193 500 q 193 539 189 539 l 190 972 m 50 781 q 87 726 87 781 l 87 709 q 50 688 87 688 l 37 688 q -1 705 4 688 l -1 764 q 50 781 -1 781 m 198 496 q 202 454 198 476 q 198 416 198 438 l 325 416 q 359 441 359 416 l 359 471 q 334 496 359 496 l 198 496 m 787 374 l 809 374 q 843 361 840 374 l 843 297 q 804 280 837 280 l 796 280 q 753 314 753 280 l 753 340 q 787 374 753 374 m 54 271 l 66 271 q 134 237 134 271 l 134 220 q 83 178 134 178 l 16 178 q -27 220 -27 178 l -27 229 q 16 267 -27 267 q 54 271 38 271 z "},"i":{"ha":587,"x_min":-54,"x_max":601,"o":"m 115 970 l 551 970 q 585 843 601 975 q 564 813 574 816 l 450 813 q 412 796 417 813 l 412 186 q 441 157 412 157 l 558 157 q 588 119 588 157 l 588 38 q 571 0 588 5 l 102 0 q 85 17 96 0 l 85 140 q 102 157 85 146 l 221 157 q 246 170 243 157 l 246 178 q 183 195 246 191 q 174 208 174 205 l 174 241 q 212 271 174 271 l 242 271 q 255 317 255 271 l 255 572 q 268 585 255 578 l 306 585 q 331 597 328 585 l 331 652 q 255 677 331 667 l 255 758 q 217 813 255 813 l 102 813 q 85 830 96 813 l 85 953 q 115 970 92 970 m -12 881 q 26 851 26 881 l 26 826 q 1 796 26 796 q -54 813 -54 800 l -54 817 q -29 877 -54 877 l -12 881 m 212 677 q 251 665 251 674 l 251 602 q 221 585 243 585 l 212 585 q 174 614 174 585 l 174 648 q 212 677 174 677 m -24 449 l 90 449 q 115 436 115 446 l 115 377 l 111 368 q 39 373 61 373 l 22 373 l -29 368 q -41 398 -41 384 l -41 419 q -24 449 -41 442 z "},"j":{"ha":827,"x_min":-54,"x_max":829,"o":"m 332 972 l 812 972 q 829 955 818 972 l 829 819 q 790 802 823 802 l 684 802 q 671 789 678 802 l 671 186 q 604 149 671 155 q 591 123 591 144 l 591 94 q 519 68 591 78 q 493 0 513 0 l 205 0 q 183 43 183 9 l 183 68 q 158 81 179 81 l 124 81 q 98 153 110 81 q 26 182 33 153 q 56 203 33 203 l 103 203 q 115 216 109 203 l 115 271 q 81 284 113 284 l 43 284 q 31 297 37 284 l 31 301 q 68 318 37 318 l 145 318 q 183 284 183 318 q 196 250 183 253 l 226 250 q 264 208 264 250 q 307 157 264 157 l 387 157 q 421 170 418 157 l 421 208 q 463 250 421 250 l 489 250 q 502 263 495 250 l 502 301 q 472 318 502 311 q 434 314 449 314 q 421 357 421 314 q 463 395 421 395 q 502 420 502 395 l 502 581 q 532 620 502 604 q 536 637 536 627 l 536 666 q 502 709 536 681 l 502 789 q 489 802 502 795 l 217 802 q 183 857 183 802 l 183 917 q 196 968 183 953 q 332 972 288 972 m 417 692 l 451 692 q 502 662 502 692 l 502 628 q 485 611 502 621 l 404 611 q 378 624 382 611 l 378 675 q 417 692 385 692 m 319 543 q 366 522 366 536 l 366 471 q 349 454 366 465 l 302 454 q 286 505 286 454 q 319 543 286 543 m -12 284 q 26 254 26 284 l 26 220 q 9 203 26 214 l -33 203 q -54 246 -54 214 q -12 284 -54 284 z "},"k":{"ha":817,"x_min":0,"x_max":821,"o":"m 821 970 l 821 833 q 804 817 821 827 l 757 817 q 740 778 740 810 l 740 753 q 659 731 740 735 q 650 697 650 715 l 650 663 q 633 646 650 656 l 587 646 q 566 574 574 646 q 532 566 550 566 l 506 566 q 493 553 500 566 l 493 421 q 506 408 493 415 l 553 408 q 578 332 570 408 l 608 328 l 637 328 q 654 306 654 319 l 650 276 q 667 251 659 251 l 701 251 q 740 234 734 251 l 740 195 q 770 157 740 157 l 804 157 q 821 140 810 157 l 821 30 q 791 0 821 0 l 680 0 q 650 38 650 0 l 650 144 q 637 157 650 151 l 544 157 q 493 187 493 157 l 493 289 q 476 328 493 317 q 433 319 444 323 l 404 328 q 332 306 336 317 q 336 157 336 206 l 336 106 q 311 0 336 0 l 195 0 q 165 17 173 0 l 165 136 q 200 149 168 149 l 230 149 q 242 161 236 149 l 242 212 q 230 225 242 218 l 204 225 q 165 242 172 225 l 165 357 q 183 374 165 363 l 298 374 q 323 399 323 374 l 323 438 q 294 455 316 455 l 178 455 q 165 468 172 455 l 165 633 q 153 667 165 665 l 127 667 q 85 689 94 667 l 85 731 q 136 761 85 761 l 153 761 q 165 795 165 764 l 165 956 q 183 974 165 963 l 306 974 q 336 918 336 974 l 336 659 q 349 646 336 653 l 378 646 q 404 689 404 646 q 425 735 404 728 l 459 735 q 493 765 493 735 q 523 817 493 817 q 574 838 574 817 l 574 880 q 650 901 574 895 q 654 905 650 905 l 650 948 q 667 974 650 965 l 697 974 l 821 970 m 111 918 q 140 901 134 918 l 140 854 q 102 838 134 838 l 85 838 q 60 850 63 838 q 90 918 60 918 l 111 918 m 38 455 l 123 455 q 165 416 165 455 q 136 374 165 374 l 17 374 l 0 387 l 4 408 l 4 442 q 38 455 7 455 m 102 225 l 149 225 q 165 178 165 221 q 149 144 165 144 l 123 149 l 98 144 l 85 161 l 85 208 q 102 225 85 215 z "},"l":{"ha":707,"x_min":-47,"x_max":812,"o":"m 170 974 l 305 974 q 323 957 312 974 l 323 468 q 365 442 323 442 q 404 404 404 442 l 404 399 q 378 353 404 361 q 352 357 374 353 q 323 340 323 351 l 323 183 q 357 157 323 157 l 795 157 q 812 119 812 152 l 812 43 q 790 0 812 9 l 174 0 q 157 17 167 0 l 157 21 q 195 43 157 29 q 199 60 199 50 l 199 85 q 161 119 199 114 q 153 144 153 133 l 153 633 q 174 668 153 656 l 203 668 q 233 697 233 668 l 233 723 q 208 749 233 749 l 170 749 q 153 779 153 755 l 153 944 q 170 974 153 967 m 106 749 l 123 749 q 153 732 146 749 l 153 697 q 114 668 153 668 q 76 685 81 668 l 76 732 q 106 749 83 749 m 46 498 l 89 498 q 106 481 95 498 l 106 438 q 89 421 106 431 l 46 421 q 29 438 39 421 l 29 481 q 46 498 29 487 m -31 272 l 89 272 q 119 242 119 272 l 119 221 q 67 191 119 191 l 3 191 q -47 217 -47 191 q -31 272 -44 272 m 136 111 q 157 47 153 111 l 144 38 l 131 38 q 119 51 125 38 l 119 81 q 136 111 119 104 z "},"m":{"ha":947,"x_min":-81,"x_max":947,"o":"m 151 970 l 275 970 q 292 953 281 970 l 292 919 q 325 894 292 894 q 372 860 372 894 l 372 826 q 385 813 372 820 l 439 813 q 452 800 446 813 l 452 661 q 477 644 452 652 q 588 652 534 652 l 609 652 q 622 699 622 652 l 622 796 q 651 813 629 813 l 685 813 q 698 826 691 813 l 698 860 q 762 894 698 894 q 779 919 779 894 l 779 953 q 795 970 779 960 l 930 970 q 947 940 947 963 l 947 38 q 918 0 947 0 l 808 0 q 779 17 785 0 l 779 334 q 817 351 784 351 l 846 351 q 859 377 859 356 l 859 381 q 846 428 859 428 l 817 428 q 779 445 784 428 l 779 618 q 753 644 779 644 l 723 644 q 698 602 698 644 q 660 564 698 564 l 630 564 q 613 491 620 564 q 575 449 575 491 q 545 406 575 406 l 511 406 q 494 436 494 414 l 494 474 l 452 500 l 452 530 q 439 564 452 561 l 410 564 q 372 606 372 564 q 347 644 372 644 l 317 644 q 292 618 292 644 l 292 17 q 262 0 284 0 l 164 0 q 134 30 134 0 l 134 389 q 130 496 134 425 l 164 517 q 168 534 168 524 l 168 564 q 134 597 168 585 l 134 775 q 96 792 129 792 l 71 792 q 54 830 54 798 q 71 868 54 863 l 101 868 q 134 911 134 868 l 134 953 q 151 970 134 960 m -18 686 q 41 669 41 686 q 45 640 45 652 q 3 597 45 597 q -35 627 -35 597 l -35 669 q -18 686 -35 675 m 105 585 l 122 585 q 134 559 134 581 l 134 538 q 117 508 134 515 q 88 547 88 508 q 105 585 88 578 m 715 428 l 762 428 q 779 398 779 421 l 779 381 q 762 351 779 358 l 715 351 q 698 381 698 358 l 698 398 q 715 428 698 421 m -39 216 l 50 216 q 88 199 82 216 l 88 153 q 58 136 81 136 l -52 136 q -81 174 -81 136 q -39 216 -81 216 z "},"n":{"ha":945,"x_min":-54,"x_max":947,"o":"m 801 972 l 918 972 q 947 955 940 972 l 947 21 q 926 0 947 17 q 863 4 884 4 l 797 4 q 784 17 791 4 l 784 37 q 822 62 822 58 l 822 66 q 784 138 822 126 q 768 171 779 171 l 655 171 q 621 246 621 171 l 592 250 l 555 250 q 542 262 549 250 l 542 275 q 547 279 542 279 q 530 326 537 326 l 496 326 q 458 351 458 326 l 463 371 q 429 417 463 417 l 396 417 q 380 467 380 417 l 380 484 q 371 492 380 492 l 317 492 q 304 479 311 492 l 304 42 q 275 4 304 4 l 167 4 q 138 21 144 4 l 138 522 q 155 538 138 528 l 283 538 q 304 572 304 549 l 304 588 q 275 617 304 617 l 150 617 q 138 642 138 621 l 138 943 q 155 960 138 949 l 288 960 q 304 922 304 954 l 304 671 q 317 659 304 665 l 326 659 q 375 655 354 659 q 425 659 397 659 q 458 613 458 659 q 484 572 458 572 l 530 572 q 547 555 536 572 l 547 522 q 576 492 547 492 l 609 492 q 625 475 615 492 l 625 429 q 638 417 625 424 l 663 417 q 705 376 705 417 l 705 351 q 730 338 709 338 l 768 338 q 780 351 773 338 l 780 709 q 830 751 780 751 q 859 763 859 751 l 859 813 q 846 826 859 819 l 817 826 q 780 867 780 826 l 780 930 q 801 972 780 962 m 37 884 q 75 855 79 884 l 79 834 q 50 805 79 805 l 21 805 q -8 834 -8 805 l -8 851 q 37 884 -8 884 m 722 826 l 755 826 q 780 813 780 823 l 780 763 q 768 751 780 758 l 722 751 q 705 768 715 751 l 705 809 q 722 826 705 816 m 21 617 l 87 617 q 138 588 138 617 l 138 576 q 109 538 138 538 l 0 538 q -21 576 -21 549 q 21 617 -21 617 m -33 204 l 79 204 q 113 171 113 204 l 113 134 q 96 117 113 127 l -25 117 q -54 163 -54 117 q -33 204 -48 204 m 755 125 l 768 125 q 780 113 773 125 l 780 62 q 755 50 776 50 q 739 66 749 50 l 739 109 q 755 125 739 115 z "},"o":{"ha":955,"x_min":-54,"x_max":956,"o":"m 340 972 l 782 972 q 799 955 789 972 l 799 921 q 833 895 799 895 q 880 861 880 895 l 880 827 q 892 814 880 821 l 926 814 q 956 798 949 814 l 956 174 q 918 157 950 157 l 892 157 q 880 144 886 157 l 880 111 q 816 77 880 77 q 799 47 799 69 l 799 17 q 769 0 792 0 l 332 0 q 307 64 313 0 q 269 81 296 81 l 239 81 q 217 157 222 81 l 183 157 q 145 174 151 157 l 145 471 q 183 488 151 488 l 209 488 q 222 500 215 488 l 222 551 q 209 564 222 557 l 183 564 q 145 581 151 564 l 145 798 q 175 814 152 814 l 209 814 q 222 827 215 814 l 222 861 q 277 895 222 895 l 294 895 q 319 968 303 897 l 340 972 m 315 713 l 315 259 q 357 237 315 252 l 366 242 l 378 242 q 391 229 385 242 l 391 186 q 421 157 391 157 l 680 157 q 709 186 709 157 l 709 220 q 790 242 709 237 q 799 267 799 256 l 799 399 q 833 441 799 420 l 833 496 q 799 543 799 517 q 786 564 799 564 l 748 564 q 709 594 709 564 l 709 637 q 726 654 709 643 l 748 649 q 799 666 799 654 l 799 701 q 765 726 799 726 l 726 726 q 709 743 720 726 l 709 789 q 684 814 709 814 l 523 814 q 391 793 391 814 q 349 726 391 726 q 315 713 317 726 m -37 814 l 77 814 q 111 772 111 814 q 77 734 109 734 l -12 734 q -50 777 -50 734 l -54 802 l -37 814 m 81 564 l 128 564 q 145 526 140 564 q 128 488 140 488 l 81 488 q 64 505 75 488 l 64 547 q 81 564 64 554 m 777 509 q 799 492 797 501 l 799 446 q 786 433 799 439 l 769 433 q 756 446 763 433 l 756 492 q 777 509 758 501 m 604 408 l 714 408 q 743 378 743 408 q 701 327 743 327 l 612 327 q 574 357 574 327 l 574 391 q 604 408 581 408 m 43 348 q 64 318 64 342 l 64 293 q 18 259 64 259 q -16 293 -16 262 l -16 310 q 9 344 -16 344 q 43 348 33 348 z "},"p":{"ha":880,"x_min":-14,"x_max":956,"o":"m 770 970 q 800 915 800 970 l 812 894 l 842 898 l 863 898 q 880 847 880 898 l 880 821 q 888 813 882 813 l 905 813 q 956 783 956 813 l 956 677 q 922 644 956 644 l 888 644 q 880 635 880 642 l 880 614 q 850 564 880 564 q 791 538 791 564 q 753 483 791 483 q 711 466 711 483 l 711 445 q 681 394 711 394 q 630 373 630 394 q 600 326 630 326 l 338 326 q 313 292 313 326 l 313 38 q 296 0 313 5 l 173 0 q 143 51 143 0 l 143 317 q 177 373 143 373 q 194 368 186 373 q 253 373 230 373 l 292 373 q 304 398 304 377 l 304 423 q 292 449 304 446 l 185 449 q 143 500 143 449 l 143 826 q 84 860 143 860 q 75 898 75 880 q 118 936 75 936 q 164 970 139 936 l 770 970 m 313 783 l 313 690 q 300 677 313 684 l 270 677 q 236 665 239 677 l 236 606 q 270 593 239 593 l 300 593 q 313 568 313 589 l 313 513 q 342 483 313 483 l 511 483 q 550 525 550 483 q 622 568 550 568 q 630 593 630 581 l 630 623 q 673 644 640 644 l 779 644 q 795 694 785 644 l 817 699 l 863 699 q 880 737 880 705 l 880 745 q 867 779 880 777 l 825 779 q 779 809 795 779 q 741 813 755 813 l 351 813 q 313 783 313 813 m 728 787 l 753 787 q 787 775 784 787 l 787 715 q 770 699 787 709 l 728 699 q 711 715 721 699 l 711 771 q 728 787 711 777 m 359 677 q 393 656 381 677 l 393 614 q 380 589 393 592 l 321 589 q 309 602 315 589 l 309 606 q 313 627 309 620 l 309 652 l 309 656 q 359 677 309 675 m 3 449 l 130 449 q 143 436 136 449 l 143 385 q 130 373 143 379 l 3 373 q -14 402 -14 380 l -14 419 q 3 449 -14 442 m 50 245 l 92 245 q 109 229 99 245 l 109 186 q 67 165 98 165 q 33 195 33 165 l 33 229 q 50 245 33 235 z "},"q":{"ha":1003,"x_min":-88,"x_max":1003,"o":"m 334 970 l 706 970 q 760 932 760 970 q 764 890 760 905 l 785 890 q 852 807 852 890 q 928 769 928 807 l 928 180 q 940 168 928 174 l 965 168 q 1003 151 997 168 l 1003 17 q 986 0 1003 10 l 865 0 q 836 54 836 0 q 827 75 836 75 l 773 75 q 760 62 767 75 l 760 29 q 744 0 760 7 l 296 0 q 279 29 279 7 l 279 62 q 267 75 279 68 l 242 75 q 204 92 210 75 l 204 113 q 167 168 204 168 q 125 184 125 168 l 125 606 q 200 627 125 623 l 204 669 q 175 703 204 703 l 142 703 q 125 719 135 703 l 125 782 q 167 802 134 802 l 192 802 q 204 848 204 802 l 204 873 q 234 890 211 890 l 267 890 q 279 903 273 890 l 279 937 q 334 970 279 970 m 279 694 l 279 272 q 309 243 279 243 l 351 243 q 376 168 363 243 l 669 168 q 681 180 675 168 l 681 230 q 669 243 681 236 l 644 243 q 610 255 612 243 l 610 267 q 618 276 611 276 l 648 276 q 681 305 681 276 l 681 334 q 648 368 681 361 l 627 363 l 614 363 q 606 372 606 363 l 606 385 q 656 401 606 401 l 748 401 q 760 427 760 406 l 760 531 q 748 543 760 537 l 723 543 q 681 577 681 543 l 681 585 q 723 623 681 623 q 760 648 760 623 l 760 698 q 719 723 760 723 q 681 765 681 723 q 656 802 681 802 l 393 802 q 359 773 359 802 q 330 723 359 723 q 279 694 279 723 m 87 703 q 125 673 125 703 l 125 652 q 109 623 125 629 l 75 623 q 45 661 45 623 l 45 669 q 87 703 45 703 m 547 564 q 597 535 597 564 q 602 506 597 522 q 555 477 602 482 q 514 510 514 477 l 514 527 q 547 564 514 564 m -21 502 l 16 497 l 41 502 q 71 452 71 502 q 29 410 71 410 l -46 410 q -88 443 -88 410 l -88 460 q -34 502 -88 502 l -21 502 m 551 368 q 602 351 602 361 l 602 292 q 564 276 596 276 q 526 305 526 276 l 526 338 q 551 368 526 368 m 20 322 l 50 322 q 79 305 73 322 l 79 272 q 41 243 79 243 q 4 259 9 243 l 4 305 q 20 322 4 312 z "},"r":{"ha":962,"x_min":-122,"x_max":964,"o":"m 167 972 l 786 972 l 799 963 l 795 934 l 795 925 q 871 891 795 891 q 888 819 884 891 l 909 814 l 947 814 q 964 785 964 808 l 964 679 q 930 645 964 645 l 897 645 q 884 620 884 641 l 884 586 q 867 569 884 579 l 837 569 q 795 547 804 569 l 795 517 q 727 484 795 484 q 714 463 717 463 q 718 450 718 454 q 697 403 718 412 l 663 403 q 633 365 633 403 q 659 331 633 331 l 688 327 q 761 331 733 331 q 795 271 795 331 q 837 237 795 237 l 867 237 q 884 220 873 237 l 884 186 q 897 161 886 161 l 922 161 q 964 127 964 161 l 964 34 q 922 0 964 0 l 846 0 q 795 30 795 0 q 735 51 795 48 q 718 115 727 60 q 756 127 734 127 l 782 127 q 795 140 785 127 q 765 161 789 161 l 663 161 q 637 174 641 161 l 637 191 q 625 237 637 237 l 608 237 q 557 267 557 237 q 536 323 557 323 q 447 327 502 323 q 307 301 307 322 l 307 30 q 269 0 307 0 l 201 0 q 149 30 149 0 l 149 119 q 167 136 149 125 l 201 136 q 230 174 230 136 l 230 186 q 213 216 230 210 l 167 216 q 149 233 160 216 l 149 547 q 128 577 149 571 q 81 573 99 573 q 64 607 64 578 q 98 658 64 658 l 137 658 q 149 683 149 662 l 149 831 q 167 849 149 838 l 281 849 q 307 861 303 849 l 307 917 q 281 929 302 929 l 167 929 q 149 946 160 929 l 149 955 q 167 972 149 962 m 22 929 l 120 929 q 149 900 149 929 l 149 878 q 120 849 149 849 l 22 849 q -7 866 -1 849 l -7 912 q 22 929 -1 929 m 307 777 l 307 513 q 332 488 307 488 l 540 488 q 561 560 557 488 q 633 586 633 570 q 667 645 633 645 q 714 679 714 645 q 744 734 714 734 q 795 764 795 734 l 795 789 q 782 814 795 811 l 336 814 q 307 777 307 814 m -3 467 q 35 437 35 467 l 35 403 q 18 386 35 397 l -24 386 q -54 416 -54 386 l -54 446 q -3 467 -54 464 m -71 331 l -3 331 q 35 301 35 331 l 35 267 q 18 250 35 260 l -92 250 q -122 280 -122 250 l -122 301 q -71 331 -122 331 m 98 216 l 120 216 q 149 186 149 216 l 149 165 q 111 136 149 136 q 69 170 69 136 l 69 178 q 98 216 69 216 z "},"s":{"ha":881,"x_min":-81,"x_max":880,"o":"m 237 974 l 697 974 q 718 901 707 974 q 795 867 795 901 l 795 863 l 791 833 q 871 812 791 815 q 880 787 880 798 l 880 663 q 842 646 874 646 l 744 646 q 709 689 709 646 l 709 714 q 697 727 709 720 l 650 727 q 633 744 644 727 l 633 783 q 604 817 633 817 l 331 817 q 271 812 308 817 q 237 817 267 817 l 224 800 l 224 740 q 237 727 224 734 l 280 727 q 314 697 314 723 q 306 668 314 689 q 344 646 306 646 l 535 646 q 552 616 552 640 l 552 583 q 625 562 552 572 q 633 528 633 546 l 633 502 q 646 489 633 496 l 680 489 q 709 472 703 489 l 709 438 q 786 404 709 404 q 803 357 803 404 l 803 332 q 812 323 804 323 q 867 328 814 323 l 880 311 l 880 178 q 863 161 880 172 l 829 161 q 803 149 803 159 l 803 132 q 773 73 803 73 q 739 77 750 77 q 705 9 705 77 q 671 0 690 0 l 263 0 q 224 17 231 0 l 224 47 q 203 81 224 70 l 174 81 q 140 157 140 81 l 110 161 l 80 161 q 67 174 74 161 l 67 191 l 106 221 q 110 260 106 256 q 72 294 110 278 l 72 306 q 186 328 72 321 l 208 328 q 224 289 224 321 l 224 251 q 259 238 227 238 l 297 238 l 314 221 l 310 200 l 310 174 q 323 161 310 168 l 608 161 q 633 195 633 161 l 633 221 q 650 238 633 228 l 675 238 q 709 264 709 238 l 709 306 q 697 319 709 313 l 582 319 q 548 395 548 319 l 518 399 l 488 399 q 471 438 471 406 l 471 472 q 441 489 465 489 l 242 489 q 224 506 235 489 l 224 540 q 186 570 224 570 l 161 570 q 144 600 144 576 l 144 633 q 132 646 144 640 l 97 646 q 59 689 63 646 l 67 693 l 119 693 q 132 706 125 693 l 132 761 q 72 779 132 772 l 67 787 l 67 804 q 140 821 67 817 q 174 897 140 897 l 212 897 q 229 970 224 897 l 237 974 m 8 774 q 63 757 63 771 l 63 702 q 55 693 63 693 l 3 693 q -26 723 -26 693 l -26 740 q 8 774 -24 774 m -52 557 l 46 557 q 76 528 76 557 l 76 506 q 38 476 76 476 l -43 476 q -81 506 -81 476 l -81 540 q -52 557 -75 557 m 50 285 l 63 268 l 63 221 q 42 204 54 204 q 20 221 22 212 l 20 268 q 50 285 28 285 m -31 170 l 12 170 q 29 153 19 170 l 29 102 q 16 90 29 96 l -18 90 q -47 119 -47 90 l -47 153 q -31 170 -47 160 z "},"t":{"ha":698,"x_min":-115,"x_max":781,"o":"m 159 972 l 739 972 q 781 938 781 972 l 781 875 q 747 811 781 811 l 464 811 q 451 765 451 811 l 451 17 q 413 0 446 0 l 324 0 q 286 17 292 0 l 286 224 q 299 237 286 230 l 345 237 q 375 254 368 237 l 375 292 q 349 317 375 317 l 294 317 q 286 326 286 317 l 286 617 q 256 667 286 667 l 222 667 q 206 684 216 667 l 206 727 q 222 744 206 733 l 256 744 q 286 777 286 744 q 273 811 283 811 l 7 811 q -26 824 -24 811 l -26 832 q -14 845 -26 838 l 16 845 q 50 892 50 845 q -22 938 50 938 l -26 947 l -26 955 l -18 968 q 159 972 94 972 m -94 934 l -43 934 q -31 909 -31 930 l -31 875 q -60 845 -31 845 l -77 845 q -115 909 -115 845 q -94 934 -109 926 m 113 532 l 163 532 q 214 503 214 532 q 218 490 214 498 q 197 452 218 464 l 87 452 q 58 490 58 452 l 58 498 q 113 532 58 532 m 235 317 l 277 317 q 290 309 280 317 l 286 288 l 286 254 q 248 237 281 237 q 214 254 214 237 q 235 317 214 317 m 168 169 l 210 169 q 227 152 216 169 l 227 106 q 206 89 218 89 q 151 106 151 91 l 151 152 q 168 169 151 159 z "},"u":{"ha":945,"x_min":-88,"x_max":945,"o":"m 210 970 q 298 932 298 970 l 298 260 q 311 248 298 254 l 349 248 q 378 205 378 248 q 420 168 378 168 l 470 159 l 525 159 q 550 239 530 159 q 575 248 564 248 l 609 248 q 621 273 621 252 l 621 307 q 638 323 621 313 l 688 323 q 701 357 701 326 l 701 387 q 718 403 701 393 l 751 403 q 777 416 773 403 l 777 550 q 743 563 774 563 l 718 563 q 701 579 711 563 l 701 621 q 718 638 701 628 l 751 638 q 777 651 773 638 l 777 924 q 827 966 777 966 q 852 970 846 966 q 907 962 907 966 l 916 966 q 945 949 945 960 l 945 17 q 907 0 939 0 l 819 0 q 781 17 787 0 l 781 38 q 789 46 782 46 l 844 46 q 869 80 869 46 l 869 96 q 840 126 869 126 l 793 126 q 751 159 770 159 l 655 159 q 621 134 621 159 l 621 21 q 579 0 612 0 l 336 0 q 298 17 304 0 l 298 46 q 269 80 298 80 q 218 109 218 80 q 205 155 218 155 q 184 159 199 159 l 155 159 q 138 218 138 159 l 138 222 q 163 281 138 281 l 205 281 q 218 294 212 281 l 218 336 q 184 361 218 361 l 155 361 q 138 412 138 361 l 138 911 q 168 962 138 962 l 210 970 m 646 873 l 692 873 q 709 857 699 873 l 709 823 q 697 798 709 801 l 646 798 q 634 823 634 802 l 634 861 q 646 873 634 867 m -50 718 l 42 718 q 71 701 64 718 l 71 655 q 42 638 64 638 l -59 638 q -88 655 -81 638 q -84 671 -84 669 l -88 697 q -50 718 -88 718 m 75 550 q 105 516 105 542 l 105 491 q 88 462 105 469 l 34 462 q 17 491 17 469 l 17 512 q 75 550 17 550 m 109 361 q 138 345 138 355 l 138 294 q 126 281 138 288 l 75 281 q 63 294 70 281 l 63 332 q 109 361 63 361 m 739 126 l 755 126 q 781 113 781 123 l 781 109 q 777 88 781 95 l 781 63 l 781 54 q 772 46 781 46 l 718 46 q 701 63 711 46 l 701 109 q 739 126 707 126 z "},"v":{"ha":889,"x_min":-142,"x_max":889,"o":"m 91 972 l 218 972 q 231 946 231 968 l 231 437 q 248 399 231 405 l 282 399 q 324 348 324 399 q 337 318 324 318 l 371 318 q 401 301 394 318 l 401 186 q 414 161 404 161 l 549 161 q 562 208 562 161 l 562 301 q 579 318 562 308 l 609 318 q 638 374 638 318 q 711 403 638 398 q 724 488 718 415 q 795 505 746 499 l 795 564 q 783 577 795 570 l 758 577 q 719 607 719 577 l 719 654 q 707 679 719 675 l 672 679 q 638 713 638 679 l 638 722 q 668 760 638 760 l 707 760 q 719 785 719 764 l 719 955 q 736 972 719 962 l 872 972 q 889 942 889 965 l 889 361 q 838 318 889 318 q 808 284 808 318 q 766 237 808 237 l 736 237 q 719 220 730 237 l 719 191 q 655 157 719 157 q 643 144 649 157 l 643 115 q 621 72 643 81 l 575 72 q 553 0 561 72 l 444 0 q 397 34 397 4 l 401 60 q 320 85 401 68 l 312 98 l 312 144 q 282 161 304 161 l 248 161 q 231 191 231 168 l 231 225 q 218 237 231 231 l 193 237 q 155 254 160 237 l 155 280 q 138 318 155 313 l 91 318 q 74 348 74 325 l 74 764 q 91 781 74 770 l 125 781 q 155 819 155 781 l 155 823 q 138 861 155 856 l 91 861 q 74 878 84 861 l 74 955 q 91 972 74 962 m 23 861 l 44 861 q 74 831 74 861 l 74 810 q 36 781 74 781 l 32 781 q -11 802 -1 781 q 23 861 -11 861 m -113 658 l -2 658 q 27 637 27 658 q -7 577 27 577 l -130 577 q -142 603 -142 581 l -142 620 q -113 658 -142 658 m 655 577 l 702 577 q 719 547 719 570 l 719 522 q 707 496 719 500 q 638 522 638 496 l 638 547 q 655 577 638 570 m 549 475 l 566 475 q 604 458 599 475 l 604 403 q 587 386 604 397 l 553 386 q 519 408 533 386 l 524 429 l 519 454 q 549 475 526 475 m 87 297 q 121 254 121 297 q 100 216 121 228 l 70 216 q 40 246 40 216 l 40 267 q 87 297 40 297 z "},"w":{"ha":1188,"x_min":-41,"x_max":1190,"o":"m 85 975 q 165 975 100 975 l 212 975 q 228 958 218 975 l 228 597 q 270 571 228 571 q 308 534 308 571 l 308 504 q 317 496 309 496 l 333 496 q 384 479 384 496 l 384 197 q 413 168 384 168 l 518 168 q 543 193 543 168 l 543 298 q 598 328 543 328 l 619 328 q 631 340 625 328 l 631 378 q 619 404 631 400 l 581 404 q 543 420 549 404 l 543 467 q 572 483 550 483 l 690 483 q 711 441 711 473 l 711 214 q 690 159 711 166 l 577 159 q 543 117 543 159 l 543 88 q 547 42 543 71 q 501 0 547 0 l 426 0 q 384 42 384 0 l 384 67 q 371 80 384 73 l 325 80 q 308 96 318 80 l 308 130 q 266 168 308 168 q 228 197 228 168 l 228 391 q 216 404 228 397 l 178 404 q 140 420 146 404 l 140 471 q 127 483 140 477 l 90 483 q 60 513 60 483 l 60 588 q 90 618 60 618 l 127 618 q 140 651 140 620 l 140 668 q 102 697 140 697 l 77 697 q 60 714 71 697 l 60 932 q 85 975 63 975 m 1131 966 q 1190 941 1190 966 l 1190 500 q 1173 483 1190 493 l 1127 483 q 1106 412 1116 483 q 1073 404 1090 404 l 1035 404 q 1022 370 1022 401 l 1022 176 l 1010 159 l 980 164 q 947 147 947 156 l 947 122 q 926 80 947 90 l 880 80 q 867 67 873 80 l 867 21 q 825 0 857 0 l 749 0 q 703 55 703 0 l 703 92 q 749 159 703 159 l 774 164 q 817 159 796 159 q 867 180 867 164 l 867 189 q 854 201 867 195 l 829 201 q 787 243 787 201 q 829 281 787 281 q 867 307 867 281 l 867 454 q 896 483 867 483 l 926 483 q 947 525 947 492 l 947 555 q 1018 576 947 571 l 1022 584 l 1022 773 q 997 785 1018 785 l 963 785 q 947 802 957 785 l 947 857 q 963 873 947 863 l 1014 873 q 1022 882 1022 873 l 1022 932 q 1085 966 1022 966 l 1131 966 m 909 718 l 926 718 q 955 701 948 718 l 955 655 q 917 639 949 639 l 909 639 q 880 655 886 639 l 880 701 q 909 718 886 718 m 22 697 q 60 668 60 697 l 60 634 q 43 618 60 628 l 1 618 q -20 660 -20 628 q 22 697 -20 697 m -24 471 l 22 471 q 39 433 39 465 q 22 395 39 401 l -24 395 q -41 412 -31 395 l -41 441 q -24 471 -41 464 m 480 404 l 526 404 q 543 366 543 397 q 526 328 539 328 l 480 328 q 463 345 473 328 l 463 374 q 480 404 463 397 m 31 302 l 165 302 q 182 239 182 302 q 136 222 168 226 l 77 227 q 22 222 75 227 q 14 264 14 242 q 31 302 18 302 z "}}}
